<ttFont>
          <CharString index="0">
            -14 32 -106 callsubr
          </CharString>
          <CharString index="1">
            -18 35 -104 callsubr
          </CharString>
          <CharString index="2">
            -30 605 -101 callgsubr
            -141 hlineto
            -34 40 -12 return
          </CharString>
          <CharString index="3">
            -99 callgsubr
            endchar
          </CharString>
          <CharString index="4">
            -107 callgsubr
            102 hlineto
            -12 -18 -7 -22 -24 vvcurveto
            -51 37 -53 91 13 callgsubr
            32 30 vvcurveto
            46 38 27 39 63 20 521 callsubr
            -30 26 -24 hhcurveto
            -24 -38 -31 -25 -29 41 -31 47 10 10 1 2 9 hvcurveto
            54 -55 80 -112 32 -65 23 9 25 -56 callsubr
            return
          </CharString>
          <CharString index="5">
            -94 callsubr
            11 return
          </CharString>
          <CharString index="6">
            -93 callsubr
            -41 -29 -18 callsubr
            -87 callsubr
            return
          </CharString>
          <CharString index="7">
            201 callsubr
            -62 -97 -95 79 -85 107 54 41 185 callsubr
            33 -18 35 vhcurveto
            return
          </CharString>
          <CharString index="8">
            rmoveto
            92 313 90 -313 rlineto
            145 -231 rmoveto
            0 vlineto
            -193 628 -23 3 -19 0 -23 -3 rlinecurve
            -193 -630 -40 -42 callgsubr
            53 181 rlineto
            212 hlineto
            53 -183 -41 callsubr
            192 123 callgsubr
          </CharString>
          <CharString index="9">
            -60 callgsubr
            -73 callgsubr
            return
          </CharString>
          <CharString index="10">
            -85 callgsubr
            -154 57 -102 159 168 69 106 163 vhcurveto
            52 callgsubr
            return
          </CharString>
          <CharString index="11">
            rmoveto
            -103 callgsubr
            return
          </CharString>
          <CharString index="12">
            rmoveto
            432 -119 vlineto
            -32 4 -32 -10 1 hvcurveto
            77 -5 rlineto
            -342 vlineto
            -33 -38 -36 -22 -56 hhcurveto
            -74 -44 49 100 hvcurveto
            295 -117 vlineto
            -33 5 -32 -10 hvcurveto
            76 -5 rlineto
            -254 vlineto
            -153 92 -50 79 74 45 33 34 34 vhcurveto
            13 -53 121 10 rlineto
            13 1 28 -24 2 vhcurveto
            return
          </CharString>
          <CharString index="13">
            -22 9 -26 return
          </CharString>
          <CharString index="14">
            -70 callgsubr
            -8 -18 vhcurveto
            5 -15 191 callsubr
            return
          </CharString>
          <CharString index="15">
            hlineto
            -105 callgsubr
            return
          </CharString>
          <CharString index="16">
            159 callgsubr
            -47 -23 -57 hhcurveto
            -82 128 callgsubr
            23 55 57 86 callgsubr
            return
          </CharString>
          <CharString index="17">
            -532 -68 callgsubr
            return
          </CharString>
          <CharString index="18">
            4 191 627 rmoveto
            251 -5 10 -113 rlineto
            10 -1 34 -4 32 vvcurveto
            141 -422 vlineto
            -33 73 callsubr
            rlineto
            393 callsubr
            -10 vvcurveto
            468 136 hlineto
            33 -34 -5 -10 -1 vhcurveto
            -10 -106 -32 callsubr
            return
          </CharString>
          <CharString index="19">
            -1 -29 -7 -9 -16 rrcurveto
            -2 -5 -2 -10 -9 vvcurveto
            -40 62 -64 32 12 -12 callgsubr
            256 return
          </CharString>
          <CharString index="20">
            -90 callgsubr
            54 hhcurveto
            return
          </CharString>
          <CharString index="21">
            rmoveto
            265 vlineto
            142 -84 50 -78 -74 -55 -41 -36 -38 vhcurveto
            -3 hlineto
            -13 76 -129 -17 497 callsubr
            -2 vhcurveto
            52 -6 rlineto
            -394 -32 callgsubr
            -71 6 rlineto
            330 vlineto
            43 51 40 24 58 hhcurveto
            76 35 -51 -89 hvcurveto
            -259 181 callsubr
            186 -7 callgsubr
            return
          </CharString>
          <CharString index="22">
            71 callgsubr
            305 callgsubr
            -18 -21 239 callsubr
            11 13 13 305 callsubr
            31 -124 45 -63 112 rrcurveto
            101 7 28 return
          </CharString>
          <CharString index="23">
            228 callsubr
            -53 41 59 -26 hvcurveto
            94 22 55 58 73 377 callgsubr
            return
          </CharString>
          <CharString index="24">
            rmoveto
            -87 -64 32 61 36 23 40 33 29 hvcurveto
            23 -4 28 -1 31 -1 rrcurveto
            108 -3 76 -7 -66 vvcurveto
            -60 -58 -56 -113 vhcurveto
            -13 623 rmoveto
            72 2 33 -64 -65 vvcurveto
            -68 -38 -62 -68 -1 vhcurveto
            -70 -1 -35 63 67 vvcurveto
            70 39 57 67 2 vhcurveto
            108 19 rmoveto
            19 -30 -36 9 -35 hhcurveto
            -119 -69 -94 -103 7 hvcurveto
            3 -60 29 -49 49 -25 rrcurveto
            -28 -29 -22 -29 -30 vvcurveto
            -21 9 -13 16 -8 vhcurveto
            -44 -33 -35 -48 -54 vvcurveto
            -76 70 -58 126 147 90 80 114 97 -66 26 -157 3 vhcurveto
            -46 2 -41 -1 -4 15 -2 8 9 17 20 23 rrcurveto
            -3 14 15 -2 17 hhcurveto
            116 60 81 100 3 hvcurveto
            1 48 -12 36 -20 26 31 -1 41 0 14 7 16 12 -5 32 -11 14 rrcurveto
            endchar
          </CharString>
          <CharString index="25">
            181 callgsubr
            -490 vlineto
            -350 540 rlineto
            -106 hlineto
            -32 73 callsubr
            -36 -3 6 -33 -1 -10 rlinecurve
            178 384 callgsubr
            500 vlineto
            357 -550 rlineto
            20 14 3 8 18 hvcurveto
            618 vlineto
            47 209 callsubr
          </CharString>
          <CharString index="26">
            rmoveto
            -136 -88 -106 -170 2 hvcurveto
            -153 2 73 -90 131 hhcurveto
            144 82 112 163 -2 hvcurveto
            195 -1 -116 49 -91 hhcurveto
            -7 -52 rmoveto
            100 1 41 -102 -108 vvcurveto
            -119 -49 -87 -92 vhcurveto
            -97 -1 -44 92 115 vvcurveto
            117 49 92 92 vhcurveto
            return
          </CharString>
          <CharString index="27">
            hlineto
            -70 callsubr
            return
          </CharString>
          <CharString index="28">
            6 9 -28 hvcurveto
            12 28 6 34 38 vvcurveto
            41 return
          </CharString>
          <CharString index="29">
            62 callgsubr
            86 callsubr
            -5 -2 -10 -9 184 callgsubr
            9 6 vhcurveto
            11 16 278 callsubr
            47 39 -1 -1 35 hvcurveto
            return
          </CharString>
          <CharString index="30">
            -47 callsubr
            193 hlineto
            return
          </CharString>
          <CharString index="31">
            -12 14 vhcurveto
            return
          </CharString>
          <CharString index="32">
            hhcurveto
            51 142 callsubr
            -144 -92 callgsubr
          </CharString>
          <CharString index="33">
            -68 callsubr
            11 14 return
          </CharString>
          <CharString index="34">
            -64 callsubr
            -35 -21 -38 53 callsubr
            return
          </CharString>
          <CharString index="35">
            16 callsubr
            47 -23 -68 -79 -64 105 callsubr
            69 75 1 callsubr
          </CharString>
          <CharString index="36">
            hhcurveto
            -38 -60 303 callgsubr
            63 48 23 -7 -20 27 hvcurveto
            19 37 rlineto
            25 -24 -46 23 -66 hhcurveto
            -82 -85 231 callgsubr
            105 return
          </CharString>
          <CharString index="37">
            -22 10 -9 callsubr
            return
          </CharString>
          <CharString index="38">
            -107 callgsubr
            322 503 callgsubr
            95 callgsubr
            -24 42 -34 hhcurveto
            -24 -30 -22 -34 -38 50 -25 51 -12 122 callsubr
            111 88 55 87 57 -37 75 -69 hvcurveto
            182 callsubr
            27 21 102 hvcurveto
            66 16 -3 19 hhcurveto
            11 22 22 16 hvcurveto
            return
          </CharString>
          <CharString index="39">
            55 -92 107 177 callsubr
            24 18 return
          </CharString>
          <CharString index="40">
            -85 callsubr
            103 99 34 callgsubr
            436 hlineto
            -12 -18 -7 -22 -24 vvcurveto
            -54 40 -52 88 -36 vhcurveto
            4 2 10 14 2 11 rrcurveto
            -64 42 -12 35 27 vvcurveto
            49 38 25 41 58 23 -49 -53 -91 -79 -77 -67 -15 vhcurveto
            27 -21 -31 25 -22 hhcurveto
            -26 -21 -35 -10 -8 hvcurveto
            -47 -38 -43 -37 -54 hhcurveto
            -41 -59 23 79 76 54 33 74 41 26 -9 -18 24 hvcurveto
            19 37 rlineto
            24 -22 -48 24 -63 hhcurveto
            -85 -85 231 callgsubr
            105 61 56 36 46 39 hvcurveto
            -9 11 13 -7 18 hhcurveto
            10 9 1 2 10 hvcurveto
            54 -55 80 -112 32 396 callgsubr
            95 34 93 88 104 vvcurveto
            45 -17 38 -26 27 vhcurveto
            166 -532 hlineto
            -107 callsubr
          </CharString>
          <CharString index="41">
            -3 -44 callsubr
            return
          </CharString>
          <CharString index="42">
            -141 hlineto
            -138 58 -93 111 50 43 19 20 31 vhcurveto
            481 callsubr
            return
          </CharString>
          <CharString index="43">
            hlineto
            -58 callgsubr
            return
          </CharString>
          <CharString index="44">
            -13 vhcurveto
            97 -65 callsubr
            return
          </CharString>
          <CharString index="45">
            -46 callgsubr
            34 50 49 58 hhcurveto
            return
          </CharString>
          <CharString index="46">
            -32 16 -33 -27 vvcurveto
            return
          </CharString>
          <CharString index="47">
            hlineto
            32 -4 34 10 -1 hvcurveto
            return
          </CharString>
          <CharString index="48">
            47 -96 102 -51 81 38 2 29 15 22 23 rrcurveto
            -22 42 return
          </CharString>
          <CharString index="49">
            -106 callgsubr
            123 return
          </CharString>
          <CharString index="50">
            hmoveto
            -103 callgsubr
            return
          </CharString>
          <CharString index="51">
            -33 callsubr
            -18 37 -26 28 vhcurveto
            return
          </CharString>
          <CharString index="52">
            -79 callsubr
            -8 47 return
          </CharString>
          <CharString index="53">
            14 callsubr
            -64 223 callsubr
            return
          </CharString>
          <CharString index="54" raw="1">
            1b2a3d5f 1d0b  
          </CharString>
          <CharString index="55">
            -107 callgsubr
            362 34 callsubr
            11 hvcurveto
            -18 -10 -11 -17 -24 0 callsubr
            return
          </CharString>
          <CharString index="56">
            -195 87 callsubr
            return
          </CharString>
          <CharString index="57">
            rmoveto
            -33 4 -31 -10 1 hvcurveto
            58 -6 -128 -333 -130 335 38 3 36 3 -6 29 1 10 rlinecurve
            -168 hlineto
            -33 4 -31 -10 1 hvcurveto
            49 -6 rlineto
            1 hlineto
            174 -418 rlineto
            -59 -23 -55 -125 -40 hhcurveto
            -26 -1 22 18 4 hvcurveto
            2 -5 -6 0 -4 hhcurveto
            -25 -17 -20 -27 -28 22 -26 47 87 53 148 96 40 hvcurveto
            -1 hlineto
            171 421 10 1 38 4 -7 28 438 callgsubr
          </CharString>
          <CharString index="58">
            rmoveto
            -30 -29 -46 -23 -58 -25 callsubr
            return
          </CharString>
          <CharString index="59">
            -37 callgsubr
            49 41 -21 -25 30 hvcurveto
            return
          </CharString>
          <CharString index="60">
            128 callgsubr
            22 55 58 -52 callgsubr
            return
          </CharString>
          <CharString index="61">
            -23 callgsubr
            -51 callsubr
            return
          </CharString>
          <CharString index="62">
            211 -67 callgsubr
            return
          </CharString>
          <CharString index="63">
            6 -6 callgsubr
            return
          </CharString>
          <CharString index="64">
            rmoveto
            472 callgsubr
            112 -6 rlineto
            -168 vlineto
            -28 -33 -60 -18 -58 hhcurveto
            -162 -58 127 165 182 72 127 150 96 58 -40 -96 hvcurveto
            49 13 32 28 62 -57 66 -145 -208 -109 -158 -221 5 hvcurveto
            -208 5 99 -122 175 hhcurveto
            93 97 34 52 45 hvcurveto
            186 2 vlineto
            25 3 35 4 -5 32 438 callgsubr
          </CharString>
          <CharString index="65">
            hhcurveto
            50 44 19 21 30 hvcurveto
            -200 37 callsubr
            46 -23 -68 -79 -63 105 callsubr
            68 75 100 vvcurveto
            100 -71 67 -85 -57 -44 -29 -28 -30 vhcurveto
            endchar
          </CharString>
          <CharString index="66">
            -46 -71 callgsubr
            return
          </CharString>
          <CharString index="67">
            257 callgsubr
            -60 -44 -89 7 callgsubr
            return
          </CharString>
          <CharString index="68">
            -84 callsubr
            210 hmoveto
            21 -8 26 -12 14 vhcurveto
            -610 hlineto
            -22 return
          </CharString>
          <CharString index="69">
            -49 callsubr
            211 hmoveto
            21 -9 26 return
          </CharString>
          <CharString index="70">
            rmoveto
            21 -29 -41 19 -54 hhcurveto
            -82 -85 -47 -101 -87 66 -84 115 48 33 14 21 29 hvcurveto
            -48 vlineto
            -21 -60 -62 -9 -61 hhcurveto
            -129 -110 51 75 -55 hvcurveto
            93 8 33 94 109 vvcurveto
            43 -6 41 -9 35 vhcurveto
            366 hlineto
            -297 vmoveto
            -37 -32 -50 -22 -45 hhcurveto
            -40 -59 22 72 77 58 33 63 45 458 callgsubr
            211 182 -97 callgsubr
            -795 516 callgsubr
            18 -38 15 -50 -51 vvcurveto
            -23 -2 -34 -8 -26 vhcurveto
            5 -18 -22 4 -17 hhcurveto
            -48 -26 -23 -40 -99 127 -114 174 -17 hvcurveto
            -267 -73 3 -23 11 -26 12 -12 rlinecurve
            488 152 rlineto
            -62 vlineto
            -13 32 -19 35 vhcurveto
            582 vlineto
            endchar
          </CharString>
          <CharString index="71">
            rmoveto
            -260 -5 rlineto
            580 vlineto
            50 152 callgsubr
            -199 hlineto
            142 callgsubr
            74 -6 rlineto
            -580 17 callgsubr
            464 139 hlineto
            31 -34 -4 -10 -1 vhcurveto
            endchar
          </CharString>
          <CharString index="72">
            -17 -16 callsubr
            return
          </CharString>
          <CharString index="73">
            rmoveto
            10 20 24 5 27 hhcurveto
            53 38 -20 -28 34 hvcurveto
            -118 vlineto
            -6 -8 -8 -8 -8 -7 rrcurveto
            -39 -29 rmoveto
            -16 -29 -34 -10 -34 hhcurveto
            -50 -56 34 79 36 303 callsubr
            445 192 -96 callsubr
            return
          </CharString>
          <CharString index="74">
            22 9 14 -35 callsubr
            return
          </CharString>
          <CharString index="75">
            -265 -7 rlineto
            262 vlineto
            192 -11 5 24 -1 28 -4 20 rlinecurve
            -192 -13 rlineto
            return
          </CharString>
          <CharString index="76">
            41 rrcurveto
            18 22 11 27 31 vvcurveto
            38 -18 23 -25 -24 -53 245 callsubr
            -13 -19 421 callsubr
            514 callsubr
            return
          </CharString>
          <CharString index="77">
            -113 -2 -94 -65 -109 vvcurveto
            -104 94 -44 105 -46 vhcurveto
            85 -37 65 -24 -84 vvcurveto
            -83 -64 -54 -96 -84 -58 41 81 -16 vhcurveto
            -38 -20 -27 -33 -74 102 -43 98 151 94 103 115 101 -73 36 -111 48 hvcurveto
            return
          </CharString>
          <CharString index="78">
            -36 596 281 rmoveto
            -58 -27 -64 -35 -58 hhcurveto
            -40 -59 22 72 77 58 33 64 28 29 -3 -17 27 hvcurveto
            17 31 rlineto
            31 -30 -41 16 -50 hhcurveto
            -81 -86 -47 -101 -87 67 -84 114 62 38 24 32 36 hvcurveto
            22 -51 rmoveto
            -29 -67 -92 -19 -70 hhcurveto
            -129 -112 51 74 -55 hvcurveto
            92 9 34 92 115 vvcurveto
            44 -6 37 -9 34 vhcurveto
            350 -83 callgsubr
            -566 -107 callgsubr
            141 hlineto
            19 -38 16 -50 -51 vvcurveto
            -23 -2 -34 -9 -26 vhcurveto
            5 -18 -20 4 -17 hhcurveto
            -49 -27 -22 -41 -99 129 -114 174 -17 hvcurveto
            -267 -73 3 -23 11 -26 11 -12 rlinecurve
            539 169 rlineto
            return
          </CharString>
          <CharString index="79">
            -3 callgsubr
            -4 return
          </CharString>
          <CharString index="80">
            71 38 69 51 2 callsubr
            -11 14 vhcurveto
            return
          </CharString>
          <CharString index="81">
            -21 24 160 callgsubr
            return
          </CharString>
          <CharString index="82">
            hhcurveto
            -82 -77 callsubr
            return
          </CharString>
          <CharString index="83">
            -29 -29 -47 -24 -58 hhcurveto
            -81 return
          </CharString>
          <CharString index="84">
            251 callsubr
            2 29 15 21 return
          </CharString>
          <CharString index="85">
            318 callsubr
            -90 callsubr
            return
          </CharString>
          <CharString index="86">
            -79 callgsubr
            42 -43 -40 17 vhcurveto
            -7 -20 -3 -18 -1 -12 return
          </CharString>
          <CharString index="87">
            -105 callgsubr
            -303 -80 callsubr
            92 -204 hlineto
            -8 -23 -29 -4 -28 hhcurveto
            -44 -45 9 18 -29 hvcurveto
            46 40 31 46 49 vvcurveto
            69 -48 60 -75 -72 -50 -54 -61 -60 50 -53 33 -24 vhcurveto
            -51 -32 -60 -26 -47 -13 8 -23 15 -26 9 -9 56 17 65 32 54 39 return
          </CharString>
          <CharString index="88">
            16 18 28 hvcurveto
            return
          </CharString>
          <CharString index="89">
            -21 -39 88 callsubr
            hvcurveto
            return
          </CharString>
          <CharString index="90">
            40 27 41 54 vvcurveto
            86 -65 51 -81 -85 -56 -55 -66 -61 51 -52 39 -26 vhcurveto
            -96 -60 -41 474 callsubr
            117 36 38 9 17 30 vhcurveto
            32 -46 21 410 callsubr
            8 13 -17 30 -45 53 -38 36 rrcurveto
            21 19 11 25 27 vvcurveto
            37 -21 22 -20 -23 -50 return
          </CharString>
          <CharString index="91">
            93 callgsubr
            rrcurveto
            90 32 98 86 109 vvcurveto
            44 return
          </CharString>
          <CharString index="92">
            67 -26 37 -19 -1 -49 -1 -56 -52 -29 -59 1 rrcurveto
            -67 -44 38 53 -11 hvcurveto
            -27 1 -23 -18 -1 -32 rrcurveto
            -61 81 -31 75 -2 vhcurveto
            123 -2 68 82 1 81 2 79 -62 26 -81 32 return
          </CharString>
          <CharString index="93">
            -46 28 51 63 70 33 71 244 callgsubr
            -29 -8 -27 -10 -24 -12 rrcurveto
            -34 6 -43 29 54 vvcurveto
            26 10 25 15 17 vhcurveto
            return
          </CharString>
          <CharString index="94">
            -107 callgsubr
            93 67 callgsubr
            return
          </CharString>
          <CharString index="95">
            -12 29 -26 callsubr
            return
          </CharString>
          <CharString index="96">
            hhcurveto
            -70 37 callgsubr
            -66 -51 -40 -59 72 callsubr
            -31 -5 callsubr
            -67 -47 494 callsubr
            19 84 -93 128 hhcurveto
            return
          </CharString>
          <CharString index="97">
            6 -30 -1 -10 rlinecurve
            return
          </CharString>
          <CharString index="98">
            -26 10 -13 vhcurveto
            return
          </CharString>
          <CharString index="99">
            -18 -27 -67 -82 -36 -72 -17 -19 2 5 -14 hvcurveto
            31 -15 return
          </CharString>
          <CharString index="100">
            -8 callsubr
            -26 42 -31 hhcurveto
            -24 return
          </CharString>
          <CharString index="101">
            -21 callsubr
            7 -12 28 157 callsubr
            35 -99 callgsubr
            endchar
          </CharString>
          <CharString index="102">
            26 41 vvcurveto
            43 36 21 33 40 32 -31 -57 return
          </CharString>
          <CharString index="103">
            hhcurveto
            -45 -42 -20 -31 -34 hvcurveto
            -68 -125 -96 callgsubr
            return
          </CharString>
          <CharString index="104">
            51 callsubr
            265 callsubr
            return
          </CharString>
          <CharString index="105">
            -59 hlineto
            -62 -6 -42 -47 -64 vvcurveto
            -80 66 -47 54 -24 vhcurveto
            10 418 callsubr
            -43 26 -28 506 callgsubr
            31 -27 callgsubr
            -10 14 -16 17 -11 -1 -33 -8 -39 -19 rrcurveto
            -39 438 callsubr
            16 vhcurveto
            7 1 8 5 4 4 rrcurveto
            32 -7 -29 57 -78 hhcurveto
            -74 -48 -51 -61 -55 40 -59 126 callsubr
            return
          </CharString>
          <CharString index="106">
            -78 30 -51 21 1 47 1 43 43 30 56 -1 61 -1 28 -35 -1 -44 23 -2 34 12 1 39 1 58 -73 23 -59 1 return
          </CharString>
          <CharString index="107">
            vvcurveto
            459 callsubr
            vhcurveto
            55 149 callgsubr
            22 rrcurveto
            -21 43 57 -10 54 hhcurveto
            return
          </CharString>
          <CharString index="108">
            100 vvcurveto
            100 -72 69 callgsubr
          </CharString>
          <CharString index="109">
            159 callsubr
            211 197 rmoveto
            21 -9 26 return
          </CharString>
          <CharString index="110">
            rmoveto
            651 vlineto
            -145 -19 497 callsubr
            -3 vhcurveto
            52 -5 rlineto
            -587 -32 callgsubr
            return
          </CharString>
          <CharString index="111">
            2 27 callsubr
            return
          </CharString>
          <CharString index="112">
            -40 520 605 rmoveto
            -550 -107 callgsubr
            550 -92 callsubr
            -465 -172 rmoveto
            314 callsubr
            -22 41 -23 26 hvcurveto
            66 -14 83 -51 57 -69 -293 -186 rcurveline
            128 callsubr
            325 229 rcurveline
            138 -71 -163 76 -104 61 callgsubr
            return
          </CharString>
          <CharString index="113">
            rmoveto
            -133 vlineto
            12 -7 32 7 3 31 4 56 rcurveline
            198 5 -285 -419 2 -11 4 -11 5 -7 rlinecurve
            359 136 hlineto
            -11 7 -32 -7 -3 -30 -6 -57 rcurveline
            -231 -4 282 414 -3 11 -5 12 -5 7 rlinecurve
            return
          </CharString>
          <CharString index="114">
            60 -85 78 95 vvcurveto
            62 38 48 57 464 callsubr
            7 -12 return
          </CharString>
          <CharString index="115">
            -22 -15 8 10 -13 hvcurveto
            -6 -4 -8 -12 2 -15 rrcurveto
            -15 14 24 -13 35 hhcurveto
            54 39 31 49 38 -23 32 -58 hvcurveto
            return
          </CharString>
          <CharString index="116">
            22 28 36 vhcurveto
            -140 vlineto
            -107 callsubr
          </CharString>
          <CharString index="117">
            29 -61 callsubr
            return
          </CharString>
          <CharString index="118">
            hhcurveto
            7 6 0 -2 6 hvcurveto
            -374 vlineto
            -107 callsubr
          </CharString>
          <CharString index="119">
            -25 -31 -57 -36 -92 hhcurveto
            -165 -58 122 167 176 70 127 141 83 52 -47 -85 hvcurveto
            43 1 20 21 36 vvcurveto
            73 -82 55 -108 return
          </CharString>
          <CharString index="120">
            1 vlineto
            51 2 rlineto
            203 7 104 -84 -217 vvcurveto
            -202 -103 -91 -183 3 vhcurveto
            -188 631 rmoveto
            -31 1 -28 -17 1 hvcurveto
            72 -6 rlineto
            return
          </CharString>
          <CharString index="121">
            221 8 callgsubr
            return
          </CharString>
          <CharString index="122">
            -32 -80 callgsubr
            return
          </CharString>
          <CharString index="123">
            -199 37 callsubr
            return
          </CharString>
          <CharString index="124">
            -2 -36 5 callgsubr
            return
          </CharString>
          <CharString index="125">
            -22 19 41 53 31 18 109 hvcurveto
            48 87 callgsubr
            return
          </CharString>
          <CharString index="126">
            -54 callsubr
            288 121 rmoveto
            158 -83 callgsubr
            -615 30 callgsubr
            275 vlineto
            46 34 52 55 61 hhcurveto
            16 18 -5 -9 13 hvcurveto
            33 38 rlineto
            22 -27 -35 13 -36 hhcurveto
            -55 -44 -28 -27 -30 hvcurveto
            endchar
          </CharString>
          <CharString index="127">
            hlineto
            19 -41 15 -52 434 callgsubr
            -15 -9 -18 vhcurveto
            3 -14 -21 4 -25 hhcurveto
            -41 -29 -21 -40 -26 15 -34 20 -36 hvcurveto
            52 -89 108 -116 29 -25 12 6 28 19 10 15 -56 46 -99 103 -51 82 return
          </CharString>
          <CharString index="128">
            rmoveto
            225 -216 hlineto
            -44 -41 -20 -33 -12 vhcurveto
            6 -24 16 -27 13 -11 rrcurveto
            57 23 49 42 68 vvcurveto
            221 120 -74 callgsubr
            -577 -107 callgsubr
            100 -217 hlineto
            -144 77 -50 72 -43 vhcurveto
            89 -53 90 -49 -37 vvcurveto
            -22 -23 -29 -36 -18 vhcurveto
            11 -22 18 -22 17 -12 rrcurveto
            36 34 30 31 57 vvcurveto
            93 -92 40 -100 58 vhcurveto
            -104 61 -20 24 78 vvcurveto
            endchar
          </CharString>
          <CharString index="129">
            34 callgsubr
            706 38 callgsubr
            hvcurveto
            -4 vlineto
            -73 -30 -60 -36 -54 hhcurveto
            -39 -59 23 79 76 57 33 64 48 22 -7 -20 28 hvcurveto
            19 37 rlineto
            25 -25 -46 23 -65 473 callsubr
            79 -85 105 61 48 29 46 37 hvcurveto
            -58 30 59 -43 82 hhcurveto
            58 200 callsubr
            35 -99 callgsubr
            endchar
          </CharString>
          <CharString index="130">
            rmoveto
            14 422 callsubr
            11 -165 127 rcurveline
            -25 -3 -27 -25 -11 -21 rrcurveto
            endchar
          </CharString>
          <CharString index="131">
            -36 -44 -44 -17 -49 hhcurveto
            -122 -33 102 97 113 47 95 99 71 27 -51 -43 1 hvcurveto
            28 -1 28 12 42 vvcurveto
            56 -53 39 -86 return
          </CharString>
          <CharString index="132">
            174 callsubr
            -90 -121 245 callgsubr
            return
          </CharString>
          <CharString index="133">
            -74 callsubr
            -57 47 -96 102 return
          </CharString>
          <CharString index="134">
            36 -23 callgsubr
            return
          </CharString>
          <CharString index="135">
            vvcurveto
            -137 186 -79 130 -35 vhcurveto
            8 9 5 19 4 17 rrcurveto
            -126 36 -138 54 104 vvcurveto
            63 58 44 81 59 238 callsubr
            return
          </CharString>
          <CharString index="136">
            78 95 vvcurveto
            62 return
          </CharString>
          <CharString index="137">
            144 190 49 rmoveto
            263 180 51 -180 267 13 callsubr
            -265 -52 -51 52 -263 32 callgsubr
          </CharString>
          <CharString index="138">
            -101 456 605 rmoveto
            -486 -107 callgsubr
            486 -92 callsubr
            -409 -171 rmoveto
            129 callsubr
            rrcurveto
            -173 47 83 -166 139 256 callsubr
            224 64 -274 -73 callsubr
            return
          </CharString>
          <CharString index="139">
            rrcurveto
            3 18 24 2 22 hhcurveto
            24 19 -3 -5 18 hvcurveto
            57 -16 62 -64 30 -37 return
          </CharString>
          <CharString index="140">
            -204 hlineto
            288 callsubr
            return
          </CharString>
          <CharString index="141">
            -100 callsubr
            290 vlineto
            48 35 46 41 52 hhcurveto
            18 15 -4 -8 return
          </CharString>
          <CharString index="142">
            99 callgsubr
            7 -4 rrcurveto
            57 20 27 33 41 vvcurveto
            54 return
          </CharString>
          <CharString index="143">
            -13 callgsubr
            288 121 rmoveto
            return
          </CharString>
          <CharString index="144">
            53 callgsubr
            47 32 54 57 62 hhcurveto
            40 return
          </CharString>
          <CharString index="145">
            434 callgsubr
            -21 -9 -18 vhcurveto
            5 -14 191 callsubr
            return
          </CharString>
          <CharString index="146">
            208 callgsubr
            195 hlineto
            32 -4 34 10 -1 hvcurveto
            return
          </CharString>
          <CharString index="147">
            rrcurveto
            -31 -26 -21 -38 -46 vvcurveto
            -137 185 -79 130 -35 vhcurveto
            9 9 5 19 3 17 rrcurveto
            -125 36 -138 54 104 vvcurveto
            63 57 44 82 58 30 -23 -28 -35 -25 -25 -40 -16 vhcurveto
            7 -21 20 -28 11 -9 rrcurveto
            46 425 callsubr
            -30 vhcurveto
            -28 25 -11 27 21 vvcurveto
            30 17 18 100 vhcurveto
            endchar
          </CharString>
          <CharString index="148">
            230 callsubr
            -52 117 callgsubr
            232 107 callsubr
            return
          </CharString>
          <CharString index="149">
            -33 4 -34 -10 1 hvcurveto
            64 -6 -246 -303 rlineto
            305 208 callgsubr
            197 -60 callsubr
            -75 6 rlineto
            201 vlineto
            48 58 217 -309 rlineto
            91 hlineto
            31 -1 31 10 -3 hvcurveto
            return
          </CharString>
          <CharString index="150">
            -107 callgsubr
            125 -190 65 callgsubr
            -11 381 callsubr
            8 vhcurveto
            12 15 6 36 35 vvcurveto
            return
          </CharString>
          <CharString index="151">
            vlineto
            16 -34 -34 10 -48 hhcurveto
            -154 -88 -110 -168 4 hvcurveto
            -166 4 91 -75 100 hhcurveto
            71 52 36 37 37 hvcurveto
            -41 3 20 -32 48 hhcurveto
            40 20 18 29 1 hvcurveto
            return
          </CharString>
          <CharString index="152">
            396 callsubr
            22 -15 rrcurveto
            52 37 38 300 callsubr
            return
          </CharString>
          <CharString index="153">
            -31 -20 -20 -33 -24 17 -23 27 -3 hvcurveto
            -6 -20 -13 -26 -22 -15 rrcurveto
            -6 return
          </CharString>
          <CharString index="154">
            rmoveto
            -32 callsubr
            267 vlineto
            251 -5 10 -113 rlineto
            10 -1 34 -4 32 vvcurveto
            141 -422 vlineto
            -33 73 callsubr
            rlineto
            393 callsubr
            -10 vvcurveto
            468 136 hlineto
            33 -34 -5 -10 -1 vhcurveto
            endchar
          </CharString>
          <CharString index="155">
            563 rmoveto
            29 321 callsubr
            -29 -29 -23 -24 -28 -29 23 -23 29 hvcurveto
            164 hmoveto
            27 callgsubr
            return
          </CharString>
          <CharString index="156">
            1 -26 hhcurveto
            165 349 callsubr
            -66 -48 -33 -62 -62 45 59 callgsubr
            37 56 11 -58 -80 vhcurveto
            -132 vlineto
            262 callsubr
            -44 61 -53 18 -6 vhcurveto
            -1 5 6 97 callsubr
            return
          </CharString>
          <CharString index="157">
            vlineto
            91 callgsubr
            -112 19 73 -99 141 hhcurveto
            52 142 callsubr
            -144 vlineto
            -107 callsubr
          </CharString>
          <CharString index="158">
            rmoveto
            -53 -40 91 callsubr
            return
          </CharString>
          <CharString index="159">
            -61 callsubr
            -60 -44 -38 -98 -21 vhcurveto
            return
          </CharString>
          <CharString index="160">
            -110 28 callgsubr
            return
          </CharString>
          <CharString index="161">
            93 682 100 callsubr
            -13 6 3 vhcurveto
            37 15 43 61 50 vvcurveto
            33 -21 21 -30 vhcurveto
            return
          </CharString>
          <CharString index="162">
            -13 97 callgsubr
            return
          </CharString>
          <CharString index="163">
            15 -45 hhcurveto
            -89 327 callgsubr
            -100 73 -93 119 return
          </CharString>
          <CharString index="164">
            hhcurveto
            -53 -44 182 callgsubr
            -18 125 callsubr
            return
          </CharString>
          <CharString index="165">
            -1 -19 -7 -11 -9 rrcurveto
            -117 40 81 -138 124 hhcurveto
            74 39 48 60 43 return
          </CharString>
          <CharString index="166">
            -107 callgsubr
            363 201 callsubr
            return
          </CharString>
          <CharString index="167">
            36 38 9 17 30 vhcurveto
            32 -46 20 410 callsubr
            9 13 -17 30 -45 53 -38 36 rrcurveto
            20 19 12 25 27 vvcurveto
            37 -21 22 -21 -22 return
          </CharString>
          <CharString index="168">
            434 callsubr
            39 58 74 vvcurveto
            102 return
          </CharString>
          <CharString index="169">
            rmoveto
            -11 22 -27 25 -25 3 -165 -31 callgsubr
            return
          </CharString>
          <CharString index="170">
            -548 -13 837 rmoveto
            -65 -42 -54 -39 -75 hhcurveto
            -54 -36 18 56 -60 hvcurveto
            -8 -7 -13 -13 -6 -9 rrcurveto
            -68 52 77 -44 78 hhcurveto
            93 77 73 41 26 hvcurveto
            -13 24 -20 20 -22 13 rrcurveto
            -155 60 rmoveto
            -10 -42 -34 -13 -11 34 -40 12 12 39 36 11 9 -32 42 -13 hvcurveto
            endchar
          </CharString>
          <CharString index="171">
            -50 -47 172 callsubr
            -59 22 -12 vhcurveto
            -2 5 5 -2 6 171 callsubr
            return
          </CharString>
          <CharString index="172">
            -20 -18 -27 hvcurveto
            9 -28 20 -33 7 -6 rrcurveto
            14 18 46 30 44 hhcurveto
            69 59 -93 -81 40 hvcurveto
            53 return
          </CharString>
          <CharString index="173">
            195 callgsubr
            -60 -43 -38 -99 -21 vhcurveto
            return
          </CharString>
          <CharString index="174">
            hhcurveto
            -68 -45 -48 -49 -28 hvcurveto
            33 -17 -45 65 -81 -98 callsubr
            41 -42 123 callsubr
            -4 -19 338 callsubr
            47 90 return
          </CharString>
          <CharString index="175">
            10 -21 22 9 29 23 10 14 -18 30 -39 45 -44 42 rrcurveto
            18 21 11 28 30 vvcurveto
            38 -18 24 -24 -25 -53 -24 -40 -12 5 -21 16 -19 vhcurveto
            -16 -23 -41 -6 -29 hhcurveto
            -69 -94 30 103 91 74 52 120 hvcurveto
            40 21 -6 9 hhcurveto
            13 1 21 23 15 vvcurveto
            endchar
          </CharString>
          <CharString index="176">
            313 callgsubr
            -32 -5 callsubr
            return
          </CharString>
          <CharString index="177">
            -74 9 -21 20 -24 15 -11 rlinecurve
            182 160 32 -47 18 -41 412 callsubr
            return
          </CharString>
          <CharString index="178">
            rmoveto
            -25 -3 -27 -25 -11 -21 199 -107 rcurveline
            14 422 callsubr
            11 rrcurveto
            return
          </CharString>
          <CharString index="179">
            -43 27 -45 66 -35 vhcurveto
            7 4 10 12 5 11 rrcurveto
            -25 16 return
          </CharString>
          <CharString index="180">
            -80 callgsubr
            -579 vlineto
            -46 -2 return
          </CharString>
          <CharString index="181">
            121 113 35 93 77 80 -25 -97 -101 -94 -73 return
          </CharString>
          <CharString index="182">
            -11 18 -17 19 -21 12 rrcurveto
            -50 return
          </CharString>
          <CharString index="183">
            vhcurveto
            -7 -21 -3 -18 -1 return
          </CharString>
          <CharString index="184">
            81 38 2 29 15 21 22 rrcurveto
            -21 43 154 callsubr
          </CharString>
          <CharString index="185">
            hhcurveto
            -101 -70 -46 -74 -59 40 -49 16 -12 hvcurveto
            10 1 17 9 6 7 rrcurveto
            -10 12 -19 25 37 vvcurveto
            62 56 25 78 161 113 -142 -74 38 vhcurveto
            -144 -33 callgsubr
          </CharString>
          <CharString index="186">
            282 callgsubr
            23 rrcurveto
            -22 43 56 -10 55 hhcurveto
            return
          </CharString>
          <CharString index="187">
            -103 callgsubr
            -542 hlineto
            -22 9 -26 11 249 callsubr
            -97 -75 -123 return
          </CharString>
          <CharString index="188">
            279 callsubr
            -38 -19 rrcurveto
            -40 438 callsubr
            17 vhcurveto
            6 1 8 5 5 4 rrcurveto
            32 -7 -29 57 -78 hhcurveto
            -75 -48 -51 -60 return
          </CharString>
          <CharString index="189">
            59 callsubr
            -62 -97 return
          </CharString>
          <CharString index="190">
            -42 15 -54 -53 vvcurveto
            -26 return
          </CharString>
          <CharString index="191">
            149 callgsubr
            23 rrcurveto
            -22 43 56 -10 55 hhcurveto
            return
          </CharString>
          <CharString index="192">
            vvcurveto
            -17 callgsubr
            42 20 28 35 vhcurveto
            return
          </CharString>
          <CharString index="193">
            -241 hlineto
            287 callsubr
            rrcurveto
            -3 return
          </CharString>
          <CharString index="194">
            hlineto
            15 callsubr
            return
          </CharString>
          <CharString index="195">
            -25 14 -33 19 -32 return
          </CharString>
          <CharString index="196">
            36 callgsubr
            211 273 callsubr
            return
          </CharString>
          <CharString index="197">
            296 rmoveto
            -29 2 -38 1 -39 1 rrcurveto
            1 -38 -42 1 -37 hhcurveto
            242 223 vlineto
            return
          </CharString>
          <CharString index="198">
            -57 114 callgsubr
            return
          </CharString>
          <CharString index="199">
            -42 17 callsubr
            return
          </CharString>
          <CharString index="200">
            7 6 7 15 4 11 rrcurveto
            -43 23 -33 34 45 vvcurveto
            36 18 411 callsubr
            -113 vlineto
            262 callsubr
            -44 61 -50 18 -6 vhcurveto
            -1 4 7 -1 5 hhcurveto
            11 11 506 callsubr
            11 9 10 38 1 31 rrcurveto
            return
          </CharString>
          <CharString index="201">
            211 callgsubr
            39 hhcurveto
            29 504 callgsubr
            -49 -58 -101 -82 -54 42 68 -56 478 callgsubr
            -12 -6 -12 return
          </CharString>
          <CharString index="202">
            107 83 vvcurveto
            76 49 26 125 vhcurveto
            76 -344 hlineto
            -14 33 -18 return
          </CharString>
          <CharString index="203">
            10 callgsubr
            -40 return
          </CharString>
          <CharString index="204">
            126 callgsubr
            43 1 31 rrcurveto
            return
          </CharString>
          <CharString index="205">
            563 rmoveto
            27 callgsubr
            return
          </CharString>
          <CharString index="206">
            156 callgsubr
            32 -18 35 vhcurveto
            return
          </CharString>
          <CharString index="207">
            rmoveto
            46 callsubr
            13 return
          </CharString>
          <CharString index="208">
            20 27 33 41 vvcurveto
            54 return
          </CharString>
          <CharString index="209">
            -103 callgsubr
            -504 25 callsubr
            return
          </CharString>
          <CharString index="210">
            -1 -13 -13 -1 -14 hhcurveto
            -103 -63 62 87 78 49 71 152 hvcurveto
            26 28 -6 12 297 callsubr
            return
          </CharString>
          <CharString index="211">
            -145 -18 rlineto
            -13 -1 -28 25 -2 vhcurveto
            52 -6 rlineto
            return
          </CharString>
          <CharString index="212">
            183 callsubr
            24 -14 rrcurveto
            47 37 return
          </CharString>
          <CharString index="213">
            21 8 28 23 9 13 -12 24 return
          </CharString>
          <CharString index="214">
            vlineto
            -45 callsubr
            return
          </CharString>
          <CharString index="215">
            rmoveto
            141 callgsubr
            return
          </CharString>
          <CharString index="216">
            297 callgsubr
            72 hhcurveto
            return
          </CharString>
          <CharString index="217">
            -107 callgsubr
            147 hlineto
            return
          </CharString>
          <CharString index="218">
            rmoveto
            -30 30 -244 -202 -4 -19 0 -7 4 -18 rlinecurve
            244 -202 32 30 -194 191 rlineto
            6 vlineto
            return
          </CharString>
          <CharString index="219">
            -107 callgsubr
            348 -95 hlineto
            2 -18 -15 1 -23 hhcurveto
            -152 return
          </CharString>
          <CharString index="220">
            459 callgsubr
            30 -26 12 344 callgsubr
            return
          </CharString>
          <CharString index="221">
            -19 rrcurveto
            -39 9 -45 37 48 vvcurveto
            36 24 31 return
          </CharString>
          <CharString index="222">
            -4 rrcurveto
            57 101 callsubr
            return
          </CharString>
          <CharString index="223">
            345 -92 callsubr
            return
          </CharString>
          <CharString index="224">
            -113 hlineto
            3 -17 -16 1 -16 hhcurveto
            return
          </CharString>
          <CharString index="225">
            -33 -80 callgsubr
            return
          </CharString>
          <CharString index="226">
            269 callgsubr
            -53 -67 47 -56 hhcurveto
            -49 -50 -23 -23 -28 316 callsubr
            21 51 31 43 hhcurveto
            return
          </CharString>
          <CharString index="227">
            521 callgsubr
            34 50 49 58 hhcurveto
            44 42 240 callgsubr
            -57 -38 hvcurveto
            12 -21 16 -18 23 105 callgsubr
            -42 -22 -32 -35 vhcurveto
            endchar
          </CharString>
          <CharString index="228">
            19 -2 19 -3 19 vhcurveto
            36 56 81 28 61 hhcurveto
            34 25 -8 -28 hvcurveto
            -1 -39 -50 -32 -90 -21 rrcurveto
            -106 18 71 520 callsubr
            -103 vlineto
            -13 32 -28 35 -104 callsubr
          </CharString>
          <CharString index="229">
            436 callsubr
            -82 20 -45 106 callsubr
            -42 57 -37 41 rrcurveto
            -1 7 505 callgsubr
            return
          </CharString>
          <CharString index="230">
            -39 241 callgsubr
            return
          </CharString>
          <CharString index="231">
            461 callsubr
            -11 57 callgsubr
            return
          </CharString>
          <CharString index="232">
            22 -13 138 callsubr
            return
          </CharString>
          <CharString index="233">
            72 -22 hvcurveto
            -32 -27 -12 -36 -29 vvcurveto
            -78 70 -80 return
          </CharString>
          <CharString index="234">
            180 65 122 143 1 return
          </CharString>
          <CharString index="235">
            368 callgsubr
            14 -9 return
          </CharString>
          <CharString index="236">
            -11 223 callgsubr
            return
          </CharString>
          <CharString index="237">
            393 107 rmoveto
            -38 -45 -35 -25 -54 hhcurveto
            -105 -41 94 106 107 40 99 109 62 48 -30 -19 21 hvcurveto
            return
          </CharString>
          <CharString index="238">
            229 callsubr
            41 0 -1 37 hvcurveto
            36 -2 return
          </CharString>
          <CharString index="239">
            42 25 33 41 24 29 -12 -36 -50 -37 -35 -57 -16 vhcurveto
            return
          </CharString>
          <CharString index="240">
            30 -26 12 6 25 18 10 14 -56 -59 callsubr
            56 -10 55 31 callgsubr
          </CharString>
          <CharString index="241">
            -38 -104 -98 82 -126 57 -76 hvcurveto
            8 2 22 315 callsubr
            return
          </CharString>
          <CharString index="242">
            hhcurveto
            -49 -60 24 87 92 67 37 70 31 27 -6 -19 30 hvcurveto
            15 40 rlineto
            28 -30 -41 19 -55 hhcurveto
            return
          </CharString>
          <CharString index="243">
            216 callsubr
            5 -15 -20 5 return
          </CharString>
          <CharString index="244">
            -12 -46 408 callsubr
            44 266 callgsubr
            -12 hvcurveto
            return
          </CharString>
          <CharString index="245">
            127 callgsubr
            -41 11 return
          </CharString>
          <CharString index="246">
            153 callgsubr
            -3 -21 -9 -18 vhcurveto
            return
          </CharString>
          <CharString index="247">
            -107 callgsubr
            335 return
          </CharString>
          <CharString index="248">
            -58 -49 -35 hvcurveto
            13 -22 return
          </CharString>
          <CharString index="249">
            41 -19 callsubr
            return
          </CharString>
          <CharString index="250">
            256 callgsubr
            -132 53 -92 103 -7 vhcurveto
            -161 -117 6 -20 21 -25 14 -9 rlinecurve
            257 210 rlineto
            0 vlineto
            481 callsubr
            32 -18 35 vhcurveto
            return
          </CharString>
          <CharString index="251">
            -257 190 47 rmoveto
            457 vlineto
            -66 callgsubr
            return
          </CharString>
          <CharString index="252">
            23 -22 -19 19 vhcurveto
            17 14 302 callgsubr
            -78 -59 -51 -69 -10 hvcurveto
            55 -48 -59 44 -74 hhcurveto
            -42 -60 -14 -10 -23 318 callgsubr
            31 53 16 return
          </CharString>
          <CharString index="253">
            318 callsubr
            -179 131 callgsubr
            -39 63 -65 31 13 14 5 9 206 callsubr
            36 35 vvcurveto
            231 return
          </CharString>
          <CharString index="254">
            243 -3 callsubr
            return
          </CharString>
          <CharString index="255">
            hlineto
            72 -31 -104 207 -157 hhcurveto
            -40 -64 -14 -10 -22 318 callgsubr
            return
          </CharString>
          <CharString index="256">
            -47 -36 -64 -81 118 callgsubr
            return
          </CharString>
          <CharString index="257">
            110 callsubr
            19 return
          </CharString>
          <CharString index="258">
            vvcurveto
            -41 45 -58 22 -13 vhcurveto
            -2 return
          </CharString>
          <CharString index="259">
            36 2 -6 34 1 10 rlinecurve
            return
          </CharString>
          <CharString index="260">
            118 callgsubr
            31 12 -7 callsubr
            -38 -21 -33 -39 54 -25 54 460 callgsubr
            return
          </CharString>
          <CharString index="261">
            57 -10 54 31 callgsubr
          </CharString>
          <CharString index="262">
            115 callgsubr
            68 51 39 -21 -28 33 hvcurveto
            return
          </CharString>
          <CharString index="263">
            -46 91 hhcurveto
            103 77 463 callsubr
            -18 -21 19 41 53 31 359 callgsubr
          </CharString>
          <CharString index="264">
            109 callsubr
            6 402 callsubr
            33 -18 return
          </CharString>
          <CharString index="265">
            rmoveto
            49 28 -27 -40 -51 -42 -30 -52 -31 hvcurveto
            -27 17 -40 41 46 vvcurveto
            43 31 32 53 vhcurveto
            return
          </CharString>
          <CharString index="266">
            38 -21 -27 33 hvcurveto
            return
          </CharString>
          <CharString index="267">
            -107 callgsubr
            128 -223 hlineto
            -37 -25 386 callsubr
            -3 474 callgsubr
            61 -61 28 12 16 4 9 5 vhcurveto
            11 15 9 32 32 vvcurveto
            return
          </CharString>
          <CharString index="268">
            -107 callgsubr
            363 75 callgsubr
            -96 -79 99 callsubr
            return
          </CharString>
          <CharString index="269">
            74 callgsubr
            -2 271 callsubr
            return
          </CharString>
          <CharString index="270">
            -12 rrcurveto
            -95 71 84 -46 91 hhcurveto
            103 77 59 89 58 -38 75 -68 hvcurveto
            -47 -106 -32 -19 hhcurveto
            -18 -22 19 41 53 32 18 108 hvcurveto
            49 20 325 callsubr
            return
          </CharString>
          <CharString index="271">
            240 -38 callsubr
            -11 14 vhcurveto
            return
          </CharString>
          <CharString index="272">
            -14 -40 -47 158 callgsubr
            -59 -44 -90 hhcurveto
            -81 -76 45 93 105 81 49 122 23 return
          </CharString>
          <CharString index="273">
            228 callsubr
            -54 246 callgsubr
            95 23 54 58 72 -61 callgsubr
            194 hlineto
            -18 callgsubr
            return
          </CharString>
          <CharString index="274">
            26 callsubr
            -50 81 38 2 return
          </CharString>
          <CharString index="275">
            -19 4 -30 340 callgsubr
            -2 -5 18 hvcurveto
            57 -17 62 return
          </CharString>
          <CharString index="276">
            -172 173 rcurveline
            9 346 callgsubr
            -11 -15 return
          </CharString>
          <CharString index="277">
            -286 hlineto
            -53 -37 -61 -31 -55 409 callgsubr
            return
          </CharString>
          <CharString index="278">
            hhcurveto
            11 299 callgsubr
            44 2 return
          </CharString>
          <CharString index="279">
            -1 338 callgsubr
            return
          </CharString>
          <CharString index="280">
            47 92 106 74 47 121 hvcurveto
            38 return
          </CharString>
          <CharString index="281">
            -107 callgsubr
            331 return
          </CharString>
          <CharString index="282">
            4 9 325 callgsubr
            return
          </CharString>
          <CharString index="283">
            hlineto
            33 -4 34 10 -1 hvcurveto
            return
          </CharString>
          <CharString index="284">
            -116 231 callsubr
            return
          </CharString>
          <CharString index="285">
            vvcurveto
            -39 -22 -28 -37 -20 vhcurveto
            11 -21 21 -19 15 -8 rrcurveto
            36 19 31 44 49 vvcurveto
            70 -50 81 -129 -47 -46 -9 -18 -37 vhcurveto
            -30 25 -12 28 21 vvcurveto
            31 return
          </CharString>
          <CharString index="286">
            307 callgsubr
            506 callsubr
            12 return
          </CharString>
          <CharString index="287">
            -26 callgsubr
            38 48 57 53 return
          </CharString>
          <CharString index="288">
            vlineto
            -44 17 callsubr
            return
          </CharString>
          <CharString index="289">
            461 callgsubr
            -13 -26 15 45 50 return
          </CharString>
          <CharString index="290">
            141 callsubr
            13 -20 return
          </CharString>
          <CharString index="291">
            58 -86 -25 -23 -5 -9 -18 vhcurveto
            return
          </CharString>
          <CharString index="292">
            20 28 35 hvcurveto
            224 callgsubr
            return
          </CharString>
          <CharString index="293">
            -89 385 544 rmoveto
            101 -92 callsubr
            -490 -107 callgsubr
            321 -91 hlineto
            1 -6 -104 0 -5 hhcurveto
            -107 -33 -42 -47 return
          </CharString>
          <CharString index="294">
            15 2 12 rrcurveto
            -66 44 -10 32 27 vvcurveto
            48 37 26 42 58 23 -50 -50 -93 -79 -77 -67 -15 vhcurveto
            25 -20 -31 27 -23 hhcurveto
            -25 -38 -31 -26 -28 42 -31 return
          </CharString>
          <CharString index="295">
            101 605 rmoveto
            6 20 13 25 22 15 rrcurveto
            6 -14 14 -6 -3 vhcurveto
            -37 -16 -43 -60 -51 vvcurveto
            -32 21 -21 30 32 19 20 32 24 -16 24 -27 3 vhcurveto
            return
          </CharString>
          <CharString index="296">
            -52 -39 -71 -36 155 callsubr
            return
          </CharString>
          <CharString index="297">
            230 callsubr
            -53 hhcurveto
            -75 -19 417 callgsubr
            233 vlineto
            return
          </CharString>
          <CharString index="298">
            -21 5 -25 hhcurveto
            return
          </CharString>
          <CharString index="299">
            61 12 -15 -20 -24 -18 -13 -28 8 callsubr
            return
          </CharString>
          <CharString index="300">
            -10 callsubr
            190 -7 callgsubr
            return
          </CharString>
          <CharString index="301">
            63 vvcurveto
            53 35 37 39 return
          </CharString>
          <CharString index="302">
            -41 -51 -48 -29 41 86 83 26 47 52 hvcurveto
            2 42 rmoveto
            -88 -46 -60 -112 -116 50 -54 82 491 callsubr
            return
          </CharString>
          <CharString index="303">
            48 57 48 -37 33 -59 6 vhcurveto
            61 19 18 36 29 vvcurveto
            48 -44 29 -63 -61 -36 -26 -31 -2 vhcurveto
            -1 -18 12 -14 30 -1 rrcurveto
            27 1 15 27 return
          </CharString>
          <CharString index="304">
            7 2 23 315 callsubr
            50 28 123 return
          </CharString>
          <CharString index="305">
            -3 -5 18 hvcurveto
            57 -16 62 -64 30 -37 12 8 10 8 7 10 -33 41 -72 return
          </CharString>
          <CharString index="306">
            196 634 -196 hlineto
            236 -185 rmoveto
            196 185 -196 hlineto
            return
          </CharString>
          <CharString index="307">
            258 callgsubr
            33 -18 return
          </CharString>
          <CharString index="308">
            219 callsubr
            -97 -78 return
          </CharString>
          <CharString index="309">
            -7 -8 -16 527 callgsubr
            return
          </CharString>
          <CharString index="310">
            hlineto
            -22 10 -9 callgsubr
            return
          </CharString>
          <CharString index="311">
            hlineto
            195 callgsubr
            return
          </CharString>
          <CharString index="312">
            rmoveto
            21 -9 -95 callgsubr
            return
          </CharString>
          <CharString index="313">
            270 callsubr
            7 return
          </CharString>
          <CharString index="314">
            52 149 hvcurveto
            return
          </CharString>
          <CharString index="315">
            856 rmoveto
            -6 11 -9 11 -13 6 -134 -88 rcurveline
            -135 88 218 callsubr
            22 1 18 4 rlinecurve
            return
          </CharString>
          <CharString index="316">
            4 callsubr
            endchar
          </CharString>
          <CharString index="317">
            vvcurveto
            58 -37 75 -68 vhcurveto
            248 callsubr
            return
          </CharString>
          <CharString index="318">
            -175 240 143 157 29 3 36 3 -6 29 1 10 rlinecurve
            -157 hlineto
            -33 4 -31 -10 1 hvcurveto
            60 -6 -186 -208 rlineto
            return
          </CharString>
          <CharString index="319">
            7 2 22 344 callsubr
            107 83 vvcurveto
            76 49 26 124 29 callgsubr
          </CharString>
          <CharString index="320">
            rmoveto
            19 -4 12 0 17 4 19 185 rcurveline
            -30 6 -27 -3 -24 -7 rrcurveto
            return
          </CharString>
          <CharString index="321">
            -138 2 68 -101 130 hhcurveto
            88 91 47 40 8 -4 10 -9 6 hvcurveto
            return
          </CharString>
          <CharString index="322">
            138 callgsubr
            -41 return
          </CharString>
          <CharString index="323">
            hlineto
            19 -41 14 139 callsubr
            return
          </CharString>
          <CharString index="324">
            -126 106 -93 138 121 122 73 144 return
          </CharString>
          <CharString index="325">
            253 callsubr
            22 -5 return
          </CharString>
          <CharString index="326">
            -76 callgsubr
            -52 hhcurveto
            return
          </CharString>
          <CharString index="327">
            175 126 128 186 return
          </CharString>
          <CharString index="328">
            -41 133 callgsubr
            return
          </CharString>
          <CharString index="329">
            11 15 278 callsubr
            return
          </CharString>
          <CharString index="330">
            -20 207 callsubr
            return
          </CharString>
          <CharString index="331">
            -21 -24 30 hvcurveto
            return
          </CharString>
          <CharString index="332">
            36 -26 -55 56 -90 hhcurveto
            -103 -65 -74 -106 -125 88 -68 81 61 42 38 56 36 hvcurveto
            -48 30 57 -47 77 hhcurveto
            104 74 83 111 return
          </CharString>
          <CharString index="333">
            579 vlineto
            22 -28 19 -41 vhcurveto
            -584 vlineto
            -17 35 -22 34 3 vhcurveto
            return
          </CharString>
          <CharString index="334">
            -59 78 -29 vhcurveto
            -19 -23 -12 -28 -34 vvcurveto
            return
          </CharString>
          <CharString index="335">
            240 rmoveto
            -24 callsubr
            return
          </CharString>
          <CharString index="336">
            222 callsubr
            47 return
          </CharString>
          <CharString index="337">
            289 rmoveto
            -55 -33 -53 -36 return
          </CharString>
          <CharString index="338">
            29 -26 13 6 return
          </CharString>
          <CharString index="339">
            -107 callgsubr
            142 hlineto
            66 callsubr
            -112 20 73 -99 141 hhcurveto
            return
          </CharString>
          <CharString index="340">
            206 228 callgsubr
            return
          </CharString>
          <CharString index="341">
            vhcurveto
            -11 -22 -31 -4 -26 hhcurveto
            -63 -51 37 56 63 return
          </CharString>
          <CharString index="342">
            255 callgsubr
            -83 return
          </CharString>
          <CharString index="343">
            -49 -32 -20 -29 -40 47 -59 23 -13 hvcurveto
            -1 4 6 -2 6 hhcurveto
            10 8 4 8 7 hvcurveto
            11 15 12 40 3 34 57 return
          </CharString>
          <CharString index="344">
            246 rmoveto
            -6 vlineto
            -194 -191 32 -30 244 202 4 18 0 7 -4 19 rlinecurve
            -244 202 -30 -30 rlineto
            return
          </CharString>
          <CharString index="345">
            30 -23 -28 -35 -26 -25 -39 -16 vhcurveto
            7 -21 20 -28 10 -9 rrcurveto
            return
          </CharString>
          <CharString index="346">
            4 -18 177 callgsubr
            135 -178 229 -37 hvcurveto
            return
          </CharString>
          <CharString index="347">
            27 -33 -50 28 return
          </CharString>
          <CharString index="348">
            -1 -13 -14 -1 -14 hhcurveto
            -102 -64 62 87 78 49 71 152 hvcurveto
            26 28 -6 13 hhcurveto
            9 1 16 21 1 13 rrcurveto
            return
          </CharString>
          <CharString index="349">
            -22 callsubr
            144 -74 callgsubr
            return
          </CharString>
          <CharString index="350">
            439 callgsubr
            183 -532 vlineto
            -107 callsubr
          </CharString>
          <CharString index="351">
            302 callsubr
            -31 return
          </CharString>
          <CharString index="352">
            -24 -40 -12 5 -21 15 -19 vhcurveto
            return
          </CharString>
          <CharString index="353">
            -123 114 return
          </CharString>
          <CharString index="354">
            356 callsubr
            401 callgsubr
            return
          </CharString>
          <CharString index="355">
            -47 -107 -32 -19 hhcurveto
            -17 18 callsubr
            return
          </CharString>
          <CharString index="356">
            -13 vhcurveto
            333 117 callsubr
            -139 return
          </CharString>
          <CharString index="357">
            vvcurveto
            -41 446 callgsubr
            -1 6 hhcurveto
            10 10 return
          </CharString>
          <CharString index="358">
            29 -26 13 344 callgsubr
            -97 102 -50 81 38 return
          </CharString>
          <CharString index="359">
            7 -18 23 -28 16 -12 rlinecurve
            163 121 return
          </CharString>
          <CharString index="360">
            -13 -6 203 callgsubr
            -121 return
          </CharString>
          <CharString index="361">
            49 124 hvcurveto
            35 22 -7 12 hhcurveto
            10 -1 return
          </CharString>
          <CharString index="362">
            hhcurveto
            74 43 50 71 66 -39 54 -22 26 hvcurveto
            return
          </CharString>
          <CharString index="363">
            222 callgsubr
            -23 27 hvcurveto
            return
          </CharString>
          <CharString index="364">
            402 rmoveto
            415 callsubr
            return
          </CharString>
          <CharString index="365">
            205 callgsubr
            7 hvcurveto
            return
          </CharString>
          <CharString index="366">
            22 -28 16 -11 rlinecurve
            164 121 return
          </CharString>
          <CharString index="367">
            0 -8 hhcurveto
            -155 -93 -70 -122 return
          </CharString>
          <CharString index="368">
            hhcurveto
            -76 -18 326 callsubr
            return
          </CharString>
          <CharString index="369">
            -52 -1 -27 -9 -35 vvcurveto
            return
          </CharString>
          <CharString index="370">
            -3 19 -6 4 rrcurveto
            -9 return
          </CharString>
          <CharString index="371">
            -1 -6 -1 -7 -7 vvcurveto
            return
          </CharString>
          <CharString index="372">
            50 326 callgsubr
            return
          </CharString>
          <CharString index="373">
            -67 callgsubr
            -610 -107 callgsubr
            143 98 callgsubr
            -60 return
          </CharString>
          <CharString index="374">
            291 callgsubr
            277 vlineto
            return
          </CharString>
          <CharString index="375">
            186 callgsubr
            -115 hlineto
            -82 24 -55 50 -30 vhcurveto
            -56 -24 -31 -46 -58 vvcurveto
            -98 87 -68 return
          </CharString>
          <CharString index="376">
            6 hhcurveto
            10 11 return
          </CharString>
          <CharString index="377">
            7 vhcurveto
            12 15 return
          </CharString>
          <CharString index="378">
            2 callgsubr
            13 return
          </CharString>
          <CharString index="379">
            311 callgsubr
            331 vlineto
            return
          </CharString>
          <CharString index="380">
            -57 callsubr
            -610 -107 callgsubr
            143 98 callgsubr
            return
          </CharString>
          <CharString index="381">
            515 callsubr
            31 18 114 hvcurveto
            47 18 -3 20 hhcurveto
            10 22 25 16 hvcurveto
            return
          </CharString>
          <CharString index="382">
            300 callgsubr
            -53 11 callgsubr
            58 43 70 49 40 224 callsubr
            67 205 rmoveto
            return
          </CharString>
          <CharString index="383">
            -143 hlineto
            415 callgsubr
            -90 327 callgsubr
            return
          </CharString>
          <CharString index="384">
            57 10 -58 -80 vhcurveto
            return
          </CharString>
          <CharString index="385">
            8 33 32 vvcurveto
            return
          </CharString>
          <CharString index="386">
            -131 -156 -80 -37 37 53 67 78 32 54 6 vhcurveto
            -10 26 -10 14 -16 17 -11 -1 -33 -8 return
          </CharString>
          <CharString index="387">
            186 callgsubr
            -191 hlineto
            -141 83 -64 96 104 54 74 116 vhcurveto
            206 return
          </CharString>
          <CharString index="388">
            rmoveto
            9 21 23 5 27 hhcurveto
            53 38 -20 -28 34 hvcurveto
            -118 vlineto
            -6 -8 -7 -7 -8 -8 rrcurveto
            -40 return
          </CharString>
          <CharString index="389">
            -52 47 -29 vhcurveto
            -49 -22 -38 -42 -63 vvcurveto
            return
          </CharString>
          <CharString index="390">
            301 callsubr
            233 vlineto
            return
          </CharString>
          <CharString index="391">
            22 9 14 -17 93 callgsubr
            return
          </CharString>
          <CharString index="392">
            55 37 35 54 1 hvcurveto
            51 -34 34 -55 return
          </CharString>
          <CharString index="393">
            10 rlinecurve
            -131 121 return
          </CharString>
          <CharString index="394">
            288 callsubr
            -8 -16 return
          </CharString>
          <CharString index="395">
            -37 -1 -29 -7 return
          </CharString>
          <CharString index="396">
            -13 vhcurveto
            155 -93 callsubr
            return
          </CharString>
          <CharString index="397">
            hhcurveto
            -51 -53 -24 -20 -22 hvcurveto
            6 -17 18 -35 12 -14 rrcurveto
            18 28 46 24 38 hhcurveto
            59 35 -26 return
          </CharString>
          <CharString index="398">
            9 30 23 9 14 -18 35 -43 486 callsubr
            -17 24 -24 -25 return
          </CharString>
          <CharString index="399">
            95 callsubr
            34 -99 callgsubr
            endchar
          </CharString>
          <CharString index="400">
            544 rmoveto
            -113 vlineto
            3 -17 -16 1 -16 hhcurveto
            -105 return
          </CharString>
          <CharString index="401">
            28 callgsubr
            -12 -1 -21 -5 -11 -10 return
          </CharString>
          <CharString index="402">
            6 -1 6 hhcurveto
            10 12 2 6 6 hvcurveto
            12 9 10 return
          </CharString>
          <CharString index="403">
            322 callsubr
            260 return
          </CharString>
          <CharString index="404">
            hhcurveto
            10 1 16 21 1 13 rrcurveto
            return
          </CharString>
          <CharString index="405" raw="1">
            89a98908 fb74077d 0b 
          </CharString>
          <CharString index="406">
            -107 callgsubr
            87 return
          </CharString>
          <CharString index="407">
            58 74 vvcurveto
            102 -71 69 -86 return
          </CharString>
          <CharString index="408">
            -19 287 callgsubr
            return
          </CharString>
          <CharString index="409">
            -16 324 callsubr
            33 return
          </CharString>
          <CharString index="410">
            10 437 callgsubr
            return
          </CharString>
          <CharString index="411">
            rrcurveto
            1 18 19 0 return
          </CharString>
          <CharString index="412">
            30 393 callgsubr
            return
          </CharString>
          <CharString index="413">
            12 15 4 10 6 return
          </CharString>
          <CharString index="414">
            hhcurveto
            -51 -52 27 59 return
          </CharString>
          <CharString index="415">
            151 callsubr
            4 6 -1 286 callgsubr
            7 481 callgsubr
            return
          </CharString>
          <CharString index="416">
            233 383 callsubr
            -603 299 callsubr
            return
          </CharString>
          <CharString index="417">
            163 128 469 callsubr
            10 14 -40 46 -11 hvcurveto
            return
          </CharString>
          <CharString index="418">
            470 callsubr
            16 -41 41 47 vvcurveto
            43 32 32 53 vhcurveto
            return
          </CharString>
          <CharString index="419">
            306 182 rmoveto
            -15 -28 -33 -10 -33 hhcurveto
            -50 -56 33 76 36 303 callsubr
            return
          </CharString>
          <CharString index="420">
            522 callsubr
            -47 381 callgsubr
            return
          </CharString>
          <CharString index="421">
            -12 58 callsubr
            return
          </CharString>
          <CharString index="422">
            499 callsubr
            55 -69 109 81 vvcurveto
            76 return
          </CharString>
          <CharString index="423">
            hvcurveto
            9 -24 15 -27 13 -13 rrcurveto
            18 return
          </CharString>
          <CharString index="424">
            -93 -109 hlineto
            -115 -31 -44 -46 return
          </CharString>
          <CharString index="425">
            hlineto
            -58 callsubr
            return
          </CharString>
          <CharString index="426">
            -60 callsubr
            -73 6 return
          </CharString>
          <CharString index="427">
            vhcurveto
            6 5 7 15 5 12 rrcurveto
            58 return
          </CharString>
          <CharString index="428">
            22 23 29 28 -22 24 return
          </CharString>
          <CharString index="429">
            -21 16 -24 15 -12 rlinecurve
            return
          </CharString>
          <CharString index="430">
            8 -21 16 -24 14 -12 return
          </CharString>
          <CharString index="431">
            24 423 callgsubr
            return
          </CharString>
          <CharString index="432">
            436 callgsubr
            3 return
          </CharString>
          <CharString index="433">
            51 146 hvcurveto
            return
          </CharString>
          <CharString index="434">
            441 callgsubr
            68 51 39 -21 -27 33 hvcurveto
            return
          </CharString>
          <CharString index="435">
            -52 64 -3 63 -3 35 43 14 57 -31 10 rcurveline
            -8 -28 -23 -21 -34 1 -53 3 return
          </CharString>
          <CharString index="436">
            rmoveto
            15 42 39 10 14 -39 45 -11 -13 -44 -37 -14 -12 37 -45 13 hvcurveto
            endchar
          </CharString>
          <CharString index="437">
            vlineto
            -42 -2 -36 -3 193 callsubr
            return
          </CharString>
          <CharString index="438">
            -363 hlineto
            1 -23 10 -23 10 -15 rrcurveto
            151 hlineto
            -30 -19 -24 -36 -44 vvcurveto
            return
          </CharString>
          <CharString index="439">
            vvcurveto
            44 -24 35 -25 25 vhcurveto
            193 110 callgsubr
            return
          </CharString>
          <CharString index="440">
            hhcurveto
            -38 -37 5 10 424 callsubr
            return
          </CharString>
          <CharString index="441">
            -2 hlineto
            88 callsubr
            vhcurveto
            -68 callsubr
            return
          </CharString>
          <CharString index="442">
            10 -26 369 callsubr
            return
          </CharString>
          <CharString index="443">
            21 vvcurveto
            30 14 18 94 vhcurveto
            33 62 -2 26 hhcurveto
            13 16 23 14 hvcurveto
            endchar
          </CharString>
          <CharString index="444">
            vhcurveto
            19 15 447 callgsubr
            return
          </CharString>
          <CharString index="445">
            -1 -12 7 -12 28 -26 callsubr
            return
          </CharString>
          <CharString index="446">
            -24 -40 446 callsubr
            hvcurveto
            return
          </CharString>
          <CharString index="447">
            31 31 -23 24 -31 -31 -23 -24 -31 -31 23 return
          </CharString>
          <CharString index="448">
            -7 callgsubr
            endchar
          </CharString>
          <CharString index="449">
            hhcurveto
            386 callgsubr
            hvcurveto
            return
          </CharString>
          <CharString index="450">
            -300 hlineto
            -47 -36 -59 -35 return
          </CharString>
          <CharString index="451">
            504 callsubr
            -43 56 -68 return
          </CharString>
          <CharString index="452">
            vlineto
            264 callsubr
            return
          </CharString>
          <CharString index="453">
            5 -19 16 -25 14 -13 rlinecurve
            return
          </CharString>
          <CharString index="454">
            28 36 hvcurveto
            -140 vlineto
            -14 return
          </CharString>
          <CharString index="455">
            -38 hvcurveto
            -51 -3 -27 return
          </CharString>
          <CharString index="456">
            vlineto
            507 callgsubr
            return
          </CharString>
          <CharString index="457">
            367 callgsubr
            -17 return
          </CharString>
          <CharString index="458">
            24 10 22 22 27 hhcurveto
            52 -4 25 -52 66 -3 65 -3 37 43 13 57 return
          </CharString>
          <CharString index="459">
            rmoveto
            -13 -45 -38 -14 -12 38 -46 13 15 44 40 10 420 callsubr
            return
          </CharString>
          <CharString index="460">
            -9 -28 -24 -21 -34 1 -55 3 -22 55 -62 3 -46 2 -47 -32 -18 -63 return
          </CharString>
          <CharString index="461">
            hlineto
            -5 -2 -17 -23 -4 234 callgsubr
            return
          </CharString>
          <CharString index="462">
            2 -16 -15 1 -16 hhcurveto
            -126 -92 -56 -113 -109 87 -80 125 return
          </CharString>
          <CharString index="463">
            -97 callgsubr
            -590 -107 callgsubr
            379 return
          </CharString>
          <CharString index="464">
            rmoveto
            29 20 21 29 29 -20 20 -29 -29 -21 -20 -29 -29 21 -21 29 hvcurveto
            return
          </CharString>
          <CharString index="465">
            hlineto
            394 callsubr
            -4 -13 rrcurveto
            26 -29 55 -60 -63 vvcurveto
            -54 -36 -20 -37 return
          </CharString>
          <CharString index="466">
            -31 -22 -23 -30 -31 22 -23 31 hvcurveto
            endchar
          </CharString>
          <CharString index="467">
            -19 vhcurveto
            -13 -20 423 callsubr
            return
          </CharString>
          <CharString index="468">
            33 76 callgsubr
            return
          </CharString>
          <CharString index="469">
            409 callgsubr
            35 return
          </CharString>
          <CharString index="470">
            31 22 23 31 30 -22 23 -31 return
          </CharString>
          <CharString index="471">
            -14 -27 351 callgsubr
            return
          </CharString>
          <CharString index="472">
            -5 rlinecurve
            462 callgsubr
            return
          </CharString>
          <CharString index="473">
            29 callsubr
            37 48 return
          </CharString>
          <CharString index="474">
            -42 -22 -32 -35 return
          </CharString>
          <CharString index="475">
            43 50 72 66 return
          </CharString>
          <CharString index="476">
            476 callgsubr
            rrcurveto
            15 18 15 10 1 hvcurveto
            1 14 -11 50 return
          </CharString>
          <CharString index="477">
            3 36 3 -5 29 1 10 rlinecurve
            -160 hlineto
            -24 -3 -27 -14 1 hvcurveto
            return
          </CharString>
          <CharString index="478">
            28 417 callsubr
            -28 364 callgsubr
            hvcurveto
            return
          </CharString>
          <CharString index="479">
            30 417 callsubr
            -30 -28 416 callsubr
            28 hvcurveto
            return
          </CharString>
          <CharString index="480">
            -28 387 callgsubr
            return
          </CharString>
          <CharString index="481">
            91 68 97 66 -42 48 -70 24 vhcurveto
            47 26 33 43 102 vvcurveto
            endchar
          </CharString>
          <CharString index="482">
            -12 callsubr
            45 89 return
          </CharString>
          <CharString index="483">
            85 -66 64 -84 -23 -22 -5 -9 -17 vhcurveto
            return
          </CharString>
          <CharString index="484">
            456 callsubr
            -107 -100 82 -125 return
          </CharString>
          <CharString index="485">
            2 -32 452 callgsubr
            return
          </CharString>
          <CharString index="486">
            808 rmoveto
            525 callsubr
            6 9 12 return
          </CharString>
          <CharString index="487">
            vlineto
            210 -67 callgsubr
            return
          </CharString>
          <CharString index="488">
            -9 vvcurveto
            -40 62 -64 32 12 14 4 10 return
          </CharString>
          <CharString index="489">
            vmoveto
            -149 vlineto
            30 -37 -52 20 -53 hhcurveto
            return
          </CharString>
          <CharString index="490">
            vlineto
            319 callgsubr
            return
          </CharString>
          <CharString index="491">
            424 callgsubr
            -83 return
          </CharString>
          <CharString index="492">
            -46 367 callsubr
            return
          </CharString>
          <CharString index="493">
            -8 -15 -8 hvcurveto
            return
          </CharString>
          <CharString index="494">
            2 -18 -10 1 -26 hhcurveto
            -135 -79 -70 -98 -101 75 -87 140 return
          </CharString>
          <CharString index="495">
            vvcurveto
            30 17 18 100 vhcurveto
            121 hlineto
            494 callgsubr
            return
          </CharString>
          <CharString index="496">
            53 callsubr
            129 callsubr
            -3 return
          </CharString>
          <CharString index="497">
            -66 hvcurveto
            13 12 8 10 9 16 rrcurveto
            -80 59 -85 78 96 vvcurveto
            62 return
          </CharString>
          <CharString index="498">
            rmoveto
            -57 263 57 vlineto
            endchar
          </CharString>
          <CharString index="499">
            15 hvcurveto
            120 return
          </CharString>
          <CharString index="500">
            -36 -3 5 -33 return
          </CharString>
          <CharString index="501">
            -5 -2 -18 -23 return
          </CharString>
          <CharString index="502">
            -26 hhcurveto
            -63 -17 54 112 hvcurveto
            214 -38 rmoveto
            -29 -7 -23 return
          </CharString>
          <CharString index="503">
            hhcurveto
            44 42 240 callgsubr
            -58 -38 hvcurveto
            13 -21 16 -18 return
          </CharString>
          <CharString index="504">
            203 callsubr
            92 343 callsubr
            return
          </CharString>
          <CharString index="505">
            276 rmoveto
            25 -2 28 5 -1 hvcurveto
            -57 4 rlineto
            283 vlineto
            return
          </CharString>
          <CharString index="506">
            vhcurveto
            -2 5 5 258 callsubr
            12 14 return
          </CharString>
          <CharString index="507">
            28 hvcurveto
            -112 vlineto
            -107 callsubr
          </CharString>
          <CharString index="508">
            vhcurveto
            7 5 6 15 6 12 rrcurveto
            58 return
          </CharString>
          <CharString index="509">
            6 0 -2 6 hvcurveto
            -374 vlineto
            -14 return
          </CharString>
          <CharString index="510">
            -11 -15 324 callsubr
            32 -31 return
          </CharString>
          <CharString index="511">
            498 callgsubr
            17 17 28 hvcurveto
            return
          </CharString>
          <CharString index="512">
            206 -96 callsubr
            return
          </CharString>
          <CharString index="513">
            hvcurveto
            -14 -4 -15 -8 -12 -9 rrcurveto
            -78 return
          </CharString>
          <CharString index="514">
            -21 19 -34 10 -21 22 9 return
          </CharString>
          <CharString index="515">
            -38 -14 -13 38 -45 13 15 return
          </CharString>
          <CharString index="516">
            -48 18 -41 26 -50 22 9 return
          </CharString>
          <CharString index="517">
            -49 21 -43 21 8 28 23 return
          </CharString>
          <CharString index="518">
            23 36 277 callsubr
            return
          </CharString>
          <CharString index="519">
            26 -50 rlinecurve
            22 9 29 23 return
          </CharString>
          <CharString index="520">
            -1 -88 85 -32 80 -29 return
          </CharString>
          <CharString index="521">
            1 -37 -40 0 -37 hhcurveto
            return
          </CharString>
          <CharString index="522">
            240 callsubr
            -65 hhcurveto
            return
          </CharString>
          <CharString index="523">
            -23 -25 -27 -29 23 -23 return
          </CharString>
          <CharString index="524">
            23 23 29 27 -23 25 return
          </CharString>
          <CharString index="525">
            7 7 10 2 11 rrcurveto
            return
          </CharString>
          <CharString index="526">
            -5 -2 -10 -9 vvcurveto
            return
          </CharString>
          <CharString index="527">
            15 -40 45 -12 hvcurveto
            return
          </CharString>
          <CharString index="528">
            423 callsubr
            -80 return
          </CharString>
          <CharString index="529">
            7 9 11 6 return
          </CharString>
          <CharString index="530">
            -32 -11 -40 hhcurveto
            return
          </CharString>
          <CharString index="531">
            -29 216 callgsubr
            return
          </CharString>
          <CharString index="532">
            416 callgsubr
            -43 82 -115 -35 -35 -8 -15 return
          </CharString>
          <CharString index="533">
            74 callgsubr
            -1 return
          </CharString>
          <CharString index="534">
            hhcurveto
            -56 -52 27 62 78 71 35 76 hvcurveto
            24 hlineto
            -2 25 return
          </CharString>
          <CharString index="535">
            -2 -8 -1 -8 -8 vvcurveto
            -43 27 -45 66 -35 vhcurveto
            7 4 return
          </CharString>
          <CharString index="536">
            -21 -14 -29 -42 vvcurveto
            -95 82 -123 57 -75 vhcurveto
            7 2 return
          </CharString>
          <CharString index="537">
            -516 rmoveto
            112 157 rlineto
            -157 vlineto
            111 hmoveto
            return
          </CharString>
          <CharString index="538">
            -65 22 9 25 284 callsubr
            return
          </CharString>
          <CharString index="539">
            70 76 78 200 callgsubr
            return
          </CharString>
          <CharString index="540">
            vhcurveto
            37 15 44 61 50 vvcurveto
            33 -21 21 -31 vhcurveto
            endchar
          </CharString>
          <CharString index="541">
            -15 rrcurveto
            51 37 return
          </CharString>
          <CharString index="542">
            15 4 9 6 return
          </CharString>
          <CharString index="543">
            hvcurveto
            35 -49 38 return
          </CharString>
          <CharString index="544">
            42 -28 -57 -47 return
          </CharString>
          <CharString index="545">
            9 -45 37 48 vvcurveto
            36 24 31 50 40 20 -18 -22 return
          </CharString>
          <CharString index="546">
            -8 rrcurveto
            -178 78 102 -135 145 hhcurveto
            110 return
          </CharString>
          <CharString index="547">
            -24 15 -27 13 -13 rrcurveto
            18 22 51 31 43 hhcurveto
            59 return
          </CharString>
          <CharString index="548">
            -1 -28 202 callsubr
            -10 -10 vvcurveto
            -40 return
          </CharString>
          <CharString index="549">
            467 callsubr
            6 return
          </CharString>
          <CharString index="550">
            hhcurveto
            -134 -95 -38 -104 -98 82 -126 57 -76 hvcurveto
            return
          </CharString>
          <CharString index="551">
            24 27 50 27 -50 64 hhcurveto
            63 33 45 58 10 hvcurveto
            return
          </CharString>
          <CharString index="552">
            -160 48 279 rmoveto
            -59 292 59 vlineto
            endchar
          </CharString>
          <CharString index="553">
            -86 136 -178 229 -37 return
          </CharString>
          <CharString index="554">
            vlineto
            497 callgsubr
            return
          </CharString>
          <CharString index="555">
            9 23 21 23 27 -1 50 -4 return
          </CharString>
          <CharString index="556">
            -103 0 -15 hhcurveto
            -47 -47 -1 -2 return
          </CharString>
          <CharString index="557">
            hhcurveto
            -69 -45 124 callgsubr
            return
          </CharString>
          <CharString index="558">
            52 rmoveto
            378 56 -378 hlineto
            return
          </CharString>
          <CharString index="559">
            -29 -20 -21 -29 -29 20 -20 29 return
          </CharString>
          <CharString index="560">
            142 callgsubr
            71 -6 return
          </CharString>
          <CharString index="561">
            15 -42 49 -44 22 -1 rrcurveto
            14 return
          </CharString>
          <CharString index="562">
            11 -13 7 -134 return
          </CharString>
          <CharString index="563">
            hlineto
            -150 -88 -38 return
          </CharString>
          <CharString index="564">
            47 vvcurveto
            36 19 23 return
          </CharString>
          <CharString index="565">
            rmoveto
            -53 -40 -56 -33 return
          </CharString>
          <CharString index="566">
            -25 15 -33 19 -32 return
          </CharString>
          <CharString index="567">
            508 callgsubr
            -33 return
          </CharString>
          <CharString index="568">
            4 -10 -12 2 return
          </CharString>
          <CharString index="569">
            47 -10 37 vhcurveto
            return
          </CharString>
          <CharString index="570">
            59 89 58 -37 75 -68 hvcurveto
            -47 -107 -32 -19 hhcurveto
            return
          </CharString>
          <CharString index="571">
            53 42 -43 -40 17 vhcurveto
            -7 308 callgsubr
            return
          </CharString>
          <CharString index="572">
            4 9 6 vhcurveto
            10 15 9 34 31 vvcurveto
            46 1 return
          </CharString>
          <CharString index="573">
            -3 -27 -16 -29 151 callsubr
            return
          </CharString>
          <CharString index="574">
            29 52 callsubr
            return
          </CharString>
          <CharString index="575">
            rmoveto
            52 26 -47 -80 -89 -28 -41 -51 -48 -29 41 return
          </CharString>
          <CharString index="576">
            475 callgsubr
            38 -45 14 14 44 40 return
          </CharString>
          <CharString index="577">
            rmoveto
            48 29 -27 -40 -51 -42 -30 -52 -31 hvcurveto
            -27 return
          </CharString>
          <CharString index="578">
            2 -45 -32 -17 -63 rrcurveto
            endchar
          </CharString>
          <CharString index="579">
            hlineto
            -354 -622 rlineto
            return
          </CharString>
          <CharString index="580">
            hhcurveto
            -82 -86 -47 -99 -91 return
          </CharString>
          <CharString index="581">
            -41 -71 vvcurveto
            -89 66 -82 return
          </CharString>
          <CharString index="582">
            22 18 -2 -2 16 hvcurveto
            return
          </CharString>
          <CharString index="583">
            4 6 -1 6 hhcurveto
            10 return
          </CharString>
          <CharString index="584">
            21 1 15 rrcurveto
            return
          </CharString>
          <CharString index="585">
            rlineto
            -13 -1 -26 return
          </CharString>
          <CharString index="586">
            25 -3 vhcurveto
            52 return
          </CharString>
          <CharString index="587">
            42 11 21 31 return
          </CharString>
          <CharString index="588">
            -199 vlineto
            -14 return
          </CharString>
          <CharString index="589">
            544 rmoveto
            106 -83 callgsubr
            return
          </CharString>
          <CharString index="590">
            -33 27 -33 hvcurveto
            -1 -13 -14 -1 -14 hhcurveto
            -102 return
          </CharString>
          <CharString index="591">
            1 2 13 hvcurveto
            -5 0 -4 -5 vvcurveto
            -127 return
          </CharString>
          <CharString index="592">
            -126 105 -96 127 48 480 callsubr
            return
          </CharString>
          <CharString index="593">
            48 -42 40 185 callgsubr
            return
          </CharString>
          <CharString index="594">
            12 44 3 34 rrcurveto
            1 17 20 0 20 hhcurveto
            return
          </CharString>
          <CharString index="595">
            129 callgsubr
            41 0 -1 37 hvcurveto
            return
          </CharString>
          <CharString index="596">
            323 -78 callgsubr
            return
          </CharString>
          <CharString index="597">
            349 callsubr
            -25 -22 -5 -9 -19 vhcurveto
            return
          </CharString>
          <CharString index="598">
            84 49 59 114 110 -45 59 -86 hvcurveto
            return
          </CharString>
          <CharString index="599">
            hvcurveto
            48 19 -3 26 hhcurveto
            11 return
          </CharString>
          <CharString index="600">
            -33 42 500 callsubr
            return
          </CharString>
          <CharString index="601">
            350 callgsubr
            -114 return
          </CharString>
          <CharString index="602">
            -9 rlinecurve
            259 205 rlineto
            return
          </CharString>
          <CharString index="603">
            vvcurveto
            53 35 37 39 34 6 return
          </CharString>
          <CharString index="604">
            478 callsubr
            25 return
          </CharString>
          <CharString index="605">
            -125 57 -76 vhcurveto
            return
          </CharString>
          <CharString index="606">
            279 callgsubr
            -42 return
          </CharString>
          <CharString index="607">
            -72 505 callsubr
            return
          </CharString>
          <CharString index="608" raw="1">
            b7b3949a 630b  
          </CharString>
          <CharString index="609">
            rlineto
            39 -14 -34 48 return
          </CharString>
          <CharString index="610">
            rrcurveto
            26 -18 -26 19 return
          </CharString>
          <CharString index="611">
            14 11 13 rrcurveto
            return
          </CharString>
          <CharString index="612">
            81 -79 29 rrcurveto
            return
          </CharString>
          <CharString index="613">
            2 6 7 hvcurveto
            return
          </CharString>
          <CharString index="614">
            23 9 14 -17 return
          </CharString>
          <CharString index="615">
            23 14 vvcurveto
            endchar
          </CharString>
          <CharString index="616">
            rmoveto
            116 callsubr
            return
          </CharString>
          <CharString index="617">
            hvcurveto
            12 28 6 34 38 vvcurveto
            41 -8 47 return
          </CharString>
          <CharString index="618">
            20 -5 rrcurveto
            79 12 46 100 86 hhcurveto
            43 return
          </CharString>
          <CharString index="619">
            vlineto
            1 -11 -11 0 -11 hhcurveto
            -149 -75 return
          </CharString>
          <CharString index="620">
            68 -67 33 -48 -57 -33 -49 -49 -31 11 return
          </CharString>
          <CharString index="621">
            -84 173 callsubr
            return
          </CharString>
          <CharString index="622">
            -46 260 callgsubr
            return
          </CharString>
          <CharString index="623">
            -25 -52 245 callsubr
            return
          </CharString>
          <CharString index="624">
            rmoveto
            322 callgsubr
            42 25 33 return
          </CharString>
          <CharString index="625">
            -10 -24 -40 hvcurveto
            18 -25 -30 9 -31 hhcurveto
            return
          </CharString>
          <CharString index="626">
            362 callsubr
            76 hvcurveto
            return
          </CharString>
          <CharString index="627">
            -97 404 callsubr
            return
          </CharString>
          <CharString index="628">
            -53 -46 -97 -80 -74 -66 -15 vhcurveto
            26 -20 return
          </CharString>
          <CharString index="629">
            438 rmoveto
            461 callsubr
            -11 hhcurveto
            -72 return
          </CharString>
          <CharString index="630">
            525 callsubr
            422 callsubr
            10 rlinecurve
            return
          </CharString>
          <CharString index="631">
            82 -79 29 rrcurveto
            endchar
          </CharString>
          <CharString index="632">
            134 -88 13 return
          </CharString>
          <CharString index="633">
            53 -23 27 hvcurveto
            return
          </CharString>
        <CharString name=".notdef">
          203 176 hmoveto
          399 701 -399 hlineto
          59 -55 rmoveto
          281 -591 -281 hlineto
          endchar
        </CharString>
        <CharString name="A">
          62 206 281 -99 callsubr
        </CharString>
        <CharString name="AE">
          317 288 361 rmoveto
          128 267 rlineto
          8 -267 hlineto
          344 -304 rmoveto
          427 callgsubr
          -5 21 448 callgsubr
          252 -5 9 -113 rlineto
          10 -1 35 -4 31 vvcurveto
          142 vlineto
          -413 -1 -308 -630 -39 -42 callgsubr
          126 262 rlineto
          160 -264 hlineto
          -41 callsubr
          475 136 hlineto
          33 -35 -5 -10 -1 vhcurveto
          endchar
        </CharString>
        <CharString name="Aacute">
          62 455 836 33 callgsubr
          -51 -449 -99 callsubr
        </CharString>
        <CharString name="Abreve">
          62 428 275 callgsubr
          49 70 58 8 hvcurveto
          -256 -582 -99 callsubr
        </CharString>
        <CharString name="Acircumflex">
          62 307 379 callsubr
          199 callgsubr
          -12 8 -9 13 -7 rlinecurve
          34 -439 -99 callsubr
        </CharString>
        <CharString name="Adieresis">
          62 387 751 rmoveto
          373 callgsubr
          -163 hmoveto
          372 callgsubr
          -18 -470 -99 callsubr
        </CharString>
        <CharString name="Agrave">
          62 238 878 71 callsubr
          -197 -470 -99 callsubr
        </CharString>
        <CharString name="Amacron">
          62 438 822 rmoveto
          -263 -56 263 hlineto
          -232 -485 -99 callsubr
        </CharString>
        <CharString name="Aogonek">
          62 206 281 rmoveto
          92 313 90 -313 rlineto
          183 -281 rmoveto
          32 -4 34 10 -1 hvcurveto
          -65 6 rlineto
          0 vlineto
          -193 628 -23 3 -19 0 -23 -3 rlinecurve
          -193 -630 -40 -42 callgsubr
          53 181 rlineto
          212 hlineto
          53 -183 -41 callsubr
          113 hlineto
          -31 -22 -22 -30 -39 vvcurveto
          -49 40 -28 50 35 296 callgsubr
          -12 -16 -14 -29 hhcurveto
          -30 -20 16 32 34 22 25 40 18 hvcurveto
          endchar
        </CharString>
        <CharString name="Aring">
          62 309 863 rmoveto
          28 17 -17 -28 -28 -17 -17 -28 -28 -17 17 28 28 17 17 28 hvcurveto
          -2 -132 rmoveto
          285 callsubr
          361 callgsubr
          vhcurveto
          -101 -450 -99 callsubr
        </CharString>
        <CharString name="Atilde">
          62 443 865 rmoveto
          -29 -7 -23 -23 -33 -53 -24 53 -59 hhcurveto
          -46 -43 -34 -65 -14 hvcurveto
          31 -11 rlineto
          23 8 19 444 callsubr
          -267 -575 -99 callsubr
        </CharString>
        <CharString name="B">
          -4 191 49 rmoveto
          280 vlineto
          55 1 rlineto
          133 2 61 -36 -107 vvcurveto
          -85 -43 -58 -136 2 vhcurveto
          -21 586 rmoveto
          103 7 63 -40 -91 vvcurveto
          -86 -46 -50 -126 vhcurveto
          -43 257 1 hlineto
          -120 48 rmoveto
          -30 3 -35 -56 callgsubr
          -579 vlineto
          -46 -4 -32 -2 2 -25 -1 -18 rlinecurve
          244 hlineto
          139 91 73 126 -1 hvcurveto
          94 -71 54 -73 13 vhcurveto
          65 27 46 49 78 vvcurveto
          87 -60 78 -141 vhcurveto
          endchar
        </CharString>
        <CharString name="C">
          11 335 692 rmoveto
          -192 -109 -161 -216 5 hvcurveto
          189 callgsubr
          12 callsubr
          vhcurveto
          endchar
        </CharString>
        <CharString name="CR">
          -280 endchar
        </CharString>
        <CharString name="Cacute">
          11 335 692 rmoveto
          -192 -109 -161 -216 5 hvcurveto
          189 callgsubr
          12 callsubr
          vhcurveto
          142 144 33 callgsubr
          endchar
        </CharString>
        <CharString name="Ccaron">
          11 491 856 rmoveto
          -7 11 -9 11 -13 6 -134 -87 rcurveline
          -134 87 218 callsubr
          21 1 19 4 rlinecurve
          159 -628 rmoveto
          12 callsubr
          -192 -109 -161 -216 5 vhcurveto
          189 callgsubr
          endchar
        </CharString>
        <CharString name="Ccedilla">
          11 287 -79 rmoveto
          61 12 -15 -20 -24 -17 -13 -29 8 callsubr
          7 28 rlineto
          115 6 73 60 33 vvcurveto
          8 -5 10 -8 4 vhcurveto
          12 callsubr
          -192 -109 -161 -216 5 vhcurveto
          4 -193 89 -128 172 -9 rrcurveto
          endchar
        </CharString>
        <CharString name="D">
          117 190 49 rmoveto
          581 13 callsubr
          -579 32 callgsubr
        </CharString>
        <CharString name="Dcaron">
          117 446 858 rmoveto
          -7 10 -9 455 callsubr
          -87 rcurveline
          -134 87 -13 -7 -8 -10 -7 -11 500 callgsubr
          22 -5 21 0 19 5 rlinecurve
          -125 -688 rmoveto
          581 13 callsubr
          -579 32 callgsubr
        </CharString>
        <CharString name="Dcroat">
          30 callsubr
        </CharString>
        <CharString name="E">
          -89 callsubr
          endchar
        </CharString>
        <CharString name="Eacute">
          -89 callsubr
          262 476 rmoveto
          -11 22 -26 285 callgsubr
          8 -11 15 -7 rrcurveto
          endchar
        </CharString>
        <CharString name="Ecaron">
          4 467 208 callsubr
          120 -678 47 callsubr
        </CharString>
        <CharString name="Ecircumflex">
          4 305 379 callsubr
          7 286 callsubr
          -19 5 -22 0 -21 342 callgsubr
          -12 8 -9 13 -7 rlinecurve
          285 -663 47 callsubr
        </CharString>
        <CharString name="Edieresis">
          -89 callsubr
          32 391 rmoveto
          371 callsubr
          163 hmoveto
          372 callsubr
          endchar
        </CharString>
        <CharString name="Edotaccent">
          -89 callsubr
          114 426 rmoveto
          29 20 20 30 29 -20 20 -29 -29 -21 -20 -29 -30 21 -20 29 hvcurveto
          endchar
        </CharString>
        <CharString name="Egrave">
          -89 callsubr
          182 362 23 callsubr
        </CharString>
        <CharString name="Emacron">
          -89 callsubr
          -18 462 rmoveto
          -56 263 56 vlineto
          endchar
        </CharString>
        <CharString name="Eogonek">
          4 538 37 rmoveto
          -9 -3 -10 -3 -9 -4 rrcurveto
          109 vlineto
          33 -34 -5 -10 -1 vhcurveto
          -10 -106 -32 callsubr
          267 vlineto
          251 -5 10 -113 rlineto
          10 -1 34 -4 32 vvcurveto
          141 -422 vlineto
          -33 73 callsubr
          rlineto
          393 callsubr
          -10 vvcurveto
          423 hlineto
          -26 -21 -18 -28 -35 vvcurveto
          -49 39 -28 50 36 157 callgsubr
          38 27 26 49 19 hvcurveto
          endchar
        </CharString>
        <CharString name="Eth">
          30 callsubr
        </CharString>
        <CharString name="Euro">
          -15 365 222 rmoveto
          49 -196 vlineto
          -1 10 0 10 10 vvcurveto
          21 197 50 -193 vlineto
          124 16 59 77 81 hhcurveto
          65 41 -48 -70 hvcurveto
          32 2 26 14 40 vvcurveto
          62 -59 49 -92 -141 -79 -102 -148 -20 vhcurveto
          -63 -50 59 hlineto
          -1 -10 0 -9 -10 -7 0 -8 -7 vvcurveto
          -58 -49 62 hlineto
          -149 19 82 -89 124 hhcurveto
          93 77 50 39 9 -5 8 -6 4 hvcurveto
          -31 -34 -47 -29 -61 hhcurveto
          -96 -56 73 115 -17 hvcurveto
          endchar
        </CharString>
        <CharString name="F">
          -34 495 677 rmoveto
          -421 hlineto
          -33 73 callsubr
          -36 -3 6 -33 -1 -10 rlinecurve
          210 -60 callsubr
          -87 6 rlineto
          273 vlineto
          192 -11 4 24 0 27 -4 21 rlinecurve
          -192 -13 rlineto
          256 vlineto
          248 -1 11 -109 rlineto
          10 -1 34 -4 31 vvcurveto
          endchar
        </CharString>
        <CharString name="G">
          79 401 306 -43 callsubr
        </CharString>
        <CharString name="Gbreve">
          79 446 275 callgsubr
          48 70 58 9 hvcurveto
          -79 -557 -43 callsubr
        </CharString>
        <CharString name="H">
          165 595 50 rmoveto
          579 vlineto
          45 4 callsubr
          -194 hlineto
          -32 4 -34 -10 1 hvcurveto
          72 -6 rlineto
          -264 -331 266 39 callsubr
          -73 6 rlineto
          264 331 -266 vlineto
          -45 -71 callgsubr
          194 123 callgsubr
        </CharString>
        <CharString name="I">
          -238 191 50 rmoveto
          579 39 callsubr
          endchar
        </CharString>
        <CharString name="Iacute">
          -238 306 836 rmoveto
          -10 22 -27 285 callgsubr
          9 -11 14 -7 rrcurveto
          129 -99 rmoveto
          36 -2 callgsubr
          rrcurveto
          -62 callgsubr
          -73 6 rlineto
          579 vlineto
          endchar
        </CharString>
        <CharString name="Icircumflex">
          -238 237 631 rmoveto
          36 -2 callgsubr
          rrcurveto
          -62 callgsubr
          -73 6 rlineto
          579 vlineto
          -1 240 rmoveto
          -19 5 -21 0 -22 -5 462 callgsubr
          rcurveline
          7 -12 8 -9 13 -7 134 87 rcurveline
          134 -87 13 6 9 12 7 10 rlinecurve
          endchar
        </CharString>
        <CharString name="Idieresis">
          -238 127 803 rmoveto
          27 -22 25 -29 364 callgsubr
          29 22 23 29 vhcurveto
          110 -172 rmoveto
          36 -2 callgsubr
          rrcurveto
          -62 callgsubr
          -73 6 rlineto
          579 vlineto
          48 226 rmoveto
          -28 416 callsubr
          28 30 417 callsubr
          -30 hvcurveto
          endchar
        </CharString>
        <CharString name="Idotaccent">
          -238 158 786 rmoveto
          29 21 20 30 29 -21 20 -29 -29 -20 -20 -29 -30 20 -20 29 hvcurveto
          33 -736 rmoveto
          579 39 callsubr
          endchar
        </CharString>
        <CharString name="Igrave">
          -238 90 878 71 callsubr
          -64 -701 rmoveto
          579 39 callsubr
          endchar
        </CharString>
        <CharString name="Imacron">
          -238 237 631 rmoveto
          36 -2 callgsubr
          rrcurveto
          -62 callgsubr
          -73 6 rlineto
          579 vlineto
          -165 193 rmoveto
          -56 264 56 vlineto
          endchar
        </CharString>
        <CharString name="Iogonek">
          -238 287 38 rmoveto
          -7 -2 -8 -3 -7 -3 rrcurveto
          6 -1 5 3 vvcurveto
          -73 6 rlineto
          579 208 callgsubr
          170 hlineto
          -26 -21 -17 -27 -34 vvcurveto
          -50 40 373 callsubr
          -17 -13 -28 hhcurveto
          -30 -21 15 32 38 28 27 49 18 hvcurveto
          endchar
        </CharString>
        <CharString name="J">
          -220 92 677 rmoveto
          -33 4 -34 -10 1 hvcurveto
          82 -6 rlineto
          -507 vlineto
          -98 -21 -29 -38 -34 -14 18 31 -1 vhcurveto
          -33 2 -16 -20 -25 vvcurveto
          -35 36 -26 45 93 55 82 110 vhcurveto
          499 vlineto
          42 209 callsubr
        </CharString>
        <CharString name="K">
          53 401 677 rmoveto
          42 callsubr
          -61 6 -228 318 218 264 39 2 152 callsubr
          endchar
        </CharString>
        <CharString name="L">
          -21 451 55 -36 callsubr
        </CharString>
        <CharString name="Lacute">
          -21 349 836 33 callgsubr
          300 -675 -36 callsubr
        </CharString>
        <CharString name="Lcaron">
          52 366 546 rmoveto
          42 46 21 70 -3 70 -10 22 -59 6 -19 -16 13 -43 -1 -89 -20 -48 rrcurveto
          -8 29 -15 7 5 vhcurveto
          85 -491 -36 callsubr
        </CharString>
        <CharString name="Lslash">
          -13 458 55 rmoveto
          -260 -5 rlineto
          241 vlineto
          150 118 -32 40 -118 -93 rlineto
          274 vlineto
          50 152 callgsubr
          -199 hlineto
          142 callgsubr
          74 -6 rlineto
          -329 vlineto
          -96 -76 32 -39 64 50 rlineto
          -186 17 callgsubr
          464 139 hlineto
          31 -34 -4 -10 -1 vhcurveto
          endchar
        </CharString>
        <CharString name="M">
          260 727 52 rmoveto
          -45 576 70 6 rlineto
          10 1 4 35 -33 hhcurveto
          -124 hlineto
          -186 -454 -202 454 rlineto
          -119 hlineto
          453 callsubr
          -46 -580 -45 -71 callgsubr
          181 176 callsubr
          -73 6 38 504 195 -434 13 -2 20 2 12 3 rlinecurve
          187 448 38 -523 -42 -2 -37 -66 callsubr
          186 176 callsubr
          endchar
        </CharString>
        <CharString name="N">
          137 483 677 -82 callsubr
        </CharString>
        <CharString name="NULL">
          -548 endchar
        </CharString>
        <CharString name="Nacute">
          137 488 836 62 callsubr
          14 -7 rrcurveto
          194 -53 -82 callsubr
        </CharString>
        <CharString name="Ncaron">
          137 502 856 rmoveto
          -7 11 -9 11 -13 6 -134 -88 rcurveline
          -134 88 253 callsubr
          21 -5 22 1 18 4 rlinecurve
          113 -58 -82 callsubr
        </CharString>
        <CharString name="Ntilde">
          137 475 865 rmoveto
          -29 -7 -22 -23 -33 -54 -23 53 -60 hhcurveto
          -45 -44 -34 -65 -13 hvcurveto
          30 -11 rlineto
          23 8 20 24 27 50 27 -50 64 hhcurveto
          62 34 45 58 10 hvcurveto
          -23 -179 -82 callsubr
        </CharString>
        <CharString name="O">
          94 333 692 -87 callgsubr
          endchar
        </CharString>
        <CharString name="OE">
          337 842 hmoveto
          136 vlineto
          33 -34 -5 -10 -1 vhcurveto
          -10 -106 427 callgsubr
          -4 21 rlinecurve
          -193 -13 rlineto
          267 vlineto
          252 -5 10 -113 rlineto
          10 -1 34 -4 31 vvcurveto
          142 -376 vlineto
          10 -34 -34 5 -31 hhcurveto
          -204 -109 -159 -220 5 hvcurveto
          -202 4 103 -128 170 hhcurveto
          39 34 5 10 31 hvcurveto
          -305 336 rmoveto
          178 65 126 154 1 vhcurveto
          44 37 -10 -18 29 hvcurveto
          -544 vlineto
          -20 -30 -36 -11 -46 hhcurveto
          -161 -56 130 168 hvcurveto
          endchar
        </CharString>
        <CharString name="Oacute">
          94 333 692 -87 callgsubr
          162 197 62 callsubr
          14 -7 rrcurveto
          endchar
        </CharString>
        <CharString name="Ocircumflex">
          94 335 807 rmoveto
          134 -87 13 6 8 12 7 286 callsubr
          -19 5 -21 0 -22 342 callgsubr
          -12 8 -9 13 -7 rlinecurve
          119 -682 rmoveto
          -147 -59 129 169 127 callsubr
          hvcurveto
          148 1 61 -130 -174 vvcurveto
          -174 -66 -123 -145 -1 vhcurveto
          284 318 rmoveto
          271 -4 -150 65 -116 hhcurveto
          -191 -107 -154 -223 4 hvcurveto
          -204 4 98 -126 163 hhcurveto
          200 101 153 218 -2 hvcurveto
          endchar
        </CharString>
        <CharString name="Odieresis">
          94 333 692 -87 callgsubr
          -69 112 rmoveto
          29 22 23 29 27 -22 25 -29 364 callgsubr
          hvcurveto
          163 hmoveto
          31 22 23 29 27 -22 25 -31 -28 416 callsubr
          28 hvcurveto
          endchar
        </CharString>
        <CharString name="Ograve">
          94 321 639 rmoveto
          148 1 61 -130 -174 vvcurveto
          -174 -66 -123 -145 -1 vhcurveto
          -147 -59 129 169 127 callsubr
          hvcurveto
          12 53 rmoveto
          -191 -107 -154 -223 4 hvcurveto
          -204 4 98 -126 163 hhcurveto
          200 101 153 218 -2 hvcurveto
          271 -4 -150 65 -116 hhcurveto
          69 30 23 callsubr
        </CharString>
        <CharString name="Ohungarumlaut">
          94 603 798 -88 callgsubr
          20 107 -88 callgsubr
          108 1 -87 callgsubr
          endchar
        </CharString>
        <CharString name="Omacron">
          94 333 692 -87 callgsubr
          -119 183 rmoveto
          -56 264 56 vlineto
          endchar
        </CharString>
        <CharString name="Oslash">
          136 495 527 rmoveto
          24 -51 11 -66 -74 vvcurveto
          -174 -66 -123 -145 -1 vhcurveto
          -37 -32 8 15 -26 hvcurveto
          -47 40 rmoveto
          -44 54 -20 84 97 vvcurveto
          127 callsubr
          vhcurveto
          59 45 -20 -36 33 hvcurveto
          117 82 rmoveto
          -53 27 -30 -51 rlineto
          38 -49 -58 13 -52 hhcurveto
          -191 -107 -154 -223 4 hvcurveto
          2 -123 37 -95 65 -56 -17 -28 rcurveline
          53 -29 14 24 rlineto
          -15 33 37 -8 41 hhcurveto
          200 101 153 218 -2 hvcurveto
          -2 112 -26 77 -40 52 rrcurveto
          endchar
        </CharString>
        <CharString name="Otilde">
          94 333 692 -87 callgsubr
          -122 117 rmoveto
          23 8 20 444 callsubr
          -30 9 rlineto
          -29 -7 -23 -23 -33 -54 -23 53 -60 hhcurveto
          -45 -43 -34 -65 -14 hvcurveto
          endchar
        </CharString>
        <CharString name="P">
          3 245 634 rmoveto
          144 9 65 -55 -110 vvcurveto
          -107 -66 -52 -140 -17 -20 0 2 -20 vhcurveto
          310 vlineto
          -119 48 rmoveto
          -28 1 -30 -14 -39 callgsubr
          -581 17 callgsubr
          197 176 callsubr
          -76 6 rlineto
          225 vlineto
          -2 22 24 -1 20 hhcurveto
          155 119 58 160 106 -77 83 -172 hvcurveto
          endchar
        </CharString>
        <CharString name="Q">
          107 113 336 rmoveto
          127 callsubr
          vhcurveto
          148 1 61 -130 -174 vvcurveto
          -174 -66 -123 -145 -1 vhcurveto
          -147 -59 129 169 hvcurveto
          494 -396 rmoveto
          -11 -17 -18 -5 -15 hhcurveto
          -41 -75 28 38 -77 hvcurveto
          160 28 81 143 -2 195 rrcurveto
          271 -4 -150 65 -116 hhcurveto
          -191 -107 -154 -223 4 hvcurveto
          4 -192 87 -123 146 -14 rrcurveto
          -48 79 106 -79 89 hhcurveto
          38 27 21 34 11 -3 9 -5 6 hvcurveto
          endchar
        </CharString>
        <CharString name="R">
          29 191 631 -82 callgsubr
        </CharString>
        <CharString name="Racute">
          29 418 836 rmoveto
          -11 22 -26 285 callgsubr
          8 -11 15 -7 rrcurveto
          -29 -99 -82 callgsubr
        </CharString>
        <CharString name="Rcaron">
          29 432 208 callsubr
          -110 -104 -82 callgsubr
        </CharString>
        <CharString name="S">
          -52 259 692 rmoveto
          -30 callsubr
          9 callgsubr
          endchar
        </CharString>
        <CharString name="Sacute">
          -52 259 692 rmoveto
          -30 callsubr
          9 callgsubr
          146 144 33 callgsubr
          endchar
        </CharString>
        <CharString name="Scaron">
          -52 419 856 rmoveto
          -7 11 -9 11 -12 6 -134 -87 rcurveline
          -135 87 218 callsubr
          21 1 19 4 rlinecurve
          -2 -347 rmoveto
          9 callgsubr
          -30 callsubr
          endchar
        </CharString>
        <CharString name="T">
          55 20 677 -40 callgsubr
        </CharString>
        <CharString name="Tcaron">
          55 467 856 80 callgsubr
          -316 -58 -40 callgsubr
        </CharString>
        <CharString name="Thorn">
          52 241 504 rmoveto
          144 67 -46 -110 -105 -66 -51 -142 hvcurveto
          -13 -21 1 -19 hhcurveto
          311 vlineto
          45 vmoveto
          81 vlineto
          46 152 callgsubr
          -195 hlineto
          -32 4 -35 -56 callgsubr
          -580 17 callgsubr
          195 384 callgsubr
          97 vlineto
          -1 21 27 0 16 hhcurveto
          159 118 56 157 107 -77 83 -177 hvcurveto
          endchar
        </CharString>
        <CharString name="U">
          98 450 677 -97 callsubr
          endchar
        </CharString>
        <CharString name="Uacute">
          98 450 677 -97 callsubr
          -150 159 33 callgsubr
          endchar
        </CharString>
        <CharString name="Ucircumflex">
          98 326 379 callsubr
          199 callgsubr
          -12 8 -9 13 -7 rlinecurve
          259 -43 -97 callsubr
          endchar
        </CharString>
        <CharString name="Udieresis">
          98 450 677 -97 callsubr
          -381 74 rmoveto
          372 callgsubr
          163 hmoveto
          373 callgsubr
          endchar
        </CharString>
        <CharString name="Ugrave">
          98 450 677 -97 callsubr
          -231 45 23 callsubr
        </CharString>
        <CharString name="Uhungarumlaut">
          98 594 798 -88 callgsubr
          20 107 -88 callgsubr
          234 -14 -97 callsubr
          endchar
        </CharString>
        <CharString name="Umacron">
          98 450 677 -97 callsubr
          -430 145 rmoveto
          -56 263 56 vlineto
          endchar
        </CharString>
        <CharString name="Uogonek">
          98 450 677 -85 callgsubr
          -153 56 -101 156 -2 vhcurveto
          -26 -21 -19 -29 -35 vvcurveto
          -49 40 -28 50 35 296 callgsubr
          -11 -17 -14 -28 hhcurveto
          -30 -21 15 33 37 26 25 45 19 hvcurveto
          109 30 47 95 134 vvcurveto
          52 callgsubr
          endchar
        </CharString>
        <CharString name="Uring">
          98 450 677 -97 callsubr
          -294 228 rmoveto
          361 callgsubr
          285 callsubr
          vhcurveto
          -2 -42 rmoveto
          28 17 -17 -28 -28 -17 -17 -28 -28 -17 17 28 28 17 17 28 hvcurveto
          endchar
        </CharString>
        <CharString name="V">
          66 454 677 rmoveto
          -32 4 -34 -10 1 hvcurveto
          72 -6 -186 -531 -173 533 rlineto
          1 hlineto
          46 4 callsubr
          -185 hlineto
          -33 4 -34 -10 1 hvcurveto
          56 -6 213 -627 rlineto
          55 hlineto
          229 629 20 2 36 5 -6 31 438 callgsubr
        </CharString>
        <CharString name="W">
          397 784 677 rmoveto
          -33 4 -34 -10 1 hvcurveto
          74 -6 -163 -526 -152 515 rlineto
          -59 hlineto
          -171 -512 -145 525 43 4 callsubr
          -182 hlineto
          -32 4 -34 -10 1 hvcurveto
          54 -6 188 -627 rlineto
          57 hlineto
          169 487 155 -487 rlineto
          60 hlineto
          204 629 18 2 37 4 -7 32 438 callgsubr
        </CharString>
        <CharString name="X">
          75 554 50 rmoveto
          0 vlineto
          -202 297 184 284 rlineto
          6 hlineto
          22 2 37 -23 callgsubr
          -164 hlineto
          472 callgsubr
          62 -6 -145 -237 -162 239 34 3 27 callsubr
          -182 hlineto
          142 callgsubr
          58 -6 200 -295 -196 -285 -34 -71 callgsubr
          171 176 callsubr
          -63 6 rlineto
          -1 hlineto
          156 239 163 -241 rlineto
          -1 hlineto
          -30 -2 -36 -3 5 -6 callgsubr
          181 176 callsubr
          endchar
        </CharString>
        <CharString name="Y">
          44 431 679 -45 callgsubr
        </CharString>
        <CharString name="Yacute">
          44 454 836 rmoveto
          -10 22 -27 285 callgsubr
          9 -11 14 -7 rrcurveto
          175 -51 -45 callgsubr
        </CharString>
        <CharString name="Ydieresis">
          44 387 751 rmoveto
          372 callsubr
          -163 hmoveto
          371 callsubr
          207 -72 -45 callgsubr
        </CharString>
        <CharString name="Z">
          -15 444 61 -38 callgsubr
        </CharString>
        <CharString name="Zacute">
          -15 439 836 33 callgsubr
          203 -669 -38 callgsubr
        </CharString>
        <CharString name="Zcaron">
          -15 452 856 80 callgsubr
          123 -674 -38 callgsubr
        </CharString>
        <CharString name="Zdotaccent">
          -15 291 786 rmoveto
          29 20 20 30 29 -20 20 -29 -30 -20 -20 -29 -30 20 -20 30 hvcurveto
          153 -725 -38 callgsubr
        </CharString>
        <CharString name="a">
          -46 348 94 -100 callgsubr
        </CharString>
        <CharString name="aacute">
          -46 381 641 -88 callgsubr
          166 -440 -100 callgsubr
        </CharString>
        <CharString name="abreve">
          -46 354 678 rmoveto
          -29 -11 -25 -49 -84 hhcurveto
          -75 -36 51 28 -11 hvcurveto
          -34 -16 rlineto
          -57 9 48 -71 98 495 callgsubr
          -40 -569 -100 callgsubr
        </CharString>
        <CharString name="acircumflex">
          -46 233 620 rmoveto
          523 callsubr
          -131 121 -18 5 -22 0 -21 365 callsubr
          6 -11 8 -10 14 -7 rlinecurve
          249 -438 -100 callgsubr
        </CharString>
        <CharString name="acute">
          52 408 641 -88 callgsubr
          endchar
        </CharString>
        <CharString name="adieresis">
          -46 314 48 callgsubr
          198 -469 -100 callgsubr
        </CharString>
        <CharString name="ae">
          223 576 504 rmoveto
          -67 -66 -32 -62 -42 hvcurveto
          86 -30 -110 8 -28 hhcurveto
          -94 1 -64 -45 -57 vvcurveto
          -39 29 -12 27 3 vhcurveto
          34 2 18 64 84 hhcurveto
          79 34 -56 -70 hvcurveto
          -79 vlineto
          8 -29 -37 6 -41 hhcurveto
          -153 -42 -75 -70 -82 57 -50 94 90 65 46 40 34 hvcurveto
          -59 36 60 -27 71 hhcurveto
          96 80 51 35 8 -4 11 -8 6 hvcurveto
          -36 -45 -43 -18 -52 hhcurveto
          -115 -38 89 99 14 1 9 1 10 hvcurveto
          314 48 hlineto
          91 -40 102 -124 vhcurveto
          -338 -291 rmoveto
          47 39 -12 -14 24 hvcurveto
          -93 vlineto
          -31 -33 -43 -23 -53 hhcurveto
          -59 -37 30 59 50 37 34 78 hvcurveto
          326 241 rmoveto
          68 35 -60 -86 -1 hvcurveto
          -234 hlineto
          89 17 49 57 66 hhcurveto
          endchar
        </CharString>
        <CharString name="agrave">
          -46 164 690 71 callsubr
          19 -469 -100 callgsubr
        </CharString>
        <CharString name="amacron">
          -46 364 635 rmoveto
          -263 -57 263 hlineto
          -16 -484 -100 callgsubr
        </CharString>
        <CharString name="ampersand">
          178 262 34 rmoveto
          -108 -43 66 69 55 32 55 60 36 hvcurveto
          13 -16 15 -18 17 -18 55 -60 60 -59 59 -49 rrcurveto
          -42 -48 -57 -19 -55 hhcurveto
          593 vmoveto
          30 52 -22 -66 -61 -30 -69 -78 -31 hvcurveto
          -48 63 -25 52 38 vvcurveto
          52 31 44 68 vhcurveto
          353 -336 rmoveto
          36 2 -7 30 1 10 rrcurveto
          -148 hlineto
          -32 4 -31 -10 1 hvcurveto
          59 -6 -14 -59 -22 -48 -28 -37 rlinecurve
          -58 48 -62 61 -55 61 -10 11 -9 11 -9 10 rrcurveto
          71 27 75 70 98 vvcurveto
          90 -79 46 -66 -102 -61 -61 -92 -47 21 -53 53 -71 vhcurveto
          -101 -54 -34 -78 -64 vvcurveto
          -97 68 -76 141 79 75 26 55 60 vhcurveto
          -48 65 62 -32 51 hhcurveto
          49 22 30 26 13 -5 12 -9 8 hvcurveto
          -18 -12 -25 -10 -21 hhcurveto
          -33 -48 26 40 -53 hvcurveto
          34 47 27 59 16 73 rrcurveto
          endchar
        </CharString>
        <CharString name="aogonek">
          -46 348 94 rmoveto
          -32 -36 -45 -22 -50 hhcurveto
          -59 -35 33 56 48 35 36 79 47 38 -11 -14 26 hvcurveto
          70 -149 rmoveto
          292 vlineto
          151 -120 22 -65 -94 -64 -44 -56 -39 27 -13 29 3 vhcurveto
          40 3 20 58 82 hhcurveto
          77 35 -54 -72 hvcurveto
          -79 vlineto
          9 -30 -38 5 -40 hhcurveto
          -153 -41 -78 -65 -84 58 -50 92 66 54 29 33 34 hvcurveto
          4 -24 10 -19 18 -10 rrcurveto
          -33 -22 -24 -31 -40 vvcurveto
          -49 40 -29 50 35 34 15 20 14 vhcurveto
          2 9 263 callsubr
          -12 -16 -14 -28 hhcurveto
          -31 -20 15 32 31 17 22 31 17 hvcurveto
          29 2 23 14 31 vvcurveto
          endchar
        </CharString>
        <CharString name="apostrophemod">
          -362 54 callsubr
          endchar
        </CharString>
        <CharString name="approxequal">
          0 320 248 rmoveto
          -3 -3 0 1 -2 hvcurveto
          22 19 6 11 15 hvcurveto
          -12 -12 -16 -7 -20 1 rrcurveto
          -158 60 rmoveto
          -14 -2 -14 -6 -13 -8 rrcurveto
          9 11 13 7 15 hhcurveto
          227 48 rmoveto
          353 callsubr
          24 -11 rcurveline
          -10 -13 -8 -17 -6 -19 31 -14 rcurveline
          351 callsubr
          -22 7 rcurveline
          10 15 8 18 4 20 rrcurveto
          endchar
        </CharString>
        <CharString name="aring">
          -46 235 675 rmoveto
          28 18 -17 -28 -27 -18 -18 -28 -27 -18 18 27 28 18 17 27 hvcurveto
          -2 -132 rmoveto
          285 callsubr
          -55 -38 -35 -54 -51 36 -34 53 vhcurveto
          115 -449 -100 callgsubr
        </CharString>
        <CharString name="asciicircum">
          -62 434 204 rmoveto
          -165 449 rlineto
          -42 hlineto
          -175 -449 rlineto
          67 hlineto
          128 337 122 -337 rlineto
          endchar
        </CharString>
        <CharString name="asciitilde">
          0 131 241 rmoveto
          351 callsubr
          -31 10 rcurveline
          353 callsubr
          rrcurveto
          endchar
        </CharString>
        <CharString name="asterisk">
          25 268 552 rmoveto
          25 152 -25 8 -35 0 -27 -8 rlinecurve
          26 -153 -137 73 -15 -20 -10 -34 -2 -30 rlinecurve
          153 -23 -110 -109 15 -23 29 -21 27 -8 rlinecurve
          68 139 68 -138 28 8 28 21 15 22 rlinecurve
          -111 110 154 23 rlineto
          27 -10 34 -16 22 vhcurveto
          endchar
        </CharString>
        <CharString name="at">
          421 566 153 rmoveto
          -32 -42 -33 -22 -46 hhcurveto
          -91 -22 80 84 12 hvcurveto
          79 12 44 91 97 hhcurveto
          49 37 -24 -17 16 hvcurveto
          139 -451 rmoveto
          -39 -61 -83 -19 -82 hhcurveto
          -239 -160 149 222 231 158 153 238 209 140 -113 -169 -158 -94 -102 -143 4 hvcurveto
          53 380 -64 -7 -2 -12 rlineto
          14 -28 -29 9 -41 hhcurveto
          -130 -87 -95 -141 -16 hvcurveto
          -141 -16 67 -63 88 hhcurveto
          60 48 29 31 35 hvcurveto
          0 vlineto
          -45 -4 23 -6 34 hhcurveto
          180 120 124 186 193 -161 128 -241 -272 -181 -174 -262 -247 178 -165 268 100 80 24 36 67 hvcurveto
          endchar
        </CharString>
        <CharString name="atilde">
          -46 371 664 rmoveto
          -8 -28 -23 -21 -34 1 -53 3 -20 55 -60 3 -45 2 -46 -32 -17 -63 30 -13 rcurveline
          448 callsubr
          24 -52 64 -3 63 -3 35 43 14 57 rrcurveto
          -54 -560 -100 callgsubr
        </CharString>
        <CharString name="b">
          4 160 383 rmoveto
          37 45 35 25 54 hhcurveto
          105 40 -93 -106 -107 -39 -100 -109 -62 -48 30 19 -21 hvcurveto
          610 vmoveto
          104 callsubr
          -594 vlineto
          69 -26 rlineto
          0 vlineto
          -15 34 34 -11 48 hhcurveto
          154 87 111 168 -4 hvcurveto
          166 -3 -91 74 -100 hhcurveto
          -71 -51 -35 -36 -37 hvcurveto
          endchar
        </CharString>
        <CharString name="backslash">
          -146 381 -131 rmoveto
          -294 827 rlineto
          -68 hlineto
          295 -827 rlineto
          endchar
        </CharString>
        <CharString name="bar">
          -285 100 -195 rmoveto
          63 903 -63 hlineto
          endchar
        </CharString>
        <CharString name="braceleft">
          -229 228 708 rmoveto
          -71 -56 -51 -81 hvcurveto
          -75 16 -52 -75 vvcurveto
          -40 -7 -17 -16 -18 vhcurveto
          -7 -9 -6 -7 -31 -12 rrcurveto
          -27 vlineto
          28 -12 7 -4 9 -12 rrcurveto
          16 -18 7 -15 -38 -81 -16 -53 -72 vvcurveto
          -82 55 -50 70 32 32 4 9 17 vhcurveto
          -6 34 rlineto
          -1 -10 -10 -1 -10 hhcurveto
          -66 -39 25 67 hvcurveto
          50 17 75 61 vvcurveto
          79 -23 36 -28 9 vhcurveto
          7 vlineto
          28 9 23 36 80 67 -17 68 50 vvcurveto
          67 39 24 66 10 10 -1 -1 10 vhcurveto
          6 35 rlineto
          9 -14 -32 4 -33 hhcurveto
          endchar
        </CharString>
        <CharString name="braceright">
          -229 3 660 rmoveto
          1 10 10 1 10 hhcurveto
          66 39 -24 -67 hvcurveto
          -50 -17 -68 -67 vvcurveto
          -80 23 -36 28 -9 vhcurveto
          -7 vlineto
          -28 -9 -23 -36 -79 -61 17 -75 -50 vvcurveto
          -67 -39 -25 -66 -10 -10 1 1 -10 vhcurveto
          -6 -34 rlineto
          -9 17 32 -4 32 hhcurveto
          70 55 50 82 hvcurveto
          72 -16 53 81 vvcurveto
          38 7 15 16 18 vhcurveto
          9 12 7 4 28 12 rrcurveto
          27 vlineto
          -31 12 -6 7 -7 9 rrcurveto
          -16 18 -7 17 40 75 16 52 75 vvcurveto
          81 -56 51 -71 -33 -32 -4 -9 -14 vhcurveto
          endchar
        </CharString>
        <CharString name="bracketleft">
          -324 127 650 rmoveto
          83 45 -146 -870 146 45 -83 hlineto
          endchar
        </CharString>
        <CharString name="bracketright">
          -332 97 -130 rmoveto
          -83 -45 146 870 -146 -45 83 hlineto
          endchar
        </CharString>
        <CharString name="breve">
          52 287 600 rmoveto
          -75 -36 51 28 -11 hvcurveto
          -34 -16 rlineto
          -57 8 48 -71 99 495 callgsubr
          -34 15 rlineto
          -29 -11 -26 -49 -83 hhcurveto
          endchar
        </CharString>
        <CharString name="brokenbar">
          -285 163 173 rmoveto
          -63 -368 63 hlineto
          -63 535 rmoveto
          63 368 -63 hlineto
          endchar
        </CharString>
        <CharString name="bullet">
          -103 222 234 rmoveto
          48 39 38 48 48 -39 39 -48 -48 -38 -39 -48 -48 38 -38 48 hvcurveto
          endchar
        </CharString>
        <CharString name="c">
          -96 275 504 rmoveto
          -153 -85 -122 -158 2 hvcurveto
          214 callsubr
          24 callsubr
          vhcurveto
          endchar
        </CharString>
        <CharString name="cacute">
          -96 410 641 -88 callgsubr
          64 -30 rmoveto
          -153 -85 -122 -158 2 hvcurveto
          214 callsubr
          24 callsubr
          vhcurveto
          endchar
        </CharString>
        <CharString name="caron">
          52 269 609 rmoveto
          -134 88 -14 -7 -8 -10 -6 -11 500 callgsubr
          21 -5 22 0 18 5 rlinecurve
          131 121 -6 10 -9 11 -13 7 rlinecurve
          endchar
        </CharString>
        <CharString name="ccaron">
          -96 424 668 rmoveto
          -7 11 -9 11 -12 122 callgsubr
          112 -452 rmoveto
          24 callsubr
          -153 -85 -122 -158 2 vhcurveto
          214 callsubr
          endchar
        </CharString>
        <CharString name="ccedilla">
          -96 193 -79 rmoveto
          192 callsubr
          6 27 rlineto
          85 4 84 45 38 vvcurveto
          8 -4 10 -9 6 vhcurveto
          24 callsubr
          -153 -85 -122 -158 2 vhcurveto
          2 -127 58 -96 111 -14 rrcurveto
          endchar
        </CharString>
        <CharString name="cedilla">
          52 313 18 rmoveto
          -39 hlineto
          -25 -97 rlineto
          192 callsubr
          endchar
        </CharString>
        <CharString name="cent">
          -69 302 596 rmoveto
          -19 7 -31 -1 -17 -6 8 -95 rcurveline
          -127 -20 -68 -113 2 -147 2 -133 65 -100 125 -4 -7 -89 rcurveline
          17 -7 31 0 19 7 -6 93 rcurveline
          71 12 62 37 33 vvcurveto
          8 -4 10 -8 6 vhcurveto
          -36 -45 -44 -16 -50 hhcurveto
          -121 -33 102 100 114 47 96 99 71 27 -51 -47 1 hvcurveto
          28 -1 28 12 42 vvcurveto
          54 -49 38 -80 3 vhcurveto
          endchar
        </CharString>
        <CharString name="circumflex">
          52 300 681 rmoveto
          -18 5 -22 0 -21 -5 462 callgsubr
          rcurveline
          6 -11 8 -10 14 -7 134 433 callgsubr
        </CharString>
        <CharString name="colon">
          -356 96 -15 rmoveto
          31 23 23 340 callsubr
          -23 31 hvcurveto
          311 vmoveto
          31 23 24 340 callsubr
          -24 31 hvcurveto
          endchar
        </CharString>
        <CharString name="comma">
          -358 95 90 -98 callgsubr
          endchar
        </CharString>
        <CharString name="copyright">
          106 328 588 rmoveto
          -168 -110 -112 -165 -167 111 -110 166 168 109 111 165 169 -112 109 -164 hvcurveto
          -50 vmoveto
          126 92 -88 -140 -136 -88 -90 -130 -132 -88 90 136 132 84 96 136 hvcurveto
          99 -130 rmoveto
          32 -29 23 -51 -90 -49 -70 -93 1 vhcurveto
          -78 44 -59 82 52 43 27 23 7 -2 7 -5 3 vhcurveto
          -20 -26 -26 -3 -23 hhcurveto
          -69 -16 52 54 61 26 50 49 37 16 -23 -24 hvcurveto
          16 20 9 22 hvcurveto
          endchar
        </CharString>
        <CharString name="currency">
          35 487 279 rmoveto
          50 -14 42 -26 33 vhcurveto
          87 75 -14 19 -15 16 -17 9 rlinecurve
          -77 -85 rlineto
          22 -31 -39 12 -46 hhcurveto
          -48 -41 -14 -23 -32 hvcurveto
          -79 88 -17 -9 -15 -16 -14 -19 rlinecurve
          91 -79 rlineto
          -24 -32 -13 -41 -48 vvcurveto
          -46 12 -40 23 -31 vhcurveto
          -89 -77 14 -19 15 -16 17 -10 rlinecurve
          78 86 rlineto
          -24 32 41 -14 48 hhcurveto
          47 41 12 24 31 hvcurveto
          75 -84 17 10 15 16 14 19 rlinecurve
          -84 73 rlineto
          24 32 13 41 48 vvcurveto
          -191 -134 rmoveto
          -78 -52 55 79 81 52 55 78 77 52 -55 -81 -79 -52 -55 -77 hvcurveto
          endchar
        </CharString>
        <CharString name="d">
          -4 130 callsubr
          69 -361 rmoveto
          658 vlineto
          104 callsubr
          -153 44 callsubr
          endchar
        </CharString>
        <CharString name="dagger">
          -48 284 516 rmoveto
          290 callgsubr
          143 10 7 -619 15 -4 23 0 15 4 rlinecurve
          7 620 153 -11 7 17 -7 35 -11 17 rlinecurve
          endchar
        </CharString>
        <CharString name="daggerdbl">
          -48 282 320 rmoveto
          2 149 153 -11 7 17 -7 35 -11 17 rlinecurve
          -142 -11 290 callgsubr
          142 10 2 -148 -155 10 -7 -16 7 -35 11 -17 rlinecurve
          144 11 5 -424 15 -4 23 0 16 4 rlinecurve
          5 424 155 -11 7 17 -7 35 -11 16 rlinecurve
          endchar
        </CharString>
        <CharString name="danda">
          -165 224 -19 rmoveto
          226 callsubr
          endchar
        </CharString>
        <CharString name="dcaron">
          56 130 callsubr
          69 297 rmoveto
          104 callsubr
          -153 44 callsubr
          -64 8 rlineto
          128 680 rmoveto
          -11 19 -47 0 -19 -14 14 -44 -3 -82 -20 -48 rrcurveto
          -8 23 -12 7 4 vhcurveto
          41 46 18 68 -3 71 rrcurveto
          endchar
        </CharString>
        <CharString name="dcroat">
          10 130 callsubr
          147 134 rmoveto
          49 -78 114 vlineto
          104 callsubr
          -47 -75 -49 75 -57 44 callsubr
          -64 8 rlineto
          495 vlineto
          endchar
        </CharString>
        <CharString name="degree">
          -224 52 579 rmoveto
          -63 46 -43 65 63 46 43 63 64 -45 42 -64 -63 -48 -42 -64 vhcurveto
          52 1 rmoveto
          35 23 25 36 34 23 -25 -36 -35 -22 -26 -35 -35 -24 26 36 vhcurveto
          endchar
        </CharString>
        <CharString name="dieresis">
          52 173 48 callsubr
          endchar
        </CharString>
        <CharString name="divide">
          -70 50 314 rmoveto
          -56 378 56 vlineto
          -192 -231 rmoveto
          31 22 23 31 31 -22 23 -31 -30 -23 -23 -31 -31 23 -23 30 hvcurveto
          299 vmoveto
          31 22 23 30 31 -22 23 -31 -30 -23 -23 -31 -30 23 -23 30 hvcurveto
          endchar
        </CharString>
        <CharString name="dollar">
          -81 259 688 rmoveto
          -18 7 -30 -1 -17 -6 7 -89 rcurveline
          -81 -15 -65 -55 -84 vvcurveto
          -85 86 -44 94 -37 vhcurveto
          76 -31 54 -24 -75 vvcurveto
          -80 -64 -36 -72 -73 -50 35 70 -14 vhcurveto
          -33 -18 -24 -27 -61 83 -37 76 -5 hvcurveto
          -6 -86 17 -7 30 0 18 7 rlinecurve
          -6 87 rlineto
          107 15 66 83 91 vvcurveto
          91 -66 35 -94 37 vhcurveto
          -70 28 -77 31 70 vvcurveto
          55 50 31 67 78 30 -38 -60 vhcurveto
          27 -2 29 15 41 vvcurveto
          71 -87 23 -60 1 vhcurveto
          endchar
        </CharString>
        <CharString name="dotaccent">
          -7 159 598 rmoveto
          30 20 21 29 29 -20 20 -30 -29 -20 -20 -29 -29 20 -21 29 hvcurveto
          endchar
        </CharString>
        <CharString name="dotlessi">
          144 callsubr
          endchar
        </CharString>
        <CharString name="dottedcircle">
          112 139 517 rmoveto
          -26 18 -19 26 26 18 19 26 25 -18 19 -26 -26 -18 -19 -25 vhcurveto
          -82 -110 rmoveto
          -25 20 -19 26 24 20 19 25 25 -20 19 -24 -26 -20 -19 -25 vhcurveto
          -13 -126 rmoveto
          -25 19 -18 25 26 18 18 512 callgsubr
          52 -116 rmoveto
          -26 18 -18 26 25 19 18 26 25 -19 19 -25 -26 -18 -19 -25 vhcurveto
          101 -75 rmoveto
          -26 19 -20 26 25 19 20 26 24 -19 20 -25 -26 -19 -20 -24 vhcurveto
          127 -16 rmoveto
          -26 18 -18 26 26 19 18 26 26 -19 18 -26 -26 -18 -18 -26 vhcurveto
          121 53 rmoveto
          -26 19 -18 25 25 20 18 26 25 -20 19 -25 -25 -19 -19 -25 vhcurveto
          73 98 rmoveto
          -25 19 -19 26 24 19 19 25 26 -19 19 -24 -26 -19 -19 -26 vhcurveto
          10 134 rmoveto
          -26 18 -18 26 25 19 18 26 26 -19 18 -25 -26 -18 -18 -26 vhcurveto
          -50 118 rmoveto
          -25 19 -19 25 26 18 19 512 callgsubr
          -95 68 rmoveto
          -24 19 -20 26 25 18 20 24 26 -18 19 -25 -26 -19 -19 -26 vhcurveto
          -126 15 rmoveto
          -26 18 -18 26 26 18 18 26 26 -18 18 -26 -26 -18 -18 -26 vhcurveto
          endchar
        </CharString>
        <CharString name="doubledanda">
          43 224 -19 rmoveto
          226 callsubr
          211 hmoveto
          226 callsubr
          endchar
        </CharString>
        <CharString name="dvA">
          171 749 -78 callgsubr
          -309 -75 callgsubr
          vlineto
          endchar
        </CharString>
        <CharString name="dvAA">
          447 1025 -78 callgsubr
          -585 -75 callgsubr
          209 -532 vlineto
          -107 callsubr
        </CharString>
        <CharString name="dvAI">
          18 170 544 rmoveto
          224 -216 hlineto
          -44 -40 -20 -34 -12 vhcurveto
          6 -24 16 -27 13 -11 rrcurveto
          57 23 50 42 68 vvcurveto
          221 119 204 callgsubr
          -113 hlineto
          72 -31 -108 207 -149 hhcurveto
          -48 -60 -14 -10 -22 318 callgsubr
          31 65 16 45 hhcurveto
          81 89 -147 -68 32 hvcurveto
          -411 -107 callgsubr
          100 -217 hlineto
          -144 77 -50 72 -43 vhcurveto
          89 -53 90 -49 -37 vvcurveto
          -22 -23 -29 -36 -18 vhcurveto
          11 -22 18 -22 17 -12 rrcurveto
          36 34 31 31 57 vvcurveto
          93 -93 40 -99 58 vhcurveto
          -105 61 -20 24 78 vvcurveto
          endchar
        </CharString>
        <CharString name="dvAU">
          416 994 -69 callgsubr
          -140 hlineto
          114 -31 -92 185 -125 hhcurveto
          269 callgsubr
          -52 -68 47 -56 hhcurveto
          -49 -50 -23 -23 -27 hvcurveto
          8 -24 15 -27 13 -13 rrcurveto
          18 21 51 31 43 hhcurveto
          60 64 -58 -45 33 hvcurveto
          -356 -75 callgsubr
          177 -532 vlineto
          -107 callsubr
        </CharString>
        <CharString name="dvAbbreviationsign">
          -161 169 500 rmoveto
          -71 -40 -56 -71 -97 72 -57 68 62 50 44 78 88 -60 71 -81 hvcurveto
          14 -52 rmoveto
          45 32 -34 -58 -53 -28 -35 -46 -57 -18 50 44 52 27 34 45 hvcurveto
          endchar
        </CharString>
        <CharString name="dvAnusvara">
          -548 -151 703 329 callsubr
        </CharString>
        <CharString name="dvAnusvara.amI">
          -548 -29 906 rmoveto
          -3 -66 -63 -4 -3 65 -65 4 3 65 63 2 4 -65 66 -3 hvcurveto
          endchar
        </CharString>
        <CharString name="dvAvagraha">
          -14 173 510 rmoveto
          37 35 8 63 vhcurveto
          169 hlineto
          -1 22 -7 23 -12 17 rrcurveto
          -169 hlineto
          -97 -43 -38 -56 -60 56 -61 83 -71 hvcurveto
          67 -59 86 -62 -73 vvcurveto
          -49 -40 -19 -61 -137 -64 98 53 -37 vhcurveto
          -17 -5 -21 -14 -9 -11 rrcurveto
          -133 82 111 -62 109 hhcurveto
          84 75 37 83 104 -120 95 -62 50 hvcurveto
          -72 58 -51 51 37 vvcurveto
          endchar
        </CharString>
        <CharString name="dvB">
          -200 180 callgsubr
          385 -92 callsubr
          -37 -425 171 callgsubr
          22 hvcurveto
          251 -87 rmoveto
          -10 -20 -13 -19 -17 -17 169 callsubr
          23 hvcurveto
          11 39 rlineto
          32 -31 -52 56 callsubr
          76 66 44 55 37 hvcurveto
          endchar
        </CharString>
        <CharString name="dvBA">
          2 174 382 -34 callsubr
          -590 -107 callgsubr
          380 -142 hlineto
          29 -34 -51 26 -63 hhcurveto
          -88 -93 -52 -110 -98 71 -96 121 59 43 23 28 35 hvcurveto
          -140 vlineto
          -107 callsubr
        </CharString>
        <CharString name="dvBH">
          -98 389 605 rmoveto
          -70 callsubr
          75 -83 callgsubr
          -225 -305 rmoveto
          262 callsubr
          -52 66 -51 25 -2 vhcurveto
          10 -1 15 2 8 7 11 9 10 41 1 33 rrcurveto
          63 88 -2 -6 70 hvcurveto
          -3 61 rlineto
          3 -45 -138 3 -36 161 callgsubr
          endchar
        </CharString>
        <CharString name="dvBHA">
          145 723 -69 callgsubr
          -314 -80 callsubr
          103 -249 hlineto
          2 -54 -120 3 -33 161 callgsubr
          -126 vlineto
          262 callsubr
          -50 62 -53 29 209 callgsubr
        </CharString>
        <CharString name="dvBH_LA">
          568 1146 -78 callgsubr
          -722 -107 callgsubr
          512 -106 hlineto
          353 callgsubr
          -65 -85 -44 -103 -1 hvcurveto
          2 -56 -74 49 callsubr
          54 55 -1 -4 54 hvcurveto
          28 -98 93 -83 74 -55 -28 callgsubr
          28 -21 25 160 callgsubr
          49 89 callgsubr
        </CharString>
        <CharString name="dvBH_NA">
          139 718 544 205 callsubr
          -320 -80 callsubr
          110 -236 hlineto
          3 -55 -119 2 -32 hhcurveto
          153 vlineto
          95 -53 58 -86 -67 -48 -33 -62 -60 49 -49 513 callgsubr
          -44 24 -32 30 48 vvcurveto
          33 19 23 35 277 callsubr
          -120 vlineto
          -48 -27 -10 -34 -44 58 -51 18 -6 hvcurveto
          -1 4 7 -1 6 hhcurveto
          10 10 506 callsubr
          11 9 10 42 1 31 rrcurveto
          59 73 -2 -4 64 hvcurveto
          -139 -70 -38 -18 -43 -21 -20 -13 rlinecurve
          -23 -14 -18 -20 10 -25 16 -42 48 -42 22 -1 rrcurveto
          15 18 16 9 hvcurveto
          1 15 -12 49 -5 23 177 106 rcurveline
          -190 vlineto
          -107 callsubr
        </CharString>
        <CharString name="dvBH_R">
          -75 486 605 rmoveto
          -96 hlineto
          -22 11 -9 callgsubr
          94 -92 callsubr
          -316 14 rmoveto
          -66 -48 -33 -62 -63 48 -49 77 -34 hvcurveto
          93 callsubr
          57 80 -1 -4 65 hvcurveto
          -299 -215 6 -20 21 -25 15 -9 rlinecurve
          294 232 -1 94 rlineto
          4 -50 -154 3 -35 452 callgsubr
          vhcurveto
          endchar
        </CharString>
        <CharString name="dvBH_RA">
          147 725 -78 callgsubr
          -315 hlineto
          -22 11 520 callgsubr
          -117 378 callsubr
          -66 -48 -33 -62 -63 48 -49 77 -34 vhcurveto
          93 callsubr
          62 75 -1 -5 65 hvcurveto
          -299 -214 6 144 callgsubr
        </CharString>
        <CharString name="dvBH_R_YA">
          413 781 -63 callgsubr
          -54 -35 -36 -77 -22 vhcurveto
          -25 2 -30 1 -28 1 rrcurveto
          1 -31 -26 0 -17 hhcurveto
          121 349 callsubr
          -67 -48 -33 -62 -64 50 -48 77 -35 vhcurveto
          7 7 7 14 3 11 rrcurveto
          -43 24 -34 32 457 callsubr
          35 277 callsubr
          -89 vlineto
          -38 -28 -5 -21 -8 hvcurveto
          -3 -5 -1 -7 -8 vvcurveto
          -41 61 -58 23 -4 vhcurveto
          4 6 -1 6 hhcurveto
          9 1 9 2 6 6 rrcurveto
          12 9 10 41 33 vvcurveto
          31 23 0 -1 26 hvcurveto
          19 -1 19 -1 21 -1 7 -20 9 -19 11 -18 -262 -156 rcurveline
          368 callgsubr
          15 -9 252 169 rcurveline
          -38 39 52 -24 70 hhcurveto
          52 142 callsubr
          -144 vlineto
          -107 callsubr
        </CharString>
        <CharString name="dvBH_VA">
          420 787 242 rmoveto
          -52 -39 -70 -35 -50 hhcurveto
          -41 -35 callgsubr
          -590 -80 callsubr
          379 401 callgsubr
          -89 -91 -51 -108 -2 hvcurveto
          2 -55 -72 49 callsubr
          53 53 -1 -4 54 hvcurveto
          -74 22 65 -61 98 hhcurveto
          58 200 callsubr
          35 -99 callgsubr
          endchar
        </CharString>
        <CharString name="dvBH_YA">
          417 784 89 callsubr
          -56 -38 -37 -84 -21 vhcurveto
          2 -51 -66 1 -28 hhcurveto
          125 349 callsubr
          -67 -48 -33 -62 -62 46 -50 513 callgsubr
          -41 22 -34 33 457 callsubr
          37 277 callsubr
          -92 vlineto
          -52 -1 -27 -9 -34 vvcurveto
          -45 62 -52 18 -7 vhcurveto
          -1 4 295 callsubr
          43 1 32 rrcurveto
          52 39 -1 -3 47 hvcurveto
          -88 31 70 -69 118 hhcurveto
          51 142 callsubr
          -144 -53 callgsubr
        </CharString>
        <CharString name="dvB_BA">
          332 504 383 281 callsubr
          -29 rmoveto
          -16 -29 -34 -10 -34 hhcurveto
          -50 -56 34 79 36 303 callsubr
          -158 -170 rmoveto
          -17 -28 -32 -11 -34 hhcurveto
          -52 402 callgsubr
          775 191 -96 callsubr
          -920 -107 callgsubr
          710 -142 hlineto
          29 -35 -51 26 -61 hhcurveto
          -89 -93 -52 -110 -15 2 -15 3 -15 hvcurveto
          -9 -13 -10 -13 -12 -12 -170 171 rcurveline
          9 346 callgsubr
          -10 -16 23 423 callgsubr
          33 -30 -52 56 callsubr
          69 61 36 48 38 hvcurveto
          -49 32 55 -36 74 hhcurveto
          59 42 23 27 36 hvcurveto
          -139 vlineto
          -107 callsubr
        </CharString>
        <CharString name="dvB_BHA">
          316 316 179 rmoveto
          -17 -27 -33 -10 -35 hhcurveto
          -52 402 callgsubr
          751 193 -97 callgsubr
          -312 -107 callgsubr
          102 -248 hlineto
          2 -54 -119 3 -33 hhcurveto
          169 vlineto
          92 -51 57 -86 -24 -23 -5 -9 -18 vhcurveto
          -305 -107 callgsubr
          241 -7 hlineto
          -40 33 -28 26 -13 vhcurveto
          6 6 9 6 4 9 rrcurveto
          -13 14 -7 16 20 vvcurveto
          25 21 19 33 57 11 -58 -61 vhcurveto
          -151 vlineto
          262 callsubr
          -12 4 -12 5 -11 vhcurveto
          -160 160 rlineto
          10 21 23 5 27 hhcurveto
          47 24 168 callgsubr
          119 60 53 27 38 38 hvcurveto
          12 -8 11 -5 8 -1 10 -1 15 2 8 7 12 9 9 41 1 33 rrcurveto
          58 80 -2 -5 67 hvcurveto
          -223 vlineto
          -107 callsubr
        </CharString>
        <CharString name="dvB_BH_RA">
          327 289 182 rmoveto
          -17 -28 -32 -11 -34 hhcurveto
          -52 -55 35 78 35 11 29 18 22 hvcurveto
          788 191 -96 callsubr
          -314 hlineto
          -22 10 520 callgsubr
          -116 378 callsubr
          -26 -23 -5 -9 -18 vhcurveto
          -316 -107 callgsubr
          250 hlineto
          -3 0 -3 -3 vvcurveto
          -43 37 -29 35 -12 vhcurveto
          6 6 9 10 4 10 rrcurveto
          -19 13 -7 17 21 vvcurveto
          25 23 18 32 56 10 -58 -55 vhcurveto
          -138 vlineto
          262 callsubr
          -10 3 -11 6 -11 vhcurveto
          -8 -11 -9 -10 -10 -10 -170 170 rcurveline
          10 20 24 432 callgsubr
          -52 15 -45 hhcurveto
          -89 327 callgsubr
          -100 74 -93 118 75 63 42 52 39 hvcurveto
          12 -11 13 -8 6 -2 rrcurveto
          -1 4 7 126 callgsubr
          38 1 31 rrcurveto
          62 75 -1 -5 66 hvcurveto
          -299 -214 5 144 callgsubr
        </CharString>
        <CharString name="dvB_DA">
          297 308 180 171 callgsubr
          21 hvcurveto
          603 192 379 callgsubr
          -885 -107 callgsubr
          682 -95 hlineto
          466 callgsubr
          hvcurveto
          -9 vlineto
          -9 -15 -11 -14 -12 -13 169 callsubr
          324 callsubr
          32 -31 -52 15 -45 hhcurveto
          -89 -91 -52 -111 -100 73 -93 118 65 58 32 44 39 hvcurveto
          -82 34 84 -56 97 hhcurveto
          54 callgsubr
        </CharString>
        <CharString name="dvB_DHA">
          369 314 162 rmoveto
          -13 -27 -30 -9 -34 hhcurveto
          -62 -54 36 78 414 callgsubr
          810 204 rmoveto
          21 -9 26 -11 336 callgsubr
          -56 -1 callgsubr
          -43 28 -54 265 callgsubr
          -448 -107 callgsubr
          363 hlineto
          264 callgsubr
          -56 36 -59 79 -29 vhcurveto
          -18 -20 -11 -23 -2 -29 -12 -23 -23 -32 -33 -26 -180 180 413 callgsubr
          43 23 -11 -15 21 423 callgsubr
          32 -28 -48 15 -43 hhcurveto
          -89 -93 -52 -111 -100 74 -93 119 77 76 38 62 51 hvcurveto
          -50 28 59 -29 66 hhcurveto
          57 47 16 27 40 hvcurveto
          162 callgsubr
        </CharString>
        <CharString name="dvB_DH_VA">
          675 1037 147 callgsubr
          -723 -187 rmoveto
          -13 -27 -30 -9 -34 hhcurveto
          -62 -55 36 78 35 11 29 18 22 hvcurveto
          1113 206 -97 callgsubr
          -586 -80 callsubr
          375 38 callgsubr
          -23 4 -24 8 -22 hvcurveto
          -37 -36 -53 -26 -49 hhcurveto
          -52 -45 182 callgsubr
          -17 22 -14 138 callsubr
          -48 37 35 callsubr
          -43 28 -54 265 callgsubr
          -458 -80 callsubr
          373 hlineto
          264 callgsubr
          -56 36 -59 78 -29 vhcurveto
          -18 -21 -11 -25 -2 -31 -11 -23 -22 -30 -31 -25 -180 180 413 callgsubr
          42 23 -11 -15 22 423 callgsubr
          32 -29 -48 16 -43 hhcurveto
          -89 327 callgsubr
          -101 74 -93 118 78 75 38 63 50 hvcurveto
          -50 28 58 -28 66 hhcurveto
          65 55 20 38 45 hvcurveto
          -39 33 50 -26 64 hhcurveto
          58 200 callsubr
          35 -99 callgsubr
          endchar
        </CharString>
        <CharString name="dvB_JA">
          573 311 201 rmoveto
          -17 -27 -31 -8 -32 hhcurveto
          -59 -56 36 77 35 11 30 19 21 hvcurveto
          1016 169 -96 callsubr
          -1162 -107 callgsubr
          951 -133 -252 -72 callgsubr
          -3 -85 -25 -62 -38 -40 -174 174 rcurveline
          10 346 callgsubr
          168 callgsubr
          118 87 101 57 124 30 hvcurveto
          -126 50 74 -100 108 hhcurveto
          73 368 callsubr
          -38 526 callsubr
          202 -335 hlineto
          -107 callsubr
        </CharString>
        <CharString name="dvB_JHA">
          486 853 400 callgsubr
          182 callsubr
          26 21 102 hvcurveto
          64 18 -3 20 hhcurveto
          11 22 22 16 hvcurveto
          115 147 vlineto
          -541 -343 rmoveto
          -15 -28 -33 -9 -36 hhcurveto
          -54 -55 36 78 35 11 29 18 22 hvcurveto
          929 167 -96 callsubr
          -1083 -107 callgsubr
          658 503 callgsubr
          -48 -36 -64 -24 6 -23 9 -21 hvcurveto
          -11 -21 -16 -20 -18 -17 -177 177 rcurveline
          10 20 24 430 callgsubr
          -52 16 -45 hhcurveto
          -89 327 callgsubr
          -101 74 -93 117 84 75 47 62 42 hvcurveto
          -21 22 27 -13 27 38 79 31 40 hhcurveto
          31 13 -18 -27 -67 -83 -36 -72 -16 -20 2 5 -14 hvcurveto
          31 -15 -26 42 -30 hhcurveto
          -24 -32 -22 -34 -38 50 -24 51 460 callgsubr
          -82 20 -45 106 callsubr
          -42 57 -37 41 rrcurveto
          -1 7 7 0 6 hhcurveto
          111 88 510 callgsubr
          16 3 15 4 20 4 17 6 15 5 rrcurveto
          -213 -92 callgsubr
        </CharString>
        <CharString name="dvB_J_YA">
          867 1235 159 callgsubr
          -47 -23 -57 -25 callsubr
          -915 -359 rmoveto
          -17 -28 -31 -8 -32 hhcurveto
          -59 -55 36 78 35 303 callsubr
          1302 185 -97 callgsubr
          -1454 -80 callsubr
          987 204 callsubr
          -34 -14 -27 -30 -21 vhcurveto
          15 -59 -72 11 -65 hhcurveto
          -86 hlineto
          -5 -2 -17 -23 -4 -13 rrcurveto
          26 -29 55 -60 -64 vvcurveto
          -53 -36 -21 -38 53 callsubr
          129 callsubr
          1 -3 rcurveline
          -3 -84 -26 -61 -38 -39 -173 174 rcurveline
          10 346 callgsubr
          -11 -15 23 hvcurveto
          11 39 rlineto
          32 -31 -52 56 callsubr
          86 102 56 125 29 hvcurveto
          -126 50 74 -99 108 hhcurveto
          73 44 49 72 66 -39 53 -22 27 hvcurveto
          133 hlineto
          -111 20 74 -98 140 hhcurveto
          51 142 callsubr
          -144 vlineto
          -107 callsubr
        </CharString>
        <CharString name="dvB_JxA">
          576 715 42 108 callsubr
          43 40 9 421 callgsubr
          -405 159 rmoveto
          -17 -28 -32 -8 -32 hhcurveto
          -56 -56 37 76 35 303 callsubr
          1019 170 -96 callsubr
          -1163 -107 callgsubr
          952 -133 -254 357 callgsubr
          389 callsubr
          -86 -26 -62 -39 -39 -174 174 rcurveline
          10 455 callgsubr
          49 25 168 callgsubr
          118 88 101 58 127 27 hvcurveto
          -128 50 75 -102 108 hhcurveto
          79 38 57 67 65 -39 52 -22 27 hvcurveto
          204 -335 hlineto
          -107 callsubr
        </CharString>
        <CharString name="dvB_LA">
          486 308 180 171 callgsubr
          22 hvcurveto
          928 191 -96 callsubr
          -1073 -107 callgsubr
          863 281 callgsubr
          -13 1 -12 3 -13 hvcurveto
          -10 -16 -12 -16 -14 -15 187 callgsubr
          63 39 50 38 hvcurveto
          39 -78 75 -65 62 -46 -28 callgsubr
          28 -21 25 160 callgsubr
          49 89 callgsubr
        </CharString>
        <CharString name="dvB_L_YA">
          870 1237 -91 callsubr
          -927 -364 rmoveto
          -16 -28 -33 -11 -35 hhcurveto
          -52 -54 36 78 35 11 29 18 22 hvcurveto
          1313 191 -97 callgsubr
          -1462 203 callsubr
          992 98 callgsubr
          -49 -30 -35 -65 -22 vhcurveto
          79 -24 -49 19 -41 450 callsubr
          -18 -46 66 -81 hhcurveto
          -65 -86 -45 -105 -13 1 -13 3 -13 hvcurveto
          -10 -16 -12 -15 -14 -14 -171 171 rcurveline
          10 20 23 430 callgsubr
          -51 15 -46 hhcurveto
          -88 327 callgsubr
          -100 73 -93 118 72 62 38 50 38 hvcurveto
          40 -77 74 -66 62 -45 41 callgsubr
          26 22 -26 -35 9 hvcurveto
          -110 21 73 -95 138 -75 callsubr
        </CharString>
        <CharString name="dvB_NA">
          3 312 callsubr
          234 -118 rmoveto
          -7 -8 -7 -8 -9 -8 -172 172 413 callgsubr
          53 37 -19 -29 34 hvcurveto
          212 195 -97 callgsubr
          -591 468 callgsubr
          28 -35 -51 26 -61 hhcurveto
          -88 -93 -52 -110 -78 48 -78 85 -25 hvcurveto
          -23 -11 -21 -9 -14 -9 -23 -13 -19 -19 10 -26 476 callgsubr
          229 callgsubr
          -4 23 181 101 rcurveline
          -139 vlineto
          -107 callsubr
        </CharString>
        <CharString name="dvB_R">
          -211 180 callgsubr
          375 -83 callgsubr
          -29 -422 rmoveto
          -16 -27 -32 -9 -35 hhcurveto
          -52 -53 34 76 34 10 29 18 22 hvcurveto
          252 -89 rmoveto
          -10 -19 -14 -18 -17 -16 -171 172 rcurveline
          9 19 23 5 26 hhcurveto
          49 25 -11 -15 23 hvcurveto
          11 39 rlineto
          32 -31 -52 15 -45 hhcurveto
          -89 327 callgsubr
          -88 59 -84 102 -13 hvcurveto
          -137 -74 8 -22 16 -23 15 -12 rlinecurve
          311 201 rlineto
          endchar
        </CharString>
        <CharString name="dvB_RA">
          1 312 callsubr
          233 -119 rmoveto
          -7 -8 -7 -8 -8 -7 -172 172 413 callgsubr
          52 37 -19 -28 34 hvcurveto
          211 194 -97 callgsubr
          -589 -107 callgsubr
          378 -140 hlineto
          28 -35 -50 25 -61 hhcurveto
          -88 -93 -52 -110 -85 57 -85 100 -16 hvcurveto
          -135 -74 7 -22 16 -23 15 -12 rlinecurve
          267 172 rlineto
          -138 -92 callgsubr
        </CharString>
        <CharString name="dvB_SA">
          423 791 345 callgsubr
          -47 -84 callgsubr
          226 hlineto
          -484 -362 rmoveto
          -17 -28 -32 -11 -35 hhcurveto
          -52 -54 453 callgsubr
          867 191 -97 callgsubr
          -1011 -107 callgsubr
          500 332 callgsubr
          -41 -29 -21 -39 -8 2 -10 2 -10 hvcurveto
          -10 -20 -14 -19 -17 -17 -171 171 rcurveline
          9 20 24 5 27 hhcurveto
          47 24 -10 191 callgsubr
          119 74 70 43 58 39 hvcurveto
          55 -92 104 -113 133 callsubr
        </CharString>
        <CharString name="dvB_SHA">
          491 309 180 rmoveto
          -16 -27 -32 -10 -36 hhcurveto
          -52 -56 36 77 35 11 29 18 22 hvcurveto
          935 191 -96 callsubr
          -1084 -80 callsubr
          475 hlineto
          -12 -18 -7 -22 -24 vvcurveto
          -51 37 -53 91 13 callgsubr
          33 27 vvcurveto
          50 38 25 41 58 23 -49 -53 -90 -78 -78 -68 -15 vhcurveto
          25 -21 -23 24 -31 hhcurveto
          -35 -16 -28 -31 -18 hvcurveto
          -9 -14 -11 -13 -12 -12 -173 174 rcurveline
          9 20 23 5 26 hhcurveto
          48 24 -10 302 callsubr
          -30 -52 56 callsubr
          74 70 41 65 46 hvcurveto
          -11 15 24 -3 13 hhcurveto
          10 268 callgsubr
          87 31 101 87 108 vvcurveto
          45 -18 38 -26 27 vhcurveto
          167 -532 360 callgsubr
        </CharString>
        <CharString name="dvB_TA">
          328 310 180 rmoveto
          -16 -27 -33 -11 -36 hhcurveto
          -52 -54 36 78 35 11 29 18 22 hvcurveto
          769 191 -97 callgsubr
          -916 -80 callsubr
          705 450 callgsubr
          -107 -10 1 -11 1 -10 hvcurveto
          -8 -14 -10 -13 -12 -12 -172 172 rcurveline
          10 20 23 5 27 hhcurveto
          47 24 403 callsubr
          -51 56 callsubr
          66 58 33 45 39 hvcurveto
          28 -74 50 -74 39 -52 7 2 23 499 callsubr
          56 -69 292 callsubr
        </CharString>
        <CharString name="dvB_VA">
          339 705 148 callgsubr
          -397 -166 171 callgsubr
          22 hvcurveto
          779 191 -97 callgsubr
          -926 -80 callsubr
          716 276 callsubr
          -14 2 -14 2 -14 hvcurveto
          -8 -15 -11 -14 -13 -13 187 callgsubr
          62 38 50 38 hvcurveto
          -51 32 56 -36 75 hhcurveto
          59 42 22 28 36 hvcurveto
          -140 vlineto
          -107 callsubr
        </CharString>
        <CharString name="dvB_YA">
          355 723 228 callsubr
          -54 246 callgsubr
          95 23 54 58 72 377 callgsubr
          -414 -364 rmoveto
          -16 -26 -31 -10 -35 hhcurveto
          -56 402 callgsubr
          798 191 -96 callsubr
          -944 -80 callsubr
          477 429 callgsubr
          -24 6 -23 10 -22 -11 -19 -14 -19 -16 -17 -173 174 rcurveline
          9 346 callgsubr
          -10 -16 23 423 callgsubr
          33 390 callgsubr
          72 41 63 45 hvcurveto
          -50 39 59 -34 82 hhcurveto
          51 42 -19 callsubr
          -144 vlineto
          -107 callsubr
        </CharString>
        <CharString name="dvC">
          -167 361 438 rmoveto
          198 callgsubr
          -75 63 -85 119 62 54 23 40 45 vhcurveto
          -7 102 rlineto
          -68 -33 -72 -41 -63 519 callsubr
          35 hlineto
          -2 24 -8 21 -10 16 rrcurveto
          31 167 rmoveto
          -422 -107 callgsubr
          422 -83 callgsubr
          endchar
        </CharString>
        <CharString name="dvCA">
          70 648 -69 callgsubr
          -658 -107 callgsubr
          447 170 callsubr
          35 76 hvcurveto
          35 hlineto
          -2 24 -8 21 -10 16 rrcurveto
          198 callgsubr
          -75 63 -85 119 52 47 16 29 40 vhcurveto
          -151 -92 callgsubr
        </CharString>
        <CharString name="dvCH">
          94 652 605 rmoveto
          -682 -107 callgsubr
          682 -92 callsubr
          -489 -121 rmoveto
          -74 -48 -51 -60 -55 40 -60 194 callgsubr
          220 callsubr
          97 -45 89 -101 -70 -46 -49 -69 -80 64 -46 56 -25 vhcurveto
          10 418 callsubr
          -43 -57 callgsubr
          -28 57 -79 hhcurveto
          endchar
        </CharString>
        <CharString name="dvCHA">
          98 518 544 rmoveto
          154 -92 callsubr
          -682 -107 callgsubr
          465 -58 hlineto
          -64 -5 -42 -47 -66 vvcurveto
          -80 64 -46 56 -25 vhcurveto
          10 418 callsubr
          -43 -57 callgsubr
          -28 57 -79 hhcurveto
          -74 -48 -51 -60 -55 40 -60 194 callgsubr
          220 callsubr
          78 -29 73 -64 25 vhcurveto
          endchar
        </CharString>
        <CharString name="dvCH_RA">
          94 518 544 rmoveto
          154 -92 callsubr
          -682 -107 callgsubr
          465 -58 hlineto
          -64 -5 -42 -47 -66 vvcurveto
          -80 64 -46 56 -25 vhcurveto
          10 418 callsubr
          -43 -57 callgsubr
          -28 57 -79 hhcurveto
          -74 -48 -51 -60 -55 40 -60 194 callgsubr
          vhcurveto
          8 hlineto
          -175 -110 8 -18 259 callsubr
          138 -110 12 6 20 21 6 12 rlinecurve
          -164 121 rlineto
          146 24 100 120 166 vvcurveto
          78 -29 73 -64 25 vhcurveto
          endchar
        </CharString>
        <CharString name="dvCH_R_YA">
          695 102 callgsubr
          -1284 -107 callgsubr
          459 -2 callsubr
          130 vhcurveto
          -187 -118 443 callgsubr
          -110 12 7 20 20 6 12 rlinecurve
          -170 127 rlineto
          161 13 113 124 176 vvcurveto
          121 callsubr
        </CharString>
        <CharString name="dvCH_YA">
          694 102 callgsubr
          -1290 -80 callsubr
          465 -2 callsubr
          131 220 callsubr
          121 callsubr
        </CharString>
        <CharString name="dvC_CA">
          333 433 377 rmoveto
          -30 -19 -24 -36 -44 vvcurveto
          -16 3 -16 6 -16 vhcurveto
          -36 -37 -49 -20 -44 519 callsubr
          592 167 205 callsubr
          -921 -107 callgsubr
          711 170 callsubr
          35 76 hvcurveto
          34 hlineto
          -1 24 -8 19 -11 16 rrcurveto
          -617 hlineto
          1 -23 9 -18 14 -18 rrcurveto
          113 hlineto
          -31 -19 -23 -36 -44 vvcurveto
          -75 63 -85 119 58 45 20 35 48 vhcurveto
          -32 31 46 -23 62 hhcurveto
          53 43 17 30 43 hvcurveto
          -153 vlineto
          -107 callsubr
        </CharString>
        <CharString name="dvC_CHA">
          442 867 544 rmoveto
          154 -83 callgsubr
          -1037 -107 callgsubr
          820 315 callgsubr
          -43 26 -27 506 callgsubr
          30 21 34 44 34 -37 -78 -141 -108 81 callsubr
          -54 38 -58 69 -23 hvcurveto
          -64 -43 -69 -50 -95 427 callsubr
          -8 20 -10 17 rrcurveto
          -335 hlineto
          1 -24 7 -21 13 -17 rrcurveto
          151 hlineto
          -30 -18 -24 -36 -45 vvcurveto
          -77 64 -83 123 58 56 17 31 44 vhcurveto
          -68 15 68 -61 116 hhcurveto
          295 callgsubr
          hvcurveto
          endchar
        </CharString>
        <CharString name="dvC_CH_VA">
          466 787 -88 rmoveto
          -38 -35 -47 -19 -46 hhcurveto
          -54 -41 29 49 66 67 25 63 11 hvcurveto
          28 5 33 8 32 13 rrcurveto
          107 483 rmoveto
          150 -83 callgsubr
          -1054 -107 callgsubr
          841 -38 -7 hlineto
          -72 -45 -53 -66 -75 59 -48 61 -27 hvcurveto
          7 5 10 11 2 11 rrcurveto
          -41 26 -30 32 52 vvcurveto
          51 29 22 36 33 45 -24 -91 -129 -105 -114 -147 -75 -48 20 56 55 72 32 54 6 vhcurveto
          -10 25 -11 14 -15 17 -20 -4 -28 -5 -35 -19 rrcurveto
          -35 8 -49 31 53 vvcurveto
          38 26 29 47 42 19 -20 -20 16 vhcurveto
          7 1 8 5 4 4 rrcurveto
          31 -7 -27 58 -80 hhcurveto
          -74 -48 -51 -60 -56 41 -55 65 -22 hvcurveto
          -67 -42 -68 -54 -94 427 callsubr
          -7 20 -11 17 rrcurveto
          -335 hlineto
          -102 callsubr
          -14 vhcurveto
          152 hlineto
          -30 -18 -24 -36 -44 vvcurveto
          -78 65 -83 120 61 59 21 35 44 vhcurveto
          13 -34 31 -32 51 -18 rrcurveto
          -42 -22 -29 -33 -51 vvcurveto
          -72 61 -75 112 45 38 12 17 31 vhcurveto
          -90 vlineto
          -13 29 -18 35 vhcurveto
          385 vlineto
          65 43 53 71 113 vvcurveto
          75 -26 62 -49 29 vhcurveto
          endchar
        </CharString>
        <CharString name="dvC_MA">
          379 523 544 rmoveto
          223 -248 hlineto
          -29 2 -38 1 -39 1 rrcurveto
          1 -38 -42 1 -37 hhcurveto
          434 242 -97 callgsubr
          -966 -107 callgsubr
          465 10 callgsubr
          -13 6 -14 10 -15 vhcurveto
          -24 -33 -40 -14 -37 334 callgsubr
          -360 hlineto
          1 -23 7 355 callgsubr
          52 48 17 29 41 vhcurveto
          -9 12 12 -6 9 hhcurveto
          306 callsubr
          hvcurveto
          -5 callgsubr
        </CharString>
        <CharString name="dvC_NA">
          74 652 -78 callgsubr
          -662 -107 callgsubr
          452 -286 hlineto
          -53 -37 -62 -31 -54 334 callgsubr
          331 callsubr
          -60 41 -67 78 -24 vhcurveto
          -63 -26 -24 -12 -18 -20 9 -26 rlinecurve
          14 -42 49 -45 22 -2 14 -1 19 16 1 9 rrcurveto
          15 -10 50 -5 23 vhcurveto
          195 91 rlineto
          -145 vlineto
          -107 callsubr
        </CharString>
        <CharString name="dvC_R">
          -172 388 605 rmoveto
          -418 -107 callgsubr
          418 -92 callsubr
          -29 -165 rmoveto
          331 callsubr
          -69 53 -77 101 -12 vhcurveto
          -128 -69 7 -22 17 -23 14 -12 rlinecurve
          189 120 76 53 19 13 -11 104 rcurveline
          -69 -33 -72 -41 -63 362 callsubr
          75 hvcurveto
          35 hlineto
          -1 24 -8 21 -11 16 rrcurveto
          endchar
        </CharString>
        <CharString name="dvC_RA">
          69 647 -69 callgsubr
          -657 -107 callgsubr
          447 -283 hlineto
          -54 -37 -62 -31 -54 hhcurveto
          -52 -51 27 59 82 88 35 76 hvcurveto
          35 hlineto
          -2 24 -7 21 -11 16 rrcurveto
          198 callgsubr
          -68 52 -76 99 -14 vhcurveto
          -125 -68 8 -22 16 -23 14 -12 rlinecurve
          244 160 6 3 8 6 rlineto
          -154 vlineto
          -107 callsubr
        </CharString>
        <CharString name="dvC_YA">
          395 763 164 callsubr
          -984 -107 callgsubr
          517 hlineto
          91 callgsubr
          5 -28 8 -27 12 -25 rrcurveto
          -50 -38 -59 -29 -55 519 callsubr
          34 hlineto
          -1 24 -8 21 -11 16 rrcurveto
          -360 hlineto
          2 -23 6 355 callgsubr
          67 62 29 47 47 vhcurveto
          -44 39 57 -28 75 hhcurveto
          51 142 callsubr
          -144 vlineto
          -107 callsubr
        </CharString>
        <CharString name="dvCandrabindu">
          63 callsubr
        </CharString>
        <CharString name="dvD">
          -4 callgsubr
          -49 -466 162 callsubr
          7 9 9 8 10 -34 41 -71 505 callsubr
          endchar
        </CharString>
        <CharString name="dvDA">
          -4 callgsubr
          endchar
        </CharString>
        <CharString name="dvDA_mvR">
          -139 345 544 rmoveto
          94 -92 callsubr
          -449 -107 callgsubr
          289 -59 -70 hlineto
          -91 -1 -67 -28 -71 vvcurveto
          -46 29 -38 36 -33 vhcurveto
          -38 -23 -23 -34 -47 vvcurveto
          -88 77 -58 98 80 56 28 36 41 vhcurveto
          -7 18 -13 21 -13 14 rrcurveto
          -23 -22 -50 -39 -81 hhcurveto
          -56 -46 29 52 76 88 21 128 2 hvcurveto
          -4 21 -12 24 -9 12 rrcurveto
          -57 -52 -7 -15 -42 hvcurveto
          -23 20 -22 26 34 vvcurveto
          39 26 15 93 vhcurveto
          24 41 -2 20 hhcurveto
          12 15 25 16 hvcurveto
          endchar
        </CharString>
        <CharString name="dvDD">
          -68 399 544 rmoveto
          106 hlineto
          102 callsubr
          63 hvcurveto
          42 79 31 39 hhcurveto
          29 504 callgsubr
          -49 -58 -101 -82 -54 42 68 -56 478 callgsubr
          -12 -6 -12 rrcurveto
          -95 71 84 -46 91 hhcurveto
          103 76 59 89 58 -37 75 -68 hvcurveto
          -47 -107 -32 -18 hhcurveto
          -18 18 callsubr
          -98 -474 74 callgsubr
          -2 -19 5 -30 7 -15 rrcurveto
          3 18 23 2 22 hhcurveto
          24 20 198 callsubr
          81 -79 29 rrcurveto
          endchar
        </CharString>
        <CharString name="dvDDA">
          -84 388 544 rmoveto
          106 hlineto
          21 -8 26 -12 14 vhcurveto
          -504 hlineto
          -22 9 -26 11 -13 vhcurveto
          331 -90 -121 hlineto
          -86 -51 -32 -69 -79 63 -75 62 hvcurveto
          43 79 31 39 hhcurveto
          29 -10 callgsubr
        </CharString>
        <CharString name="dvDDH">
          -9 327 179 rmoveto
          132 callsubr
          322 callgsubr
          75 365 rmoveto
          165 hlineto
          21 -9 -95 callgsubr
          -579 112 callsubr
          -85 -79 -110 -120 92 -101 159 139 432 callsubr
          27 -33 hvcurveto
          103 callsubr
          -62 -459 162 callsubr
          8 9 8 7 10 -33 41 -71 505 callsubr
          endchar
        </CharString>
        <CharString name="dvDDHA">
          -9 355 105 rmoveto
          -13 20 -12 25 29 vvcurveto
          132 callsubr
          50 439 rmoveto
          165 -92 callsubr
          -580 112 callsubr
          518 callgsubr
          138 432 callsubr
          28 -33 hvcurveto
          241 callsubr
          endchar
        </CharString>
        <CharString name="dvDDH_DDHA">
          -15 319 -126 rmoveto
          39 23 29 32 22 23 -15 -35 -33 -35 -31 -45 -18 vhcurveto
          -11 18 -9 22 24 vvcurveto
          396 vmoveto
          38 23 30 32 22 23 -15 -35 -33 -35 -32 -45 -17 vhcurveto
          -11 18 -9 22 24 vvcurveto
          69 -103 rmoveto
          54 28 31 47 46 vvcurveto
          513 callsubr
          -33 26 -31 vhcurveto
          -3 -13 -12 -1 -13 hhcurveto
          -98 -46 54 64 68 34 62 136 37 19 -6 -1 9 hvcurveto
          13 1 16 23 1 12 rrcurveto
          75 175 vlineto
          21 -9 -95 callgsubr
          -572 -107 callgsubr
          336 -51 hlineto
          387 callsubr
          19 17 2 3 17 hvcurveto
          -48 vlineto
          387 callsubr
          122 78 75 73 513 callsubr
          -32 25 -31 hvcurveto
          -3 -12 -13 -1 -12 hhcurveto
          -98 -46 53 64 68 41 62 129 37 19 -6 -1 9 hvcurveto
          13 2 16 22 1 12 rrcurveto
          endchar
        </CharString>
        <CharString name="dvDDH_R">
          -9 330 179 rmoveto
          132 callsubr
          322 callgsubr
          120 -293 rmoveto
          12 6 20 20 6 13 -160 118 rcurveline
          118 11 59 70 72 vvcurveto
          200 callgsubr
          28 -33 vhcurveto
          241 callsubr
          122 165 -74 callgsubr
          -580 112 callsubr
          -84 -79 -110 -115 84 -98 148 -8 hvcurveto
          -175 -110 7 -18 259 callsubr
          rlineto
          59 -106 426 callsubr
          -20 4 -29 7 -16 rrcurveto
          3 18 23 2 22 hhcurveto
          24 20 198 callsubr
          524 callsubr
        </CharString>
        <CharString name="dvDDH_RA">
          0 357 105 rmoveto
          -13 20 -12 25 29 vvcurveto
          132 callsubr
          50 439 517 callgsubr
          -579 112 callsubr
          -85 -79 -110 -115 84 -97 147 -8 hvcurveto
          -175 -111 7 -18 259 callsubr
          138 -110 12 6 20 20 6 13 rlinecurve
          -159 118 rlineto
          118 11 60 70 72 vvcurveto
          200 callgsubr
          27 -33 vhcurveto
          103 callsubr
          endchar
        </CharString>
        <CharString name="dvDDH_YA">
          526 894 207 rmoveto
          -29 -29 -48 -24 -58 hhcurveto
          -74 -51 36 55 -25 hvcurveto
          91 22 52 50 55 vvcurveto
          82 -116 20 -123 -39 -41 -2 -3 -38 vhcurveto
          75 499 vlineto
          -500 -288 rmoveto
          25 29 -12 -37 -49 -38 -35 -57 -16 hvcurveto
          -12 20 -12 25 28 vvcurveto
          43 25 33 40 vhcurveto
          711 288 205 callsubr
          -1114 -107 callgsubr
          338 -83 hlineto
          -21 -2 -18 -3 -15 -3 rrcurveto
          -152 -19 -78 -64 -111 vvcurveto
          -116 92 -101 158 147 62 83 71 77 -65 36 -57 -68 -37 -52 -58 -32 13 -37 25 -32 vhcurveto
          -17 -2 -18 0 -18 1 rrcurveto
          -95 3 -56 61 82 vvcurveto
          73 50 58 143 22 vhcurveto
          7 41 98 12 97 hhcurveto
          91 64 -11 -31 -30 -56 -33 -90 -20 hvcurveto
          -106 19 70 -95 135 hhcurveto
          53 41 17 18 400 callsubr
        </CharString>
        <CharString name="dvDDHxA">
          -23 307 -32 475 callgsubr
          39 -45 13 15 43 175 callgsubr
          51 137 292 callgsubr
          50 439 517 callgsubr
          -580 -80 callsubr
          349 -95 hlineto
          2 -18 -15 1 -23 hhcurveto
          -153 518 callgsubr
          139 69 76 78 76 -66 34 -56 -69 -37 -52 -57 -34 14 483 callsubr
          -64 62 87 78 49 71 153 hvcurveto
          25 28 -6 13 297 callsubr
          endchar
        </CharString>
        <CharString name="dvDD_DDA">
          -10 405 544 rmoveto
          163 -83 callgsubr
          -578 -107 callgsubr
          351 -56 -112 hlineto
          -93 -47 -38 -62 -70 66 -69 58 hvcurveto
          41 71 31 35 hhcurveto
          27 20 -16 -29 -44 -44 -49 -98 -79 -53 32 75 -57 hvcurveto
          -12 -7 -14 -12 -8 -10 31 -43 35 -31 35 -21 rrcurveto
          -36 -18 -18 -26 -35 vvcurveto
          -67 66 -69 58 vhcurveto
          42 70 31 35 hhcurveto
          27 20 -16 -30 -42 -44 -51 -97 -79 -54 32 75 -57 hvcurveto
          -12 -6 -15 -11 -7 -12 rrcurveto
          -96 71 80 -41 89 hhcurveto
          101 71 54 79 54 -36 71 -67 -47 -88 -31 -2 -20 hvcurveto
          -15 -1 -32 14 41 vvcurveto
          46 27 4 106 12 vhcurveto
          66 7 106 25 99 vvcurveto
          53 -34 72 -69 -48 -88 -31 -1 -19 vhcurveto
          -22 -3 -25 24 39 vvcurveto
          44 34 14 105 vhcurveto
          49 14 -2 26 hhcurveto
          12 16 25 15 hvcurveto
          endchar
        </CharString>
        <CharString name="dvDD_DDHA">
          -64 343 -192 rmoveto
          -10 16 -12 21 -1 26 rrcurveto
          39 1 22 30 33 hhcurveto
          30 15 -23 -24 -38 -31 -32 -47 -15 hvcurveto
          51 736 rmoveto
          121 -92 callsubr
          -525 -107 callgsubr
          341 -62 -102 hlineto
          -97 -53 -33 -62 -68 61 -76 63 hvcurveto
          41 72 33 36 hhcurveto
          27 18 -17 -29 -46 -49 -49 -89 -80 -57 36 71 -57 hvcurveto
          -11 -6 -14 -11 -7 -12 37 -52 45 -39 50 -22 rrcurveto
          -72 -31 -35 -63 -68 vvcurveto
          -106 1 81 -90 134 hhcurveto
          122 80 62 87 59 -57 43 -57 -65 -28 -56 -44 -39 17 -32 18 -23 hvcurveto
          -16 -1 -16 0 -16 1 rrcurveto
          -84 3 -50 51 78 vvcurveto
          101 93 35 52 10 vhcurveto
          91 14 85 23 95 vvcurveto
          62 -35 63 -64 vhcurveto
          -43 -101 -31 -20 hhcurveto
          -16 -25 21 38 46 33 14 112 hvcurveto
          48 12 -3 24 hhcurveto
          12 14 26 14 hvcurveto
          endchar
        </CharString>
        <CharString name="dvDD_R">
          -84 388 -143 rmoveto
          12 6 20 20 6 13 -159 117 rcurveline
          101 2 73 59 87 210 callsubr
          115 106 vlineto
          94 callsubr
          60 -80 69 -45 75 -13 -180 -113 rcurveline
          8 -18 22 -28 16 -11 164 121 rcurveline
          49 -92 426 callsubr
          2 callgsubr
          12 7 10 9 7 9 493 callsubr
          endchar
        </CharString>
        <CharString name="dvDD_RA">
          -90 388 544 rmoveto
          106 hlineto
          94 callsubr
          65 -86 75 -46 81 -8 -176 -111 358 callgsubr
          21 20 5 13 rlinecurve
          -159 118 rlineto
          90 9 64 56 82 210 callsubr
          endchar
        </CharString>
        <CharString name="dvDD_VA">
          -52 336 -36 rmoveto
          -38 -34 -47 -18 -45 hhcurveto
          -54 -41 30 48 63 50 33 76 9 hvcurveto
          6 9 1 1 8 hvcurveto
          27 2 24 4 21 7 rrcurveto
          50 438 rmoveto
          140 -83 callgsubr
          -536 -107 callgsubr
          332 -57 -111 hlineto
          -95 -45 -35 -61 -68 65 -67 59 hvcurveto
          42 70 31 35 hhcurveto
          27 20 -17 -28 -41 -45 -49 -97 -79 -54 30 70 -56 hvcurveto
          -12 -8 -15 -10 -7 -12 36 -46 39 -33 40 -20 rrcurveto
          -57 -24 -31 -43 -54 vvcurveto
          -72 61 -75 111 45 38 11 18 30 vhcurveto
          -102 vlineto
          -12 32 -19 32 vhcurveto
          390 vlineto
          23 21 12 28 33 vvcurveto
          50 -33 74 -69 -48 -89 -31 -2 -19 vhcurveto
          -21 -2 -25 22 38 vvcurveto
          43 35 10 104 vhcurveto
          49 14 436 callgsubr
          15 25 16 hvcurveto
          endchar
        </CharString>
        <CharString name="dvDD_YA">
          509 876 207 rmoveto
          -29 -29 -47 -22 -56 hhcurveto
          -76 -50 37 55 -25 hvcurveto
          91 22 52 51 58 vvcurveto
          58 -1 -49 34 -67 hhcurveto
          -99 -87 -90 -105 -49 hvcurveto
          11 -14 -18 7 -21 -47 -106 -32 -19 hhcurveto
          -18 -22 19 41 53 32 18 108 hvcurveto
          49 19 109 callgsubr
          115 493 380 callsubr
          -1101 25 callsubr
          63 hvcurveto
          42 79 31 39 hhcurveto
          29 15 173 callgsubr
          -13 -6 -15 -12 -6 -12 rrcurveto
          -95 71 84 -46 91 hhcurveto
          103 76 59 89 20 -5 23 -9 21 hvcurveto
          100 39 74 96 88 hhcurveto
          32 22 -11 -24 -39 -55 -33 -90 -21 hvcurveto
          -106 19 70 293 callgsubr
        </CharString>
        <CharString name="dvDDxA">
          -90 252 -33 rmoveto
          56 callgsubr
          135 577 rmoveto
          106 hlineto
          211 callgsubr
          38 hhcurveto
          30 -10 callgsubr
        </CharString>
        <CharString name="dvDH">
          -122 452 -78 callgsubr
          -84 hlineto
          1 -94 callsubr
          10 -13 rrcurveto
          109 -274 rmoveto
          -57 -31 -69 -51 -67 78 callgsubr
          -87 -58 -60 -72 -56 37 227 callsubr
          -93 78 -55 91 75 77 35 55 45 vhcurveto
          endchar
        </CharString>
        <CharString name="dvDHA">
          81 658 544 rmoveto
          21 -9 26 -11 336 callgsubr
          -56 40 callgsubr
          47 16 27 40 vhcurveto
          162 callgsubr
        </CharString>
        <CharString name="dvDH_MA">
          401 769 296 -22 callgsubr
          -18 callgsubr
          -610 -107 callgsubr
          109 10 callgsubr
          -13 7 -16 11 -16 vhcurveto
          -28 -34 -43 -19 -43 40 callgsubr
          57 20 33 44 vhcurveto
          -8 12 11 -5 8 hhcurveto
          12 16 4 10 6 hvcurveto
          10 -77 callgsubr
        </CharString>
        <CharString name="dvDH_NA">
          92 670 544 205 callsubr
          -302 397 callsubr
          -56 47 callgsubr
          -71 46 -49 63 -19 vhcurveto
          -78 -33 -24 -12 -18 -20 10 -26 rlinecurve
          369 callsubr
          -4 23 211 98 rcurveline
          -136 vlineto
          -107 callsubr
        </CharString>
        <CharString name="dvDH_N_YA">
          398 766 -63 callgsubr
          -60 -44 -38 -98 -21 vhcurveto
          6 -36 12 -34 17 -30 rrcurveto
          -43 -36 -55 -28 -53 47 callgsubr
          -69 43 -49 60 -20 vhcurveto
          -72 -30 -24 -11 -18 -21 10 -25 rlinecurve
          14 -43 48 -45 22 -1 15 -1 18 15 1 10 1 14 -11 50 -5 23 256 118 rcurveline
          -31 36 49 -19 62 hhcurveto
          51 42 -19 callsubr
          -144 vlineto
          -107 callsubr
        </CharString>
        <CharString name="dvDH_R">
          -137 420 605 rmoveto
          -75 203 callsubr
          74 -92 callsubr
          -107 -193 rmoveto
          -36 -10 -32 -12 -25 -15 rrcurveto
          -40 9 -50 38 64 vvcurveto
          53 36 4 callgsubr
          -87 -58 -60 -72 -55 35 -60 79 -30 vhcurveto
          -19 -23 -11 -27 -34 vvcurveto
          -83 62 -52 76 -10 vhcurveto
          -145 -76 8 322 callsubr
          324 199 -18 101 rlineto
          -61 -31 -77 -56 -67 hhcurveto
          -53 -44 278 callgsubr
          75 270 callgsubr
          -17 22 -13 13 rrcurveto
          endchar
        </CharString>
        <CharString name="dvDH_RA">
          93 668 442 callgsubr
          10 -26 11 -13 vhcurveto
          95 -299 hlineto
          -47 -35 -60 -36 -56 hhcurveto
          -53 -44 29 52 58 62 215 callsubr
          11 -49 37 63 vvcurveto
          53 36 4 callgsubr
          -87 -58 -60 -72 -56 37 -59 78 298 callgsubr
          -82 60 -52 77 -12 vhcurveto
          -144 -75 8 296 callsubr
          160 7 4 8 5 7 5 rlinecurve
          -141 vlineto
          -107 callsubr
        </CharString>
        <CharString name="dvDH_VA">
          393 761 148 callgsubr
          216 320 callgsubr
          -622 -107 callgsubr
          406 276 callsubr
          -20 3 -19 6 -19 hvcurveto
          -42 -36 -55 -32 -53 -1 callgsubr
          -42 28 -55 -86 -58 -60 -72 -56 36 -59 79 -29 vhcurveto
          -20 -23 -12 -28 -34 vvcurveto
          -93 78 -55 92 62 63 24 39 45 vhcurveto
          -42 33 52 -28 66 hhcurveto
          59 42 22 28 36 hvcurveto
          -140 vlineto
          -107 callsubr
        </CharString>
        <CharString name="dvDH_YA">
          406 773 -63 callgsubr
          -60 -44 -38 -98 -21 vhcurveto
          5 -31 10 -30 14 -27 rrcurveto
          -46 -35 -59 -37 -57 hhcurveto
          -52 -45 30 51 58 63 215 callsubr
          11 -49 38 62 496 callsubr
          -25 -19 -31 -15 -13 -28 -20 vhcurveto
          3 -8 9 -13 8 -5 rrcurveto
          56 226 callgsubr
          298 callgsubr
          -93 77 -55 92 69 70 30 47 46 vhcurveto
          -39 39 53 -25 71 hhcurveto
          51 42 -19 callsubr
          -144 vlineto
          -107 callsubr
        </CharString>
        <CharString name="dvD_BA">
          -42 213 56 rmoveto
          10 29 34 3 30 hhcurveto
          475 callsubr
          -2 -44 -14 -43 -25 -30 rrcurveto
          -37 -31 rmoveto
          -9 -17 -19 -5 -21 hhcurveto
          -43 -41 25 51 23 10 18 15 13 hvcurveto
          223 511 rmoveto
          146 -92 callsubr
          -547 -65 callgsubr
        </CharString>
        <CharString name="dvD_BHA">
          180 616 544 rmoveto
          143 -83 callgsubr
          -769 -107 callgsubr
          560 -88 206 callgsubr
          -18 hhcurveto
          -149 -91 -62 -119 -99 74 -84 102 -25 hvcurveto
          -56 -22 -51 -21 -15 -5 -44 93 rcurveline
          73 -34 -47 34 -58 hhcurveto
          -60 -60 -41 -64 -59 43 -41 69 -15 hvcurveto
          -6 21 24 -4 28 hhcurveto
          4 10 0 16 -1 12 rrcurveto
          -76 6 -52 33 50 vvcurveto
          32 20 22 33 43 28 -49 -59 29 vhcurveto
          33 -69 -42 -19 -20 -22 15 -29 rlinecurve
          -43 20 66 -20 25 hhcurveto
          14 12 6 16 6 hvcurveto
          6 16 -7 42 -12 30 48 21 111 50 78 32 6 2 6 3 6 2 22 9 rcurveline
          32 -47 18 -41 26 -49 21 8 30 23 9 15 -17 34 -44 48 -43 41 rrcurveto
          18 21 11 27 31 vvcurveto
          39 374 callgsubr
          -38 hhcurveto
          -80 -85 40 96 97 74 40 118 hvcurveto
          43 18 -6 11 hhcurveto
          13 1 20 23 16 vvcurveto
          endchar
        </CharString>
        <CharString name="dvD_B_RA">
          -42 213 56 rmoveto
          10 29 34 3 30 hhcurveto
          475 callsubr
          -2 -44 -14 -43 -25 -30 rrcurveto
          -37 -31 rmoveto
          -9 -17 -19 -5 -21 hhcurveto
          -43 -41 25 51 23 10 18 15 13 hvcurveto
          223 511 rmoveto
          146 -92 callsubr
          -547 140 callsubr
          -85 206 callgsubr
          -18 hhcurveto
          -150 -90 -76 -110 -82 48 -67 74 -36 hvcurveto
          -43 -21 -25 -36 -46 vvcurveto
          -57 37 -51 60 -19 vhcurveto
          -109 -52 3 -19 21 -28 15 -9 rlinecurve
          212 123 rlineto
          0 vlineto
          54 32 36 61 3 66 14 407 callsubr
          30 507 callsubr
          30 -40 45 -44 42 rrcurveto
          18 21 11 28 30 vvcurveto
          38 -18 24 -24 516 callsubr
          -16 -22 -42 -6 -28 hhcurveto
          -69 -94 30 103 91 74 52 120 hvcurveto
          39 22 -6 9 hhcurveto
          13 1 20 23 15 vvcurveto
          endchar
        </CharString>
        <CharString name="dvD_DA">
          -68 350 544 rmoveto
          160 -92 callsubr
          -520 -107 callgsubr
          294 -60 hlineto
          1 -5 -65 0 -6 hhcurveto
          -100 -58 -37 -64 -47 29 -38 36 -32 hvcurveto
          -38 -23 -25 -33 -48 vvcurveto
          -93 91 -65 98 48 41 12 20 31 vhcurveto
          36 -50 18 -42 27 -52 22 8 29 23 10 15 -19 35 -46 51 -45 41 rrcurveto
          17 21 9 25 27 vvcurveto
          36 -16 24 -23 -23 -53 -21 -38 -12 5 -20 15 -18 vhcurveto
          -13 -15 -31 -12 -49 hhcurveto
          -65 -48 23 62 81 101 16 118 4 hvcurveto
          -1 21 -12 25 -12 13 -54 -2 -53 -6 -44 -15 rrcurveto
          -23 19 -23 27 33 vvcurveto
          41 27 15 92 vhcurveto
          28 44 -3 19 hhcurveto
          12 15 25 17 hvcurveto
          endchar
        </CharString>
        <CharString name="dvD_DHA">
          -42 227 -97 rmoveto
          -43 -41 25 51 71 92 19 71 475 callsubr
          -83 -4 -47 -79 -84 hhcurveto
          164 641 rmoveto
          146 -92 callsubr
          -547 -65 callgsubr
        </CharString>
        <CharString name="dvD_GA">
          -48 391 544 rmoveto
          139 -83 callgsubr
          -540 -107 callgsubr
          334 -93 206 callgsubr
          -19 hhcurveto
          -148 -91 -74 -117 -93 61 -80 84 -34 hvcurveto
          -91 vlineto
          -37 441 callsubr
          61 -62 32 12 12 4 10 7 vhcurveto
          13 15 6 36 34 vvcurveto
          126 vlineto
          -1 8 8 0 8 hhcurveto
          47 42 11 20 32 hvcurveto
          34 -47 18 -42 26 -50 522 callgsubr
          -42 -31 callsubr
          20 -6 12 hhcurveto
          10 1 23 22 16 vvcurveto
          endchar
        </CharString>
        <CharString name="dvD_GHA">
          137 387 -97 rmoveto
          -49 -36 28 47 72 90 19 73 23 18 -2 -2 15 hvcurveto
          -83 -4 -47 -79 -83 hhcurveto
          -206 120 rmoveto
          -51 -37 25 44 36 24 35 64 16 19 -3 -11 20 hvcurveto
          17 -21 24 -19 25 -13 rrcurveto
          -36 -24 -43 -37 -54 hhcurveto
          370 521 517 callgsubr
          -725 -107 callgsubr
          494 -85 hlineto
          2 -18 -19 1 -17 hhcurveto
          -150 -90 -76 -110 -24 4 -22 7 -20 hvcurveto
          4 -14 -14 2 -14 hhcurveto
          -74 -52 -46 -65 -65 50 -66 96 21 23 4 7 21 hvcurveto
          -71 2 60 -62 88 hhcurveto
          103 73 87 97 5 hvcurveto
          15 -21 19 -35 68 callsubr
        </CharString>
        <CharString name="dvD_G_RA">
          -48 391 544 rmoveto
          139 -92 callsubr
          -540 -107 callgsubr
          334 -93 206 callgsubr
          -19 hhcurveto
          -148 -91 -74 -117 -74 39 -66 58 -41 hvcurveto
          -107 vlineto
          287 callsubr
          rrcurveto
          -2 419 callsubr
          -39 61 -63 30 11 14 4 9 7 vhcurveto
          13 15 6 37 36 vvcurveto
          124 vlineto
          -7 23 25 -4 25 hhcurveto
          18 17 2 3 16 hvcurveto
          -181 vlineto
          -266 -163 6 -19 20 -26 14 -9 rlinecurve
          226 157 rlineto
          -79 vlineto
          -13 29 -19 35 vhcurveto
          375 vlineto
          6 3 34 -47 18 -42 26 -50 rlinecurve
          522 callgsubr
          -42 -31 callsubr
          20 -6 12 hhcurveto
          10 1 23 22 16 vvcurveto
          endchar
        </CharString>
        <CharString name="dvD_MA">
          -548 endchar
        </CharString>
        <CharString name="dvD_NA">
          -43 395 544 rmoveto
          140 -92 callsubr
          -545 -107 callgsubr
          338 -93 206 callgsubr
          -19 hhcurveto
          -148 -91 -74 -117 -104 76 -87 99 -26 hvcurveto
          -105 -43 -24 -11 -18 -21 9 -25 rlinecurve
          14 -43 49 -45 21 -1 rrcurveto
          15 -1 19 16 9 vvcurveto
          1 15 -10 50 -5 23 215 100 rcurveline
          33 -47 18 -41 26 -50 522 callgsubr
          -42 -31 callsubr
          20 -6 12 hhcurveto
          10 1 23 22 16 vvcurveto
          endchar
        </CharString>
        <CharString name="dvD_R">
          -15 callgsubr
          54 -520 rmoveto
          6 -16 -32 5 -26 hhcurveto
          -22 -18 -2 -2 -15 hvcurveto
          -1 271 callsubr
          8 9 8 7 10 -33 41 500 callsubr
          endchar
        </CharString>
        <CharString name="dvD_RA">
          -15 callgsubr
          endchar
        </CharString>
        <CharString name="dvD_VA">
          -43 227 -97 rmoveto
          -43 -41 25 51 71 92 19 71 475 callsubr
          -83 -4 -47 -79 -84 hhcurveto
          164 641 rmoveto
          144 -92 callsubr
          -545 -65 callgsubr
        </CharString>
        <CharString name="dvD_YA">
          59 427 176 rmoveto
          -36 -36 -62 -41 -83 hhcurveto
          -62 -42 23 46 66 96 25 86 8 hvcurveto
          -3 21 -16 26 -12 13 -35 -3 -47 -8 -41 -17 rrcurveto
          -27 21 -20 26 25 vvcurveto
          31 26 20 46 vhcurveto
          99 hlineto
          12 15 24 17 hvcurveto
          81 106 vlineto
          -18 callgsubr
          -647 -107 callgsubr
          266 -57 -72 hlineto
          -73 -52 -34 -66 -47 32 -34 39 -29 hvcurveto
          -31 -22 -22 -31 -43 vvcurveto
          -81 77 -55 103 71 58 22 27 41 vhcurveto
          -88 vlineto
          -13 32 -19 35 vhcurveto
          570 vlineto
          endchar
        </CharString>
        <CharString name="dvE">
          -11 155 544 21 callsubr
        </CharString>
        <CharString name="dvEcandra">
          -11 262 707 rmoveto
          93 73 70 74 35 hvcurveto
          -18 15 -25 16 -24 8 rrcurveto
          -73 -31 -47 -44 -68 hhcurveto
          -58 -41 32 81 -47 406 callsubr
          34 65 -80 100 hhcurveto
          -107 -163 21 callsubr
        </CharString>
        <CharString name="dvEight">
          -96 420 102 rmoveto
          -11 20 -14 18 -21 15 rrcurveto
          -48 -37 -48 -23 -53 hhcurveto
          -56 -58 46 73 92 89 163 88 117 hvcurveto
          -12 17 -24 18 -19 10 rrcurveto
          -67 -96 -112 -158 -143 vvcurveto
          -114 72 -85 115 75 63 36 42 30 vhcurveto
          endchar
        </CharString>
        <CharString name="dvEyelash">
          -274 284 605 rmoveto
          -314 -107 callgsubr
          314 hlineto
          -1 19 -8 28 -11 14 rrcurveto
          48 -264 rmoveto
          -26 -32 -53 -11 -54 hhcurveto
          -43 -45 10 16 -29 hvcurveto
          -25 -41 rlineto
          -28 44 65 -13 62 hhcurveto
          42 40 7 12 33 hvcurveto
          endchar
        </CharString>
        <CharString name="dvEyelash_HA">
          -51 397 383 callgsubr
          100 -74 callgsubr
          -535 -107 callgsubr
          367 -93 -108 hlineto
          -116 -30 -44 -46 -6 0 -5 1 -5 hvcurveto
          -10 -22 -30 -7 -40 hhcurveto
          -37 -62 7 17 -37 hvcurveto
          -26 -41 rlineto
          -29 48 79 -14 52 hhcurveto
          39 38 5 9 27 hvcurveto
          11 -14 13 -13 13 -12 40 callsubr
        </CharString>
</ttFont>
